<?xml version="1.0" encoding="utf-8"?>
<!-- Generator: Adobe Illustrator 24.0.1, SVG Export Plug-In . SVG Version: 6.00 Build 0)  -->
<svg version="1.1" id="Layer_1" xmlns="http://www.w3.org/2000/svg" xmlns:xlink="http://www.w3.org/1999/xlink" x="0px" y="0px"
	 viewBox="0 0 16 14" style="enable-background:new 0 0 16 14;" xml:space="preserve">
<style type="text/css">
	.st0{fill:#FFFFFF;}
</style>
<path class="st0" d="M1,8h11.86l-3.63,4.36c-0.35,0.43-0.3,1.06,0.13,1.41c0.43,0.35,1.06,0.3,1.41-0.13l0,0l5-6
	c0.03-0.05,0.06-0.1,0.09-0.15c0-0.05,0.05-0.08,0.07-0.13C15.98,7.25,16,7.12,16,7c0-0.12-0.02-0.25-0.07-0.36
	c0-0.05-0.05-0.08-0.07-0.13c-0.03-0.05-0.06-0.1-0.09-0.15l-5-6C10.58,0.13,10.3,0,10,0C9.77,0,9.54,0.08,9.36,0.23
	C8.93,0.58,8.88,1.21,9.23,1.64c0,0,0,0,0,0L12.86,6H1C0.45,6,0,6.45,0,7S0.45,8,1,8z"/>
</svg>
