<?xml version="1.0" encoding="utf-8"?>
<!-- Generator: Adobe Illustrator 24.0.1, SVG Export Plug-In . SVG Version: 6.00 Build 0)  -->
<svg version="1.1" id="Capa_1" xmlns="http://www.w3.org/2000/svg" xmlns:xlink="http://www.w3.org/1999/xlink" x="0px" y="0px"
	 viewBox="0 0 512 512" style="enable-background:new 0 0 512 512;" xml:space="preserve">
<style type="text/css">
	.st0{fill:#FFFFFF;}
</style>
<g>
	<path class="st0" d="M416.3,160.3C416.3,71.8,344.5,0,256,0S95.7,71.8,95.7,160.3c0,77.6,55.2,142.4,128.4,157.1v67h-63.8v63.8
		h63.8V512h63.8v-63.8h63.8v-63.8h-63.8v-67C361.2,302.7,416.3,237.9,416.3,160.3L416.3,160.3z M256,271.9
		c-61.5,0-111.6-50.1-111.6-111.6c0-61.5,50.1-111.6,111.6-111.6s111.6,50.1,111.6,111.6S317.5,271.9,256,271.9z"/>
	<circle class="st0" cx="256" cy="160.3" r="81.6"/>
</g>
</svg>
