<?xml version="1.0" encoding="utf-8"?>
<!-- Generator: Adobe Illustrator 25.1.0, SVG Export Plug-In . SVG Version: 6.00 Build 0)  -->
<svg version="1.1" id="Layer_1" xmlns="http://www.w3.org/2000/svg" xmlns:xlink="http://www.w3.org/1999/xlink" x="0px" y="0px"
	 viewBox="0 0 22 22" style="enable-background:new 0 0 22 22;" xml:space="preserve">
<g>
	<path d="M11,22C4.9,22,0,17.1,0,11S4.9,0,11,0s11,4.9,11,11S17.1,22,11,22z M11,2c-5,0-9,4-9,9c0,5,4,9,9,9c5,0,9-4,9-9
		C20,6,16,2,11,2z"/>
</g>
<g>
	<path d="M21,12H1c-0.6,0-1-0.4-1-1s0.4-1,1-1h20c0.6,0,1,0.4,1,1S21.6,12,21,12z"/>
</g>
<g>
	<path d="M11,22c-0.3,0-0.5-0.1-0.7-0.3C7.6,18.8,6.1,15,6,11c0.1-4,1.6-7.8,4.3-10.7C10.5,0.1,10.7,0,11,0l0,0
		c0.3,0,0.5,0.1,0.7,0.3C14.4,3.2,15.9,7,16,11c-0.1,4-1.6,7.8-4.3,10.7C11.5,21.9,11.3,22,11,22z M11,2.6C9.1,5,8.1,7.9,8,11
		c0.1,3,1.1,6,3,8.4c1.9-2.4,2.9-5.4,3-8.5C13.9,7.9,12.9,5,11,2.6z"/>
</g>
</svg>
