<?xml version="1.0" encoding="utf-8"?>
<!-- Generator: Adobe Illustrator 24.0.1, SVG Export Plug-In . SVG Version: 6.00 Build 0)  -->
<svg version="1.1" id="Capa_1" xmlns="http://www.w3.org/2000/svg" xmlns:xlink="http://www.w3.org/1999/xlink" x="0px" y="0px"
	 viewBox="0 0 512 512" style="enable-background:new 0 0 512 512;" xml:space="preserve">
<style type="text/css">
	.st0{fill:#FFFFFF;}
</style>
<g>
	<path class="st0" d="M331.3,0v63.8h71.8L300.2,166.7c-31.1-22.1-69-35-110-35C85.1,131.7,0,216.8,0,321.8S85.1,512,190.2,512
		s190.2-85.1,190.2-190.2c0-41-13-79-35-110l102.9-102.9v71.8H512V0L331.3,0z M190.2,463.3c-78,0-141.4-63.4-141.4-141.4
		s63.4-141.4,141.4-141.4s141.4,63.4,141.4,141.4S268.2,463.3,190.2,463.3L190.2,463.3z"/>
	<circle class="st0" cx="190.2" cy="321.8" r="111.4"/>
</g>
</svg>
