<?xml version="1.0" encoding="utf-8"?>
<!-- Generator: Adobe Illustrator 25.1.0, SVG Export Plug-In . SVG Version: 6.00 Build 0)  -->
<svg version="1.1" id="Layer_1" xmlns="http://www.w3.org/2000/svg" xmlns:xlink="http://www.w3.org/1999/xlink" x="0px" y="0px"
	 viewBox="0 0 24 24" style="enable-background:new 0 0 24 24;" xml:space="preserve">
<g>
	<path d="M12,24c-0.2,0-0.4-0.1-0.6-0.2C11.1,23.6,2,17.4,2,10C2,4.5,6.5,0,12,0c5.5,0,10,4.5,10,10c0,7.4-9.1,13.6-9.4,13.8
		C12.4,23.9,12.2,24,12,24z M12,2c-4.4,0-8,3.6-8,8c0,5.4,6.1,10.4,8,11.8c1.9-1.4,8-6.4,8-11.8C20,5.6,16.4,2,12,2z"/>
</g>
<g>
	<path d="M12,14c-2.2,0-4-1.8-4-4s1.8-4,4-4c2.2,0,4,1.8,4,4S14.2,14,12,14z M12,8c-1.1,0-2,0.9-2,2s0.9,2,2,2c1.1,0,2-0.9,2-2
		S13.1,8,12,8z"/>
</g>
</svg>
