<?xml version="1.0" encoding="utf-8"?>
<!-- Generator: Adobe Illustrator 24.0.1, SVG Export Plug-In . SVG Version: 6.00 Build 0)  -->
<svg version="1.1" id="Capa_1" xmlns="http://www.w3.org/2000/svg" xmlns:xlink="http://www.w3.org/1999/xlink" x="0px" y="0px"
	 viewBox="0 0 512 512" style="enable-background:new 0 0 512 512;" xml:space="preserve">
<style type="text/css">
	.st0{fill:#FFFFFF;}
</style>
<g>
	<circle class="st0" cx="256" cy="197.6" r="70.5"/>
	<path class="st0" d="M355.1,85c19.2-11.4,36.6-26.2,51.2-44L356.5,0C331.6,30.3,295,47.6,256,47.6S180.4,30.3,155.5,0l-49.9,41
		c14.6,17.8,32,32.6,51.2,44c-31.2,27.5-50.9,67.8-50.9,112.6c0,71.8,50.4,131.8,117.7,146.5v60.2h-43.1v64.6h43.1V512h64.6v-43.1
		h43.1v-64.6h-43.1v-60.2C355.6,329.4,406,269.4,406,197.6C406,152.8,386.3,112.5,355.1,85L355.1,85z M256,298.1
		c-55.4,0-100.5-45.1-100.5-100.5S200.6,97.2,256,97.2s100.5,45.1,100.5,100.5S311.4,298.1,256,298.1L256,298.1z"/>
</g>
</svg>
