<?xml version="1.0" encoding="utf-8"?>
<!-- Generator: Adobe Illustrator 24.0.1, SVG Export Plug-In . SVG Version: 6.00 Build 0)  -->
<svg version="1.1" id="Capa_1" xmlns="http://www.w3.org/2000/svg" xmlns:xlink="http://www.w3.org/1999/xlink" x="0px" y="0px"
	 viewBox="0 0 512 512" style="enable-background:new 0 0 512 512;" xml:space="preserve">
<style type="text/css">
	.st0{fill:#FFFFFF;}
</style>
<g>
	<path class="st0" d="M256,119.2c-68.4,0-132.7,26.6-181,75c-48.4,48.4-75,112.6-75,181v17.6h37.5v-17.6
		c0-120.5,98-218.5,218.5-218.5s218.5,98,218.5,218.5v17.6H512v-17.6c0-68.4-26.6-132.7-75-181C388.7,145.8,324.4,119.2,256,119.2
		L256,119.2z"/>
	<path class="st0" d="M444.5,392.8v-17.6c0-104-84.6-188.5-188.5-188.5S67.5,271.2,67.5,375.2v17.6h37.5v-17.6
		c0-83.3,67.8-151.1,151.1-151.1s151.1,67.8,151.1,151.1v17.6H444.5z"/>
	<path class="st0" d="M377.1,392.8v-17.6c0-66.8-54.3-121.1-121.1-121.1s-121.1,54.3-121.1,121.1v17.6h37.5v-17.6
		c0-46.1,37.5-83.6,83.6-83.6s83.6,37.5,83.6,83.6v17.6H377.1z"/>
</g>
</svg>
