<?xml version="1.0" encoding="utf-8"?>
<!-- Generator: Adobe Illustrator 23.0.6, SVG Export Plug-In . SVG Version: 6.00 Build 0)  -->
<svg version="1.1" id="Layer_1" xmlns="http://www.w3.org/2000/svg" xmlns:xlink="http://www.w3.org/1999/xlink" x="0px" y="0px"
	 viewBox="0 0 76.3 76.3" style="enable-background:new 0 0 76.3 76.3;" xml:space="preserve">
<style type="text/css">
	.st0{fill:#eeeeee;}
</style>
<g>
	<g>
		<g>
			<g>
				<path class="st0" d="M71.4,32.5l0-0.2c0-0.4,0.2-0.7,0.4-1.1c0.2-0.3,0.5-0.6,0.9-0.7c0.7-0.2,1.5-0.3,2.2,0.1
					c0.4,0.2,0.7,0.5,0.9,0.9c0,0,0,0,0,0c-0.3-0.2-0.5-0.3-0.9-0.3c0,0,0,0,0,0c0.2,0.3,0.3,0.6,0.3,0.9c0.1,0.6-0.1,1.1-0.5,1.5
					c-0.5,0.6-1.1,0.7-1.9,0.6c-0.7-0.2-1.2-0.6-1.4-1.2l-0.1-0.1L71.4,32.5z"/>
			</g>
			<g>
				<path class="st0" d="M69.4,25.4l0-0.2c-0.1-0.7,0.2-1.5,0.9-2c0.7-0.4,1.4-0.6,2.1-0.4c0.4,0.1,0.8,0.3,1.1,0.7c0,0,0,0,0,0
					c-0.3-0.1-0.6-0.2-0.9-0.1c0,0,0,0,0,0c0.3,0.2,0.4,0.5,0.5,0.8c0.2,0.6,0.1,1.1-0.1,1.6c-0.4,0.7-1,1-1.7,1
					c-0.7,0-1.3-0.3-1.7-0.9l-0.1-0.1L69.4,25.4z"/>
			</g>
			<g>
				<path class="st0" d="M66,19l-0.1-0.2c-0.3-0.7-0.1-1.6,0.4-2.1c0.6-0.5,1.2-0.9,2-0.8c0.4,0,0.9,0.1,1.2,0.4c0,0,0,0,0,0
					c-0.3,0-0.6,0-0.9,0.1c0,0,0,0,0,0c0.3,0.1,0.5,0.4,0.7,0.7c0.3,0.5,0.3,1,0.2,1.6c-0.2,0.7-0.7,1.2-1.5,1.3
					c-0.7,0.1-1.3,0-1.8-0.6l-0.1-0.1C66.1,19.2,66,19.1,66,19z"/>
			</g>
			<g>
				<path class="st0" d="M61.2,13.5l-0.1-0.2c-0.4-0.6-0.4-1.5,0-2.2c0.4-0.6,1-1.1,1.8-1.2c0.4-0.1,0.9,0,1.3,0.2c0,0,0,0,0,0
					c-0.3,0-0.6,0.1-0.9,0.3c0,0,0,0,0,0c0.3,0.1,0.6,0.3,0.8,0.5c0.4,0.4,0.6,0.9,0.5,1.5c-0.1,0.8-0.5,1.3-1.2,1.6
					c-0.7,0.3-1.3,0.2-1.9-0.1l-0.1-0.1L61.2,13.5z"/>
			</g>
			<g>
				<path class="st0" d="M55.4,9.1l-0.2-0.2c-0.5-0.5-0.7-1.4-0.5-2.1c0.3-0.7,0.7-1.3,1.5-1.6C56.6,5,57,5,57.5,5.1c0,0,0,0,0,0
					c-0.3,0.1-0.6,0.2-0.8,0.4c0,0,0,0,0,0c0.3,0,0.6,0.2,0.9,0.3c0.5,0.3,0.8,0.8,0.9,1.3c0.1,0.7-0.2,1.4-0.8,1.8
					c-0.6,0.4-1.2,0.5-1.9,0.3l-0.1-0.1L55.4,9.1z"/>
			</g>
			<g>
				<path class="st0" d="M48.8,6.1l-0.2-0.1c-0.6-0.4-1.1-1.1-0.9-1.9c0.1-0.8,0.4-1.4,1.1-1.9c0.4-0.3,0.8-0.4,1.2-0.4c0,0,0,0,0,0
					c-0.3,0.2-0.5,0.3-0.7,0.6c0,0,0,0,0,0c0.3-0.1,0.6,0,0.9,0.2c0.5,0.2,0.9,0.6,1.1,1.1c0.3,0.7,0.1,1.4-0.4,1.9
					c-0.5,0.6-1.1,0.8-1.8,0.7l-0.2,0L48.8,6.1z"/>
			</g>
			<g>
				<path class="st0" d="M41.6,4.5c-0.1,0-0.2,0-0.2-0.1c-0.7-0.2-1.3-0.9-1.3-1.7c0-0.8,0.1-1.5,0.7-2.1C41,0.3,41.4,0.1,41.8,0
					c0,0,0,0,0,0c-0.2,0.2-0.4,0.5-0.6,0.8c0,0,0,0,0,0c0.3-0.1,0.6-0.2,0.9-0.1c0.6,0.1,1,0.4,1.3,0.9c0.4,0.6,0.4,1.3,0,2
					c-0.4,0.6-0.9,1-1.6,1l-0.2,0L41.6,4.5z"/>
			</g>
			<g>
				<path class="st0" d="M34.3,4.6l-0.2,0c-0.7,0-1.4-0.6-1.7-1.4c-0.2-0.7-0.2-1.5,0.2-2.2c0.2-0.4,0.5-0.7,1-0.9c0,0,0,0,0,0
					c-0.2,0.3-0.3,0.5-0.4,0.9c0,0,0,0,0,0c0.3-0.2,0.6-0.3,0.9-0.3c0.6,0,1.1,0.2,1.5,0.6c0.5,0.6,0.7,1.2,0.5,1.9
					c-0.2,0.7-0.7,1.1-1.3,1.3c0,0-0.1,0-0.1,0L34.3,4.6z"/>
			</g>
			<g>
				<path class="st0" d="M27.2,6.2l-0.2,0c-0.7,0.1-1.5-0.3-1.9-1c-0.4-0.7-0.5-1.4-0.3-2.1c0.1-0.4,0.4-0.8,0.7-1.1c0,0,0,0,0,0
					c-0.1,0.3-0.2,0.6-0.2,0.9c0,0,0,0,0,0c0.2-0.2,0.5-0.4,0.8-0.5c0.3-0.1,0.5-0.1,0.8-0.1c0.3,0,0.5,0.1,0.8,0.3
					c0.6,0.4,0.9,1,0.9,1.8c0,0.7-0.4,1.2-1,1.6l-0.1,0.1L27.2,6.2z"/>
			</g>
			<g>
				<path class="st0" d="M20.6,9.3l-0.2,0.1c-0.7,0.2-1.6,0-2.1-0.6c-0.5-0.6-0.8-1.3-0.7-2c0-0.4,0.2-0.8,0.5-1.2c0,0,0,0,0,0
					c-0.1,0.3-0.1,0.6,0,0.9c0,0,0,0,0,0c0.2-0.3,0.4-0.5,0.7-0.6c0.5-0.3,1-0.3,1.6-0.2c0.7,0.3,1.1,0.8,1.2,1.5
					C21.7,7.9,21.5,8.5,21,9l-0.1,0.1L20.6,9.3z"/>
			</g>
			<g>
				<path class="st0" d="M14.8,13.7l-0.2,0.1c-0.7,0.4-1.5,0.4-2.2-0.1c-0.6-0.5-1-1.1-1.2-1.9c-0.1-0.4,0-0.9,0.2-1.3c0,0,0,0,0,0
					c0,0.3,0.1,0.6,0.2,0.9c0,0,0,0,0,0c0.1-0.3,0.3-0.5,0.6-0.7c0.4-0.4,1-0.5,1.5-0.5c0.7,0.1,1.3,0.5,1.5,1.2
					c0.3,0.7,0.2,1.3-0.2,1.9l-0.1,0.1L14.8,13.7z"/>
			</g>
			<g>
				<path class="st0" d="M10.1,19.3L10,19.4c-0.5,0.5-1.4,0.7-2.1,0.4c-0.7-0.3-1.2-0.8-1.5-1.6c-0.2-0.4-0.2-0.8-0.1-1.3
					c0,0,0,0,0,0c0.1,0.3,0.2,0.6,0.4,0.8c0,0,0,0,0,0c0-0.3,0.2-0.6,0.4-0.9c0.4-0.4,0.8-0.7,1.4-0.7c0.8-0.1,1.4,0.3,1.8,0.9
					c0.4,0.6,0.4,1.2,0.2,1.9L10.3,19C10.2,19.1,10.2,19.2,10.1,19.3z"/>
			</g>  
			<g>
				<path class="st0" d="M6.8,25.7l-0.1,0.2c-0.4,0.6-1.2,1-2,0.8c-0.8-0.2-1.4-0.5-1.8-1.2c-0.2-0.4-0.4-0.8-0.3-1.3c0,0,0,0,0,0
					C2.6,24.6,2.8,24.8,3,25c0,0,0,0,0,0c0-0.3,0-0.6,0.2-0.9c0.2-0.5,0.6-0.9,1.2-1c0.7-0.2,1.4,0,1.9,0.5C6.9,24,7,24.6,6.9,25.3
					l0,0.2L6.8,25.7z"/>
			</g>
			<g>
				<path class="st0" d="M4.9,32.8L4.8,33c-0.3,0.7-1,1.2-1.8,1.2c-0.8,0-1.5-0.2-2-0.8c-0.3-0.3-0.5-0.7-0.6-1.1c0,0,0,0,0,0
					c0.2,0.2,0.4,0.5,0.7,0.6c0,0,0,0,0,0C1,32.5,1,32.2,1,31.9c0.1-0.6,0.4-1,0.9-1.3c0.7-0.4,1.4-0.3,2,0.1c0.6,0.4,0.9,0.9,1,1.6
					l0,0.2L4.9,32.8z"/>
			</g>
			<g>
				<path class="st0" d="M4.5,40.1l0,0.2c-0.1,0.7-0.8,1.4-1.5,1.6C2.2,42,1.4,42,0.8,41.6c-0.4-0.2-0.6-0.6-0.8-1c0,0,0,0,0,0
					c0.2,0.2,0.5,0.4,0.8,0.4c0,0,0,0,0,0c-0.2-0.3-0.2-0.6-0.2-0.9c0-0.6,0.2-1.1,0.6-1.4c0.6-0.5,1.2-0.6,1.9-0.4
					c0.7,0.2,1.1,0.7,1.3,1.4l0,0.2L4.5,40.1z"/>
			</g>
			<g>
				<path class="st0" d="M5.7,47.2l0,0.2c0,0.8-0.4,1.5-1.1,1.9c-0.7,0.3-1.4,0.4-2.2,0.2c-0.4-0.1-0.8-0.4-1-0.8c0,0,0,0,0,0
					c0.3,0.1,0.6,0.2,0.9,0.2c0,0,0,0,0,0C2,48.7,1.9,48.4,1.9,48c-0.1-0.6,0-1.1,0.3-1.5c0.4-0.6,1.1-0.9,1.8-0.8
					c0.7,0.1,1.3,0.5,1.6,1.1l0.1,0.1L5.7,47.2z"/>
			</g>
			<g>
				<path class="st0" d="M8.4,54c0,0.1,0,0.2,0.1,0.2c0.2,0.7,0,1.6-0.7,2c-0.6,0.5-1.3,0.7-2.1,0.6c-0.4-0.1-0.8-0.2-1.2-0.5
					c0,0,0,0,0,0c0.3,0.1,0.6,0.1,0.9,0c0,0,0,0,0,0c-0.3-0.2-0.5-0.4-0.6-0.7c-0.2-0.5-0.2-1.1,0-1.6c0.3-0.7,0.9-1.1,1.6-1.1
					c0.7-0.1,1.3,0.2,1.7,0.7l0.1,0.1L8.4,54z"/>
			</g>
			<g>
				<path class="st0" d="M12.5,60l0.1,0.2c0.4,0.6,0.3,1.5-0.2,2.2c-0.5,0.6-1.1,1-1.9,1.1c-0.4,0-0.9,0-1.3-0.3c0,0,0,0,0,0
					c0.3,0,0.6,0,0.9-0.2c0,0,0,0,0,0c-0.3-0.1-0.5-0.3-0.7-0.6c-0.4-0.4-0.5-1-0.4-1.5c0.2-0.8,0.6-1.2,1.3-1.5
					c0.7-0.2,1.3-0.1,1.8,0.4l0.1,0.1L12.5,60z"/>
			</g>
			<g>
				<path class="st0" d="M17.9,65l0.2,0.2c0.5,0.6,0.6,1.5,0.2,2.2c-0.4,0.7-0.9,1.2-1.6,1.4c-0.4,0.1-0.8,0.1-1.3,0c0,0,0,0,0,0
					c0.3-0.1,0.6-0.2,0.9-0.3c0,0,0,0,0,0c-0.3,0-0.6-0.2-0.8-0.4c-0.4-0.4-0.7-0.8-0.7-1.4c0-0.8,0.3-1.4,1-1.7
					c0.6-0.3,1.3-0.4,1.9-0.1l0.1,0.1L17.9,65z"/>
			</g>
			<g>
				<path class="st0" d="M24.1,68.7l0.2,0.1c0.6,0.5,0.9,1.3,0.7,2.1c-0.2,0.7-0.6,1.4-1.3,1.8c-0.4,0.2-0.8,0.3-1.3,0.2
					c0,0,0,0,0,0c0.3-0.1,0.5-0.3,0.8-0.5c0,0,0,0,0,0c-0.3,0-0.6-0.1-0.9-0.3c-0.5-0.3-0.8-0.7-1-1.2c-0.2-0.7,0-1.4,0.6-1.9
					c0.5-0.5,1.2-0.7,1.8-0.5l0.2,0L24.1,68.7z"/>
			</g>
			<g>
				<path class="st0" d="M31,71l0.2,0.1c0.7,0.3,1.2,1,1.1,1.8c0,0.8-0.3,1.5-0.9,2c-0.3,0.3-0.7,0.5-1.2,0.5c0,0,0,0,0,0
					c0.3-0.2,0.5-0.4,0.6-0.7c0,0,0,0,0,0c-0.3,0.1-0.6,0-0.9,0c-0.5-0.2-1-0.5-1.2-1c-0.3-0.7-0.3-1.3,0.2-2c0.4-0.6,1-0.9,1.7-0.9
					l0.2,0L31,71z"/>
			</g>
			<g>
				<path class="st0" d="M38.3,71.8l0.2,0c0.7,0.1,1.4,0.8,1.5,1.5c0.1,0.8,0,1.5-0.4,2.1c-0.3,0.4-0.6,0.6-1,0.8c0,0,0,0,0,0
					c0.2-0.2,0.4-0.5,0.5-0.8c0,0,0,0,0,0c-0.3,0.2-0.6,0.2-0.9,0.2c-0.6-0.1-1.1-0.3-1.4-0.7c-0.5-0.6-0.5-1.3-0.3-2
					c0.3-0.7,0.8-1.1,1.5-1.2l0.2,0C38.1,71.8,38.2,71.8,38.3,71.8z"/>
			</g>
			<g>
				<path class="st0" d="M45.5,71l0.2,0c0.7,0,1.5,0.5,1.8,1.2c0.3,0.7,0.3,1.4,0,2.2c-0.2,0.4-0.4,0.7-0.9,1c0,0,0,0,0,0
					c0.2-0.3,0.3-0.6,0.3-0.9c0,0,0,0,0,0c-0.2,0.2-0.6,0.3-0.9,0.4c-0.6,0.1-1.1-0.1-1.5-0.4c-0.6-0.5-0.8-1.1-0.7-1.9
					c0.1-0.7,0.5-1.2,1.2-1.5l0.1-0.1L45.5,71z"/>
			</g>
			<g>
				<path class="st0" d="M52.4,68.6l0.2-0.1c0.7-0.2,1.6,0.2,2,0.8c0.4,0.6,0.7,1.3,0.5,2.1c-0.1,0.4-0.3,0.8-0.6,1.1c0,0,0,0,0,0
					c0.1-0.3,0.1-0.6,0.1-0.9c0,0,0,0,0,0c-0.2,0.3-0.5,0.4-0.8,0.5c-0.5,0.2-1.1,0.3-1.6,0c-0.7-0.4-1-0.9-1.1-1.7
					c0-0.4,0.1-0.7,0.2-1c0.1-0.3,0.3-0.5,0.6-0.8l0.1-0.1L52.4,68.6z"/>
			</g>
			<g>
				<path class="st0" d="M58.7,64.8l0.2-0.1c0.3-0.2,0.7-0.2,1.1-0.1c0.4,0,0.7,0.2,1,0.5c0.6,0.5,0.9,1.2,1,2
					c0,0.4-0.1,0.8-0.4,1.2c0,0,0,0,0,0c0-0.3,0-0.6-0.1-0.9c0,0,0,0,0,0c-0.1,0.3-0.4,0.5-0.6,0.7c-0.5,0.3-1,0.4-1.5,0.3
					c-0.7-0.2-1.2-0.7-1.4-1.4c-0.2-0.7,0-1.3,0.4-1.9l0.1-0.1L58.7,64.8z"/>
			</g>
			<g>
				<path class="st0" d="M63.9,59.8l0.2-0.1c0.6-0.5,1.4-0.6,2.1-0.1c0.7,0.4,1.1,0.9,1.4,1.7c0.1,0.4,0.1,0.9-0.1,1.3c0,0,0,0,0,0
					c0-0.3-0.1-0.6-0.3-0.9c0,0,0,0,0,0c0,0.3-0.3,0.6-0.5,0.8c-0.4,0.4-0.9,0.6-1.5,0.6c-0.8,0-1.3-0.4-1.7-1.1
					c-0.3-0.7-0.3-1.3,0-1.9l0.1-0.1L63.9,59.8z"/>
			</g>
			<g>
				<path class="st0" d="M68,53.7l0.1-0.2c0.5-0.6,1.3-0.8,2.1-0.6c0.7,0.2,1.3,0.7,1.7,1.4c0.2,0.4,0.3,0.8,0.2,1.3c0,0,0,0,0,0
					c-0.1-0.3-0.3-0.6-0.5-0.8c0,0,0,0,0,0c0,0.3-0.1,0.6-0.3,0.9c-0.3,0.5-0.8,0.8-1.3,0.9c-0.8,0.1-1.4-0.1-1.9-0.7
					c-0.5-0.6-0.6-1.2-0.3-1.8l0-0.2L68,53.7z"/>
			</g>
			<g>
				<path class="st0" d="M70.7,46.9l0.1-0.2c0.3-0.7,1.1-1.1,1.9-1c0.8,0.1,1.4,0.4,1.9,1c0.3,0.3,0.4,0.7,0.4,1.2c0,0,0,0,0,0
					c-0.2-0.3-0.4-0.5-0.6-0.7c0,0,0,0,0,0c0.1,0.3,0,0.6-0.1,0.9c-0.2,0.5-0.5,1-1,1.2c-0.7,0.3-1.4,0.2-2-0.3
					c-0.6-0.4-0.8-1-0.8-1.7l0-0.2L70.7,46.9z"/>
			</g>
			<g>
				<path class="st0" d="M71.8,39.7l0.1-0.2c0.2-0.7,0.9-1.3,1.7-1.4c0.8-0.1,1.5,0,2.1,0.5c0.3,0.3,0.6,0.6,0.7,1.1c0,0,0,0,0,0
					c-0.2-0.2-0.5-0.4-0.8-0.5c0,0,0,0,0,0c0.1,0.3,0.1,0.6,0.1,0.9c-0.1,0.6-0.3,1-0.7,1.4c-0.6,0.4-1.3,0.5-2,0.2
					c-0.7-0.3-1.1-0.8-1.2-1.5l0-0.2L71.8,39.7z"/>
			</g>
		</g>
	</g>
</g>
</svg>
