<?xml version="1.0" encoding="utf-8"?>
<!-- Generator: Adobe Illustrator 23.0.6, SVG Export Plug-In . SVG Version: 6.00 Build 0)  -->
<svg version="1.1" id="Layer_1" xmlns="http://www.w3.org/2000/svg" xmlns:xlink="http://www.w3.org/1999/xlink" x="0px" y="0px"
	 viewBox="0 0 80.7 80.7" style="enable-background:new 0 0 80.7 80.7;" xml:space="preserve">
<style type="text/css">
	.st0{fill:#73509C;}
</style>
<g>
	<g>
		<g>
			<g>
				<path class="st0" d="M71.4,35.2l0-0.4c0.1-0.7,0.3-1.4,0.8-2c0.4-0.6,1.1-1.1,1.8-1.4c1.4-0.6,2.9-0.7,4.4,0
					c0.8,0.4,1.5,1,1.9,1.9c0,0,0,0,0,0.1c-0.5-0.4-1.1-0.6-1.7-0.7c0,0,0,0.1,0,0.1c0.4,0.5,0.5,1.2,0.6,1.8c0.1,0.6,0,1.2-0.1,1.7
					c-0.2,0.5-0.5,1-0.9,1.4c-1.1,1.1-2.4,1.3-3.8,0.9c-1.4-0.4-2.2-1.2-2.7-2.4l-0.1-0.3L71.4,35.2z"/>
			</g>
			<g>
				<path class="st0" d="M69,27.4l-0.1-0.4c-0.1-0.7,0-1.4,0.2-2.1c0.3-0.7,0.7-1.3,1.4-1.8c1.2-0.9,2.6-1.4,4.2-1.2
					c0.9,0.2,1.6,0.6,2.3,1.3c0,0,0,0,0,0.1c-0.6-0.2-1.2-0.3-1.9-0.2c0,0,0,0.1,0.1,0.1c0.5,0.4,0.9,1,1.1,1.6
					c0.4,1.1,0.3,2.2-0.2,3.2c-0.7,1.3-1.9,1.9-3.4,1.9c-1.5,0-2.6-0.6-3.2-1.7c-0.1-0.1-0.1-0.2-0.2-0.2L69,27.4z"/>
			</g>
			<g>
				<path class="st0" d="M64.7,20.4c-0.1-0.1-0.1-0.3-0.2-0.4c-0.7-1.2-0.5-3,0.5-4.2c1-1.2,2.2-2,3.7-2.2c0.9-0.1,1.8,0.1,2.6,0.7
					c0,0,0,0,0,0c-0.7,0-1.3,0-1.9,0.3c0,0,0.1,0,0.1,0.1c0.6,0.2,1.1,0.7,1.5,1.3c0.7,1,0.9,2.1,0.7,3.1c-0.4,1.5-1.4,2.4-2.9,2.7
					c-1.4,0.3-2.6,0.1-3.6-0.7L65,20.8L64.7,20.4z"/>
			</g>
			<g>
				<path class="st0" d="M58.6,14.8l-0.3-0.3c-0.9-1-1.2-2.7-0.6-4.2c0.6-1.4,1.6-2.5,3.1-3.1c0.8-0.3,1.8-0.4,2.7,0c0,0,0,0,0.1,0
					c-0.6,0.1-1.2,0.3-1.7,0.7c0,0,0.1,0,0.1,0c0.7,0.1,1.2,0.5,1.7,0.9c0.9,0.8,1.5,1.7,1.4,2.9c0,1.6-0.8,2.7-2.1,3.4
					c-1.3,0.7-2.5,0.7-3.7,0.2l-0.3-0.1L58.6,14.8z"/>
			</g>
			<g>
				<path class="st0" d="M51.4,10.9L51,10.7c-1.1-0.8-1.9-2.3-1.6-3.9c0.2-1.5,0.8-2.8,2.2-3.8c0.7-0.6,1.6-0.8,2.5-0.7
					c0,0,0,0,0.1,0c-0.6,0.3-1.1,0.6-1.5,1.1c0,0,0.1,0,0.1,0c0.7-0.1,1.3,0.1,1.9,0.4c1.1,0.4,1.8,1.3,2.1,2.4
					c0.4,1.5,0,2.7-1.1,3.8c-1.1,1-2.2,1.3-3.5,1.1l-0.3,0L51.4,10.9z"/>
			</g>
			<g>
				<path class="st0" d="M43.4,9L43,8.9c-1.3-0.4-2.4-1.8-2.6-3.4c-0.2-1.5,0.1-3,1.1-4.2c0.6-0.7,1.3-1.2,2.3-1.4c0,0,0,0,0.1,0
					c-0.5,0.4-0.9,0.9-1.1,1.5c0,0,0.1,0,0.1,0c0.6-0.3,1.3-0.3,1.9-0.2c1.2,0.2,2.1,0.8,2.7,1.8c0.8,1.3,0.7,2.7-0.1,3.9
					c-0.8,1.2-1.8,2-3.1,2l-0.3,0C43.8,9.1,43.6,9,43.4,9z"/>
			</g>
			<g>
				<path class="st0" d="M35.2,9.3l-0.4,0c-0.7-0.1-1.4-0.3-2-0.8c-0.6-0.4-1.1-1.1-1.4-1.8c-0.6-1.4-0.7-2.9,0-4.4
					c0.4-0.8,1-1.5,1.9-1.9c0,0,0,0,0.1,0c-0.4,0.5-0.6,1.1-0.7,1.7c0,0,0.1,0,0.1,0c0.5-0.4,1.2-0.5,1.8-0.6c0.6-0.1,1.2,0,1.7,0.1
					c0.5,0.2,1,0.5,1.4,0.9c1.1,1.1,1.3,2.4,0.9,3.8c-0.4,1.4-1.2,2.2-2.4,2.7l-0.3,0.1L35.2,9.3z"/>
			</g>
			<g>
				<path class="st0" d="M27.4,11.7l-0.4,0.1c-0.7,0.1-1.4,0-2.1-0.2c-0.7-0.3-1.3-0.7-1.8-1.4C22.1,9,21.6,7.6,21.8,6
					c0.2-0.9,0.6-1.6,1.3-2.3c0,0,0,0,0.1,0C23,4.3,22.9,4.9,23,5.5c0,0,0.1,0,0.1-0.1c0.4-0.5,1-0.9,1.6-1.1
					c1.1-0.4,2.2-0.3,3.2,0.2c1.3,0.7,1.9,1.9,1.9,3.4c0,1.5-0.6,2.6-1.7,3.2c-0.1,0.1-0.2,0.1-0.2,0.2L27.4,11.7z"/>
			</g>
			<g>
				<path class="st0" d="M20.4,16c-0.1,0.1-0.3,0.1-0.4,0.2c-1.2,0.7-3,0.5-4.2-0.5c-1.2-1-2-2.2-2.2-3.7c-0.1-0.9,0.1-1.8,0.7-2.6
					c0,0,0,0,0,0c0,0.7,0,1.3,0.3,1.9c0,0,0-0.1,0.1-0.1c0.2-0.6,0.7-1.1,1.3-1.5C16.9,9,17.9,8.7,19,9c1.5,0.4,2.4,1.4,2.7,2.9
					c0.3,1.4,0.1,2.6-0.7,3.6l-0.2,0.2L20.4,16z"/>
			</g>
			<g>
				<path class="st0" d="M14.8,22l-0.3,0.3c-1,0.9-2.7,1.2-4.2,0.6c-1.4-0.6-2.5-1.6-3.1-3.1c-0.3-0.8-0.4-1.8,0-2.7c0,0,0,0,0-0.1
					c0.1,0.6,0.3,1.2,0.7,1.7c0,0,0-0.1,0-0.1C8,18.1,8.4,17.5,8.8,17c0.8-0.9,1.7-1.5,2.9-1.4c1.6,0,2.7,0.8,3.4,2.1
					c0.7,1.3,0.7,2.5,0.2,3.7l-0.1,0.3L14.8,22z"/>
			</g>
			<g>
				<path class="st0" d="M10.9,29.3l-0.2,0.4c-0.8,1.1-2.3,1.9-3.9,1.6c-1.5-0.2-2.8-0.8-3.8-2.2c-0.6-0.7-0.8-1.6-0.7-2.5
					c0,0,0,0,0-0.1c0.3,0.6,0.6,1.1,1.1,1.5c0,0,0-0.1,0-0.1c-0.1-0.7,0.1-1.3,0.4-1.9c0.4-1.1,1.3-1.8,2.4-2.1
					c1.5-0.4,2.7,0,3.8,1.1c1,1.1,1.3,2.2,1.1,3.5l0,0.3L10.9,29.3z"/>
			</g>
			<g>
				<path class="st0" d="M9,37.3l-0.1,0.4c-0.4,1.3-1.8,2.4-3.4,2.6c-1.5,0.2-3-0.1-4.2-1.1c-0.7-0.6-1.2-1.3-1.4-2.3c0,0,0,0,0-0.1
					c0.4,0.5,0.9,0.9,1.5,1.1c0,0,0-0.1,0-0.1c-0.3-0.6-0.3-1.3-0.2-1.9c0.2-1.2,0.8-2.1,1.8-2.7c1.3-0.8,2.7-0.7,3.9,0.1
					c1.2,0.8,2,1.8,2,3.1l0,0.3C9.1,36.9,9,37.1,9,37.3z"/>
			</g>
			<g>
				<path class="st0" d="M9.3,45.5l0,0.4c-0.1,0.7-0.3,1.4-0.8,2c-0.4,0.6-1.1,1.1-1.8,1.4c-1.4,0.6-2.9,0.7-4.4,0
					c-0.8-0.4-1.5-1-1.9-1.9c0,0,0,0,0-0.1C1,47.8,1.6,48,2.2,48.1c0,0,0-0.1,0-0.1c-0.4-0.5-0.5-1.2-0.6-1.8
					c-0.1-0.6,0-1.2,0.1-1.7c0.2-0.5,0.5-1,0.9-1.4C3.7,42,5,41.8,6.4,42.2c1.4,0.4,2.2,1.2,2.7,2.4l0.1,0.3L9.3,45.5z"/>
			</g>
			<g>
				<path class="st0" d="M11.7,53.3l0.1,0.4c0.1,0.7,0,1.4-0.2,2.1c-0.3,0.7-0.7,1.3-1.4,1.8C9,58.6,7.6,59.1,6,58.9
					c-0.9-0.2-1.6-0.6-2.3-1.3c0,0,0,0,0-0.1c0.6,0.2,1.2,0.3,1.9,0.2c0,0,0-0.1-0.1-0.1c-0.5-0.4-0.9-1-1.1-1.6
					c-0.4-1.1-0.3-2.2,0.2-3.2c0.7-1.3,1.9-1.9,3.4-1.9c1.5,0,2.6,0.6,3.2,1.7c0.1,0.1,0.1,0.2,0.2,0.2L11.7,53.3z"/>
			</g>
			<g>
				<path class="st0" d="M16,60.3c0.1,0.1,0.1,0.3,0.2,0.4c0.7,1.2,0.5,3-0.5,4.2c-1,1.2-2.2,2-3.7,2.2c-0.9,0.1-1.8-0.1-2.6-0.7
					c0,0,0,0,0,0c0.7,0,1.3,0,1.9-0.3c0,0-0.1,0-0.1-0.1c-0.6-0.2-1.1-0.7-1.5-1.3c-0.7-1-0.9-2.1-0.7-3.1c0.4-1.5,1.4-2.4,2.9-2.7
					c1.4-0.3,2.6-0.1,3.6,0.7l0.2,0.2L16,60.3z"/>
			</g>
			<g>
				<path class="st0" d="M22,65.9l0.3,0.3c0.9,1,1.2,2.7,0.6,4.2c-0.6,1.4-1.6,2.5-3.1,3.1c-0.8,0.3-1.8,0.4-2.7,0c0,0,0,0-0.1,0
					c0.6-0.1,1.2-0.3,1.7-0.7c0,0-0.1,0-0.1,0c-0.7-0.1-1.2-0.5-1.7-0.9c-0.9-0.8-1.5-1.7-1.4-2.9c0-1.6,0.8-2.7,2.1-3.4
					c1.3-0.7,2.5-0.7,3.7-0.2l0.3,0.1L22,65.9z"/>
			</g>
			<g>
				<path class="st0" d="M29.3,69.8l0.4,0.2c1.1,0.8,1.9,2.3,1.6,3.9c-0.2,1.5-0.8,2.8-2.2,3.8c-0.7,0.6-1.6,0.8-2.5,0.7
					c0,0,0,0-0.1,0c0.6-0.3,1.1-0.6,1.5-1.1c0,0-0.1,0-0.1,0c-0.7,0.1-1.3-0.1-1.9-0.4c-1.1-0.4-1.8-1.3-2.1-2.4
					c-0.4-1.5,0-2.7,1.1-3.8c1.1-1,2.2-1.3,3.5-1.1l0.3,0L29.3,69.8z"/>
			</g>
			<g>
				<path class="st0" d="M37.3,71.7l0.4,0.1c1.3,0.4,2.4,1.8,2.6,3.4c0.2,1.5-0.1,3-1.1,4.2c-0.6,0.7-1.3,1.2-2.3,1.4c0,0,0,0-0.1,0
					c0.5-0.4,0.9-0.9,1.1-1.5c0,0-0.1,0-0.1,0c-0.6,0.3-1.3,0.3-1.9,0.2c-1.2-0.2-2.1-0.8-2.7-1.8c-0.8-1.3-0.7-2.7,0.1-3.9
					c0.8-1.2,1.8-2,3.1-2l0.3,0C36.9,71.6,37.1,71.7,37.3,71.7z"/>
			</g>
			<g>
				<path class="st0" d="M45.5,71.4l0.4,0c0.7,0.1,1.4,0.3,2,0.8c0.6,0.4,1.1,1.1,1.4,1.8c0.6,1.4,0.7,2.9,0,4.4
					c-0.4,0.8-1,1.5-1.9,1.9c0,0,0,0-0.1,0c0.4-0.5,0.6-1.1,0.7-1.7c0,0-0.1,0-0.1,0c-0.5,0.4-1.2,0.5-1.8,0.6
					c-0.6,0.1-1.2,0-1.7-0.1c-0.5-0.2-1-0.5-1.4-0.9c-1.1-1.1-1.3-2.4-0.9-3.8c0.4-1.4,1.2-2.2,2.4-2.7l0.3-0.1L45.5,71.4z"/>
			</g>
			<g>
				<path class="st0" d="M53.3,69l0.4-0.1c0.7-0.1,1.4,0,2.1,0.2c0.7,0.3,1.3,0.7,1.8,1.4c0.9,1.2,1.4,2.6,1.2,4.2
					c-0.2,0.9-0.6,1.6-1.3,2.3c0,0,0,0-0.1,0c0.2-0.6,0.3-1.2,0.2-1.9c0,0-0.1,0-0.1,0.1c-0.4,0.5-1,0.9-1.6,1.1
					c-1.1,0.4-2.2,0.3-3.2-0.2c-1.3-0.7-1.9-1.9-1.9-3.4c0-1.5,0.6-2.6,1.7-3.2c0.1-0.1,0.2-0.1,0.2-0.2L53.3,69z"/>
			</g>
			<g>
				<path class="st0" d="M60.3,64.7c0.1-0.1,0.3-0.1,0.4-0.2c1.2-0.7,3-0.5,4.2,0.5c1.2,1,2,2.2,2.2,3.7c0.1,0.9-0.1,1.8-0.7,2.6
					c0,0,0,0,0,0c0-0.7,0-1.3-0.3-1.9c0,0,0,0.1-0.1,0.1c-0.2,0.6-0.7,1.1-1.3,1.5c-1,0.7-2.1,0.9-3.1,0.7c-1.5-0.4-2.4-1.4-2.7-2.9
					c-0.3-1.4-0.1-2.6,0.7-3.6l0.2-0.2L60.3,64.7z"/>
			</g>
			<g>
				<path class="st0" d="M65.9,58.6l0.3-0.3c1-0.9,2.7-1.2,4.2-0.6c1.4,0.6,2.5,1.6,3.1,3.1c0.3,0.8,0.4,1.8,0,2.7c0,0,0,0,0,0.1
					c-0.1-0.6-0.3-1.2-0.7-1.7c0,0,0,0.1,0,0.1c-0.1,0.7-0.5,1.2-0.9,1.7c-0.8,0.9-1.7,1.5-2.9,1.4c-1.6,0-2.7-0.8-3.4-2.1
					c-0.7-1.3-0.7-2.5-0.2-3.7l0.1-0.3L65.9,58.6z"/>
			</g>
			<g>
				<path class="st0" d="M69.8,51.4L70,51c0.8-1.1,2.3-1.9,3.9-1.6c1.5,0.2,2.8,0.8,3.8,2.2c0.6,0.7,0.8,1.6,0.7,2.5c0,0,0,0,0,0.1
					c-0.3-0.6-0.6-1.1-1.1-1.5c0,0,0,0.1,0,0.1c0.1,0.7-0.1,1.3-0.4,1.9c-0.4,1.1-1.3,1.8-2.4,2.1c-1.5,0.4-2.7,0-3.8-1.1
					c-1-1.1-1.3-2.2-1.1-3.5l0-0.3L69.8,51.4z"/>
			</g>
			<g>
				<path class="st0" d="M71.7,43.4l0.1-0.4c0.4-1.3,1.8-2.4,3.4-2.6c1.5-0.2,3,0.1,4.2,1.1c0.7,0.6,1.2,1.3,1.4,2.3c0,0,0,0,0,0.1
					c-0.4-0.5-0.9-0.9-1.5-1.1c0,0,0,0.1,0,0.1c0.3,0.6,0.3,1.3,0.2,1.9c-0.2,1.2-0.8,2.1-1.8,2.7c-1.3,0.8-2.7,0.7-3.9-0.1
					c-1.2-0.8-2-1.8-2-3.1l0-0.3C71.6,43.8,71.7,43.6,71.7,43.4z"/>
			</g>
		</g>
	</g>
</g>
</svg>
