<?xml version="1.0" encoding="utf-8"?>
<!-- Generator: Adobe Illustrator 23.0.6, SVG Export Plug-In . SVG Version: 6.00 Build 0)  -->
<svg version="1.1" id="Layer_1" xmlns="http://www.w3.org/2000/svg" xmlns:xlink="http://www.w3.org/1999/xlink" x="0px" y="0px"
	 viewBox="0 0 80.3 80.3" style="enable-background:new 0 0 80.3 80.3;" xml:space="preserve">
<style type="text/css">
	.st0{fill:#6B6B6B;}
	.st1{fill:#73509C;}
</style>
<g>
	<g>
		<g>
			<g>
				<path class="st0" d="M72.9,47.6l0,0.2c0,0.7,0.5,1.5,1.2,1.8c0.7,0.3,1.4,0.4,2.2,0c0.4-0.2,0.7-0.4,1-0.9c0,0,0,0,0,0
					c-0.3,0.2-0.6,0.3-0.9,0.3c0,0,0,0,0,0c0.2-0.2,0.3-0.6,0.4-0.9c0.1-0.6,0-1.1-0.4-1.5c-0.5-0.6-1.1-0.8-1.9-0.7
					c-0.7,0.1-1.2,0.5-1.5,1.2L73,47.3L72.9,47.6z"/>
				<path class="st1" d="M76.7,46.5c0.4-0.2,0.6-0.6,0.8-1c0.1-0.4,0.2-0.8,0.1-1.3c0,0,0.1,0,0.1,0l0.5,0.4l0.1,0.1l0,0
					c0-0.1,0-0.1,0-0.2c-0.1-0.5-0.5-0.9-0.9-1.1c-0.3-0.2-0.7-0.3-1.1-0.4c-0.4-0.1-0.8-0.1-1.1,0.1c-0.6,0.2-1,0.7-1.3,1.3
					c-0.2,0.5-0.1,1,0.2,1.4c0,0.1,0.1,0.1,0.1,0c0.4-0.2,0.9-0.2,1.4-0.1c0.4,0.1,0.8,0.3,1.1,0.6C76.6,46.4,76.6,46.5,76.7,46.5z"
					/>
			</g>
			<g>
				<path class="st0" d="M69.7,56.2l-0.1,0.2c-0.2,0.7,0,1.6,0.6,2.1c0.6,0.5,1.3,0.7,2.1,0.6c0.4-0.1,0.8-0.2,1.2-0.5c0,0,0,0,0,0
					c-0.3,0.1-0.6,0.1-0.9,0c0,0,0,0,0,0c0.3-0.2,0.5-0.4,0.6-0.7c0.2-0.5,0.2-1.1,0-1.6c-0.3-0.7-0.9-1.1-1.6-1.2
					C71,55,70.4,55.2,70,55.8l-0.1,0.1L69.7,56.2z"/>
				<path class="st1" d="M73.6,56.1c0.4-0.1,0.8-0.4,1-0.7c0.3-0.4,0.4-0.8,0.4-1.2c0,0,0.1,0,0.1,0.1l0.4,0.5l0.1,0.1l0,0
					c0-0.1,0-0.1,0-0.2c0-0.5-0.2-1-0.6-1.4c-0.3-0.3-0.6-0.5-1-0.7c-0.4-0.2-0.7-0.3-1.1-0.2c-0.7,0.1-1.2,0.4-1.5,0.9
					c-0.3,0.4-0.4,0.9-0.3,1.4c0,0.1,0,0.1,0.1,0.1c0.5-0.1,1,0,1.4,0.3c0.4,0.2,0.7,0.5,0.9,0.9C73.5,56,73.6,56.1,73.6,56.1z"/>
			</g>
			<g>
				<path class="st0" d="M64.3,63.6l-0.1,0.2c-0.4,0.6-0.4,1.5,0.1,2.2c0.5,0.6,1,1,1.8,1.2c0.4,0.1,0.9,0,1.3-0.2c0,0,0,0,0,0
					c-0.3,0-0.6,0-0.9-0.2c0,0,0,0,0,0c0.3-0.1,0.5-0.3,0.7-0.6c0.4-0.4,0.5-1,0.5-1.5c-0.1-0.8-0.5-1.3-1.2-1.5
					c-0.7-0.3-1.3-0.2-1.9,0.2l-0.1,0.1L64.3,63.6z"/>
				<path class="st1" d="M68.1,64.6c0.4,0,0.8-0.2,1.2-0.4c0.3-0.3,0.6-0.6,0.7-1.1c0,0,0.1,0.1,0.1,0.1l0.2,0.6l0,0.1l0,0
					c0-0.1,0-0.1,0.1-0.2c0.1-0.5,0-1-0.2-1.5c-0.2-0.4-0.4-0.6-0.7-0.9c-0.3-0.3-0.6-0.5-1-0.5c-0.7-0.1-1.3,0-1.7,0.5
					c-0.4,0.4-0.6,0.8-0.6,1.3c0,0.1,0,0.1,0.1,0.1c0.5,0.1,0.9,0.3,1.3,0.6c0.3,0.3,0.5,0.7,0.6,1.1C68,64.4,68,64.5,68.1,64.6z"/>
			</g>
			<g>
				<path class="st0" d="M57.1,69.2l-0.2,0.2c-0.5,0.5-0.8,1.4-0.5,2.1c0.3,0.7,0.7,1.3,1.5,1.6c0.4,0.2,0.8,0.2,1.3,0.1
					c0,0,0,0,0,0c-0.3-0.1-0.6-0.2-0.8-0.4c0,0,0,0,0,0c0.3,0,0.6-0.2,0.9-0.3c0.5-0.3,0.8-0.8,0.9-1.3c0.1-0.7-0.2-1.4-0.8-1.8
					c-0.6-0.4-1.2-0.5-1.9-0.3L57.3,69L57.1,69.2z"/>
				<path class="st1" d="M60.4,71.2c0.4,0.1,0.9,0.1,1.2-0.1c0.4-0.2,0.7-0.5,0.9-0.9c0,0,0,0.1,0,0.1l0.1,0.7l0,0.1l0,0
					c0-0.1,0.1-0.1,0.1-0.2c0.2-0.5,0.3-0.9,0.2-1.4c-0.1-0.4-0.2-0.7-0.5-1.1c-0.2-0.3-0.5-0.6-0.8-0.8c-0.6-0.3-1.2-0.3-1.8,0
					c-0.5,0.2-0.7,0.6-0.9,1.1c0,0.1,0,0.1,0,0.1c0.5,0.2,0.8,0.5,1,0.9c0.2,0.4,0.3,0.8,0.3,1.2C60.5,71,60.5,71.1,60.4,71.2z"/>
			</g>
			<g>
				<path class="st0" d="M48.6,72.7l-0.2,0.1c-0.7,0.3-1.1,1.1-1,1.9c0.1,0.8,0.3,1.4,1,1.9c0.3,0.3,0.7,0.4,1.2,0.5c0,0,0,0,0,0
					c-0.3-0.2-0.5-0.4-0.7-0.6c0,0,0,0,0,0c0.3,0.1,0.6,0,0.9-0.1c0.6-0.2,1-0.5,1.2-1c0.3-0.7,0.2-1.4-0.3-2
					c-0.4-0.6-1-0.8-1.7-0.8l-0.2,0L48.6,72.7z"/>
				<path class="st1" d="M51.3,75.6c0.4,0.2,0.8,0.3,1.2,0.2c0.4-0.1,0.8-0.2,1.2-0.6c0,0,0,0.1,0,0.1l-0.1,0.7l0,0.1l0,0
					c0,0,0.1-0.1,0.1-0.1c0.4-0.4,0.6-0.8,0.6-1.3c0-0.4,0-0.8-0.1-1.1c-0.1-0.4-0.3-0.7-0.6-1c-0.5-0.5-1.1-0.7-1.7-0.6
					c-0.5,0.1-0.9,0.4-1.2,0.8c0,0.1,0,0.1,0,0.1c0.4,0.3,0.6,0.7,0.7,1.2c0.1,0.4,0.1,0.8-0.1,1.3C51.4,75.4,51.3,75.5,51.3,75.6z"
					/>
			</g>
			<g>
				<path class="st0" d="M39.5,73.8l-0.2,0c-0.7,0.1-1.4,0.8-1.5,1.5c-0.1,0.8-0.1,1.5,0.4,2.1c0.2,0.4,0.6,0.6,1,0.8c0,0,0,0,0,0
					c-0.2-0.2-0.4-0.5-0.5-0.8c0,0,0,0,0,0c0.3,0.2,0.6,0.2,0.9,0.2c0.6,0,1.1-0.3,1.4-0.7c0.5-0.6,0.6-1.3,0.3-2
					c-0.3-0.7-0.8-1-1.5-1.2l-0.2,0L39.5,73.8z"/>
				<path class="st1" d="M41.3,77.2c0.3,0.3,0.7,0.5,1.1,0.5c0.4,0.1,0.9,0,1.3-0.2c0,0,0,0.1,0,0.1l-0.3,0.6l0,0.1l0,0
					c0.1,0,0.1,0,0.2-0.1c0.5-0.2,0.8-0.7,0.9-1.1c0.1-0.4,0.2-0.8,0.2-1.2c0-0.4-0.1-0.8-0.3-1.1c-0.4-0.6-0.9-0.9-1.5-1
					c-0.5-0.1-1,0.1-1.4,0.4c0,0,0,0.1,0,0.1c0.3,0.4,0.4,0.9,0.4,1.3c0,0.4-0.1,0.8-0.4,1.2C41.5,77.1,41.4,77.1,41.3,77.2z"/>
			</g>
			<g>
				<path class="st0" d="M30.5,72.4l-0.2,0c-0.7-0.1-1.5,0.3-1.9,1c-0.3,0.7-0.5,1.4-0.2,2.2c0.1,0.4,0.4,0.8,0.8,1.1c0,0,0,0,0,0
					c-0.1-0.3-0.2-0.6-0.2-0.9c0,0,0,0,0,0c0.2,0.3,0.5,0.3,0.9,0.4c0.6,0.1,1.1,0,1.6-0.3c0.6-0.4,0.9-1.1,0.8-1.8
					c-0.1-0.7-0.4-1.3-1.1-1.6l-0.1-0.1L30.5,72.4z"/>
				<path class="st1" d="M31.3,76.2c0.2,0.4,0.5,0.7,0.9,0.9c0.4,0.2,0.8,0.2,1.3,0.1c0,0,0,0.1,0,0.1L33,77.7L33,77.8l0,0
					c0.1,0,0.1,0,0.2,0c0.5-0.1,0.9-0.4,1.2-0.8c0.2-0.3,0.4-0.7,0.5-1.1c0.1-0.4,0.1-0.8,0-1.1c-0.2-0.7-0.6-1.1-1.2-1.3
					c-0.5-0.1-1-0.2-1.4,0c-0.1,0-0.1,0,0,0.1c0.2,0.5,0.2,0.9,0,1.4c-0.1,0.4-0.4,0.8-0.7,1C31.4,76.1,31.4,76.1,31.3,76.2z"/>
			</g>
			<g>
				<path class="st0" d="M22.2,68.5l-0.2-0.1c-0.7-0.2-1.6-0.1-2.1,0.5c-0.5,0.6-0.8,1.2-0.8,2c0,0.5,0.2,0.8,0.5,1.2c0,0,0,0,0,0
					c-0.1-0.3-0.1-0.6,0-0.9c0,0,0,0,0,0c0.2,0.3,0.4,0.5,0.7,0.6c0.5,0.3,1,0.3,1.6,0.2c0.7-0.2,1.1-0.8,1.3-1.5
					c0.1-0.7-0.1-1.3-0.6-1.8l-0.1-0.1L22.2,68.5z"/>
				<path class="st1" d="M21.9,72.5c0.1,0.4,0.3,0.8,0.7,1.1c0.4,0.3,0.7,0.4,1.2,0.4c0,0,0,0.1-0.1,0.1l-0.6,0.4l-0.1,0.1l0,0
					c0.1,0,0.1,0,0.2,0c0.5,0,1-0.2,1.4-0.5c0.3-0.2,0.5-0.6,0.7-0.9c0.2-0.3,0.3-0.7,0.3-1.1c0-0.7-0.3-1.2-0.8-1.6
					c-0.4-0.3-0.9-0.4-1.4-0.3c-0.1,0-0.1,0-0.1,0.1c0,0.5-0.1,1-0.4,1.4c-0.2,0.4-0.5,0.6-0.9,0.8C22.1,72.4,22,72.4,21.9,72.5z"/>
			</g>
			<g>
				<path class="st0" d="M15.2,62.6L15,62.5c-0.6-0.4-1.5-0.5-2.2,0c-0.6,0.4-1.1,1-1.3,1.7c-0.1,0.4-0.1,0.9,0.2,1.3c0,0,0,0,0,0
					c0-0.3,0.1-0.6,0.3-0.9c0,0,0,0,0,0c0.1,0.3,0.3,0.6,0.5,0.8c0.4,0.4,0.9,0.6,1.5,0.6c0.7,0,1.3-0.5,1.6-1.1
					c0.3-0.7,0.3-1.3-0.1-1.9l-0.1-0.1L15.2,62.6z"/>
				<path class="st1" d="M13.9,66.4c0,0.4,0.1,0.8,0.4,1.2c0.3,0.3,0.6,0.6,1,0.8c0,0-0.1,0.1-0.1,0.1l-0.6,0.2l-0.1,0l0,0
					c0.1,0,0.1,0.1,0.2,0.1c0.5,0.2,1,0.1,1.4-0.1c0.4-0.1,0.7-0.4,0.9-0.7c0.3-0.3,0.5-0.6,0.6-1c0.2-0.7,0.1-1.3-0.3-1.8
					c-0.3-0.4-0.8-0.6-1.3-0.7c-0.1,0-0.1,0-0.1,0.1c-0.1,0.5-0.3,0.9-0.7,1.2c-0.3,0.3-0.7,0.5-1.1,0.5
					C14,66.3,13.9,66.3,13.9,66.4z"/>
			</g>
			<g>
				<path class="st0" d="M10,55.1l-0.1-0.2c-0.5-0.6-1.3-0.9-2.1-0.6c-0.7,0.2-1.3,0.6-1.7,1.3c-0.2,0.4-0.3,0.8-0.2,1.3
					c0,0,0,0,0,0c0.1-0.3,0.3-0.6,0.5-0.8c0,0,0,0,0,0c0,0.3,0.1,0.6,0.3,0.9c0.3,0.5,0.7,0.9,1.2,1c0.8,0.1,1.4-0.1,1.9-0.7
					c0.5-0.5,0.6-1.2,0.4-1.9l0-0.2L10,55.1z"/>
				<path class="st1" d="M7.8,58.3c-0.1,0.4-0.1,0.8,0.1,1.2c0.2,0.4,0.4,0.8,0.8,1c0,0-0.1,0-0.1,0l-0.7,0l-0.1,0l0,0
					c0.1,0,0.1,0.1,0.2,0.1c0.4,0.3,0.9,0.4,1.4,0.3c0.4-0.1,0.8-0.2,1.1-0.4c0.3-0.2,0.6-0.4,0.8-0.8c0.3-0.6,0.4-1.2,0.2-1.8
					c-0.2-0.5-0.5-0.8-1-1c-0.1,0-0.1,0-0.1,0c-0.2,0.4-0.6,0.8-1,1c-0.4,0.2-0.8,0.3-1.2,0.2C7.9,58.3,7.9,58.3,7.8,58.3z"/>
			</g>
			<g>
				<path class="st0" d="M7.1,46.4L7,46.2C6.8,45.5,6,45,5.2,45c-0.8,0-1.5,0.2-2,0.8c-0.3,0.3-0.5,0.7-0.6,1.2c0,0,0,0,0,0
					c0.2-0.3,0.4-0.5,0.7-0.6c0,0,0,0,0,0c-0.1,0.3-0.1,0.6,0,1c0.1,0.6,0.5,1,1,1.2c0.7,0.4,1.4,0.3,2-0.1c0.6-0.4,0.9-1,0.9-1.7
					l0-0.2L7.1,46.4z"/>
				<path class="st1" d="M4.1,48.9c-0.2,0.4-0.3,0.8-0.3,1.2c0,0.4,0.1,0.9,0.5,1.2c0,0-0.1,0-0.1,0l-0.6-0.2l-0.1,0l0,0
					c0,0.1,0.1,0.1,0.1,0.2c0.3,0.4,0.8,0.6,1.3,0.7C5.2,52,5.6,52,6,51.9c0.4-0.1,0.7-0.2,1-0.5c0.5-0.5,0.7-1,0.6-1.7
					c0-0.5-0.3-0.9-0.7-1.3c0,0-0.1,0-0.1,0c-0.3,0.3-0.8,0.6-1.2,0.7c-0.4,0.1-0.8,0-1.2-0.1C4.3,48.9,4.2,48.9,4.1,48.9z"/>
			</g>
			<g>
				<path class="st0" d="M6.7,37.2l0-0.2c-0.1-0.7-0.6-1.4-1.4-1.6c-0.7-0.2-1.5-0.2-2.2,0.3c-0.4,0.2-0.7,0.5-0.9,1c0,0,0,0,0,0
					c0.2-0.2,0.5-0.3,0.8-0.4c0,0,0,0,0,0c-0.2,0.3-0.2,0.6-0.2,0.9c0,0.6,0.2,1.1,0.6,1.5c0.6,0.5,1.2,0.7,1.9,0.4
					c0.7-0.2,1.1-0.7,1.3-1.4l0-0.2L6.7,37.2z"/>
				<path class="st1" d="M3.1,38.8c-0.3,0.3-0.6,0.7-0.7,1.1c-0.1,0.4,0,0.9,0.2,1.3c0,0-0.1,0-0.1,0l-0.6-0.3l-0.1,0l0,0
					c0,0.1,0,0.1,0.1,0.2c0.2,0.5,0.6,0.8,1.1,1c0.4,0.2,0.7,0.2,1.1,0.2c0.4,0,0.8,0,1.1-0.2c0.6-0.3,1-0.8,1-1.5
					c0-0.5,0-1-0.3-1.4c0,0-0.1-0.1-0.1,0c-0.4,0.2-0.9,0.4-1.4,0.3c-0.4,0-0.8-0.2-1.1-0.5C3.2,38.9,3.2,38.9,3.1,38.8z"/>
			</g>
			<g>
				<path class="st0" d="M8.7,28.3l0-0.2c0.1-0.8-0.3-1.6-1-2c-0.7-0.4-1.4-0.6-2.2-0.3c-0.4,0.1-0.8,0.3-1.1,0.7c0,0,0,0,0,0
					c0.3-0.1,0.6-0.2,0.9-0.2c0,0,0,0,0,0C5.2,26.6,5,26.9,5,27.2c-0.2,0.6-0.1,1.1,0.1,1.6c0.4,0.6,1,1,1.7,0.9
					c0.7,0,1.3-0.4,1.7-0.9l0.1-0.1L8.7,28.3z"/>
				<path class="st1" d="M4.8,28.9c-0.4,0.2-0.7,0.5-0.9,0.9c-0.2,0.4-0.3,0.8-0.2,1.3c0,0-0.1,0-0.1,0l-0.5-0.5l-0.1-0.1l0,0
					c0,0.1,0,0.1,0,0.2c0.1,0.5,0.4,0.9,0.7,1.3c0.3,0.3,0.6,0.4,1,0.5c0.4,0.1,0.7,0.2,1.1,0.1c0.7-0.1,1.2-0.5,1.4-1.1
					c0.2-0.5,0.2-1,0-1.5c0-0.1,0-0.1-0.1-0.1C6.8,30,6.4,30,5.9,29.8c-0.4-0.2-0.8-0.4-1-0.8C4.9,29,4.8,28.9,4.8,28.9z"/>
			</g>
			<g>
				<path class="st0" d="M13.1,20.3l0.1-0.2c0.3-0.7,0.2-1.6-0.4-2.2c-0.5-0.5-1.2-0.9-2-0.9c-0.4,0-0.9,0.1-1.2,0.4c0,0,0,0,0,0
					c0.3,0,0.6,0,0.9,0.1c0,0,0,0,0,0c-0.3,0.1-0.5,0.4-0.7,0.7c-0.3,0.5-0.5,1-0.3,1.5c0.2,0.7,0.7,1.2,1.4,1.4
					c0.4,0.1,0.7,0.1,1,0c0.3-0.1,0.6-0.2,0.9-0.5l0.1-0.1L13.1,20.3z"/>
				<path class="st1" d="M9.2,19.7c-0.4,0.1-0.8,0.3-1.1,0.6c-0.3,0.3-0.5,0.7-0.5,1.2c0,0-0.1,0-0.1-0.1l-0.3-0.6l0-0.1l0,0
					c0,0.1,0,0.1,0,0.2c-0.1,0.5,0.1,1,0.3,1.4c0.2,0.3,0.5,0.6,0.9,0.8c0.3,0.2,0.7,0.4,1.1,0.4c0.7,0,1.3-0.2,1.7-0.7
					c0.3-0.4,0.5-0.9,0.4-1.4c0-0.1,0-0.1-0.1-0.1c-0.5,0-0.9-0.2-1.3-0.4c-0.3-0.3-0.6-0.6-0.8-1C9.2,19.9,9.2,19.8,9.2,19.7z"/>
			</g>
			<g>
				<path class="st0" d="M19.4,13.7l0.2-0.2c0.5-0.6,0.6-1.5,0.2-2.2c-0.4-0.7-0.9-1.2-1.7-1.4c-0.4-0.1-0.9-0.1-1.3,0.1
					c0,0,0,0,0,0c0.3,0.1,0.6,0.2,0.9,0.3c0,0,0,0,0,0c-0.3,0-0.6,0.2-0.8,0.4c-0.5,0.4-0.7,0.9-0.7,1.4c0,0.8,0.4,1.3,1,1.7
					c0.6,0.4,1.2,0.3,1.9,0l0.1-0.1L19.4,13.7z"/>
				<path class="st1" d="M15.8,12.2c-0.4,0-0.8,0.1-1.2,0.3c-0.4,0.2-0.7,0.5-0.9,1c0,0-0.1-0.1-0.1-0.1l-0.1-0.6l0-0.1l0,0
					c0,0.1-0.1,0.1-0.1,0.2c-0.2,0.5-0.2,1,0,1.5c0.1,0.4,0.3,0.7,0.6,1c0.3,0.3,0.5,0.5,0.9,0.7c0.6,0.2,1.2,0.1,1.8-0.2
					c0.4-0.3,0.7-0.7,0.8-1.2c0-0.1,0-0.1-0.1-0.1c-0.5-0.1-0.9-0.4-1.2-0.8c-0.3-0.3-0.4-0.7-0.4-1.2
					C15.8,12.3,15.8,12.2,15.8,12.2z"/>
			</g>
			<g>
				<path class="st0" d="M27.3,9.1l0.2-0.1c0.6-0.4,1-1.2,0.8-2c-0.2-0.7-0.5-1.4-1.2-1.8c-0.4-0.2-0.8-0.4-1.3-0.3c0,0,0,0,0,0
					c0.3,0.1,0.5,0.3,0.8,0.6c0,0,0,0,0,0c-0.3,0-0.6,0-0.9,0.2c-0.5,0.3-0.9,0.7-1,1.2c-0.2,0.7,0,1.4,0.5,1.9
					c0.5,0.5,1.1,0.7,1.8,0.5l0.2,0C27.1,9.1,27.2,9.1,27.3,9.1z"/>
				<path class="st1" d="M24.3,6.6c-0.4-0.2-0.8-0.2-1.3-0.1c-0.4,0.1-0.8,0.3-1.1,0.7c0,0,0-0.1,0-0.1l0-0.7l0-0.1l0,0
					c0,0-0.1,0.1-0.1,0.2C21.5,7,21.4,7.5,21.4,8c0,0.4,0.1,0.8,0.3,1.1c0.2,0.3,0.4,0.7,0.7,0.9c0.6,0.4,1.1,0.5,1.8,0.3
					c0.5-0.1,0.9-0.5,1.1-0.9c0-0.1,0-0.1,0-0.1c-0.4-0.3-0.7-0.6-0.9-1.1c-0.2-0.4-0.2-0.8-0.1-1.2C24.2,6.8,24.3,6.7,24.3,6.6z"/>
			</g>
			<g>
				<path class="st0" d="M36.2,6.8l0.2-0.1c0.7-0.3,1.3-0.9,1.3-1.7c0-0.8-0.1-1.5-0.7-2.1c-0.3-0.3-0.7-0.6-1.1-0.6c0,0,0,0,0,0
					c0.2,0.2,0.4,0.4,0.6,0.7c0,0,0,0,0,0c-0.3-0.1-0.6-0.1-0.9,0c-0.6,0.1-1,0.4-1.3,0.9c-0.4,0.6-0.4,1.3,0,2c0.4,0.6,0.9,1,1.6,1
					l0.2,0L36.2,6.8z"/>
				<path class="st1" d="M33.9,3.6c-0.3-0.3-0.7-0.4-1.2-0.4c-0.4,0-0.9,0.1-1.2,0.4c0,0,0-0.1,0-0.1l0.2-0.6l0-0.1l0,0
					c-0.1,0-0.1,0.1-0.2,0.1c-0.4,0.3-0.7,0.8-0.8,1.2c-0.1,0.4-0.1,0.8,0,1.2c0.1,0.4,0.2,0.7,0.4,1c0.4,0.5,1,0.8,1.6,0.7
					c0.5-0.1,0.9-0.2,1.3-0.6c0,0,0-0.1,0-0.1c-0.3-0.4-0.5-0.8-0.6-1.3c0-0.4,0-0.8,0.2-1.2C33.8,3.7,33.9,3.7,33.9,3.6z"/>
			</g>
			<g>
				<path class="st0" d="M45.3,7l0.2,0c0.8,0,1.5-0.6,1.7-1.4c0.2-0.7,0.3-1.5-0.1-2.2C47,3,46.7,2.7,46.3,2.5c0,0,0,0,0,0
					c0.2,0.3,0.3,0.5,0.4,0.9c0,0,0,0,0,0c-0.3-0.2-0.6-0.3-0.9-0.3c-0.6-0.1-1.1,0.1-1.5,0.5c-0.6,0.5-0.7,1.2-0.5,1.9
					c0.2,0.7,0.6,1.2,1.3,1.4L45,6.9L45.3,7z"/>
				<path class="st1" d="M44,3.2c-0.3-0.3-0.6-0.6-1-0.7c-0.4-0.1-0.9-0.1-1.3,0.1c0,0,0-0.1,0-0.1L42.1,2l0-0.1l0,0
					c-0.1,0-0.1,0-0.2,0.1c-0.5,0.2-0.8,0.5-1.1,1c-0.2,0.3-0.3,0.7-0.3,1.1c0,0.4,0,0.8,0.1,1.1c0.3,0.6,0.7,1,1.4,1.2
					c0.5,0.1,1,0,1.4-0.3c0.1,0,0.1-0.1,0-0.1c-0.2-0.4-0.3-0.9-0.2-1.4c0.1-0.4,0.2-0.8,0.5-1.1C43.9,3.4,44,3.3,44,3.2z"/>
			</g>
			<g>
				<path class="st0" d="M54.1,9.6l0.2,0.1c0.7,0.2,1.6-0.2,2-0.8c0.4-0.6,0.6-1.3,0.5-2.1c-0.1-0.4-0.3-0.8-0.6-1.1c0,0,0,0,0,0
					c0.1,0.3,0.1,0.6,0.1,0.9c0,0,0,0,0,0c-0.2-0.3-0.5-0.4-0.8-0.5c-0.3-0.1-0.5-0.2-0.8-0.2c-0.3,0-0.5,0.1-0.8,0.2
					c-0.7,0.4-1,0.9-1,1.7c0,0.7,0.3,1.2,0.8,1.7l0.1,0.1L54.1,9.6z"/>
				<path class="st1" d="M53.8,5.7C53.7,5.3,53.4,5,53,4.7c-0.4-0.2-0.8-0.4-1.3-0.3c0,0,0-0.1,0.1-0.1l0.5-0.4l0.1-0.1l0,0
					c-0.1,0-0.1,0-0.2,0c-0.5,0-0.9,0.3-1.3,0.6c-0.3,0.3-0.5,0.6-0.6,1c-0.1,0.4-0.2,0.7-0.2,1.1c0.1,0.7,0.4,1.2,1,1.5
					c0.5,0.3,0.9,0.3,1.4,0.1c0.1,0,0.1,0,0.1-0.1c-0.1-0.5,0-0.9,0.2-1.4C53,6.3,53.2,6,53.6,5.8C53.7,5.8,53.7,5.7,53.8,5.7z"/>
			</g>
			<g>
				<path class="st0" d="M61.9,14.5l0.2,0.1c0.6,0.4,1.5,0.3,2.2-0.2c0.6-0.5,1-1.1,1-1.9c0-0.4,0-0.9-0.3-1.3c0,0,0,0,0,0
					c0,0.3,0,0.6-0.2,0.9c0,0,0,0,0,0c-0.1-0.3-0.3-0.5-0.6-0.7c-0.5-0.3-1-0.5-1.6-0.3c-0.8,0.2-1.2,0.6-1.5,1.3
					c-0.2,0.7-0.1,1.3,0.4,1.8c0,0,0.1,0.1,0.1,0.1L61.9,14.5z"/>
				<path class="st1" d="M62.6,10.6c0-0.4-0.2-0.8-0.5-1.1c-0.3-0.3-0.6-0.6-1.1-0.6c0,0,0-0.1,0.1-0.1c0.2-0.1,0.4-0.2,0.6-0.3
					l0.1,0l0,0c-0.1,0-0.1,0-0.2,0c-0.5-0.1-1,0.1-1.5,0.3c-0.3,0.2-0.6,0.5-0.9,0.8c-0.2,0.3-0.4,0.6-0.5,1
					c-0.1,0.7,0.1,1.2,0.6,1.7c0.4,0.4,0.8,0.5,1.3,0.5c0.1,0,0.1,0,0.1-0.1c0-0.5,0.2-0.9,0.5-1.3c0.3-0.3,0.6-0.6,1-0.7
					C62.4,10.7,62.5,10.7,62.6,10.6z"/>
			</g>
			<g>
				<path class="st0" d="M68,21.3c0.1,0.1,0.1,0.1,0.2,0.2c0.5,0.5,1.4,0.7,2.1,0.4c0.7-0.3,1.2-0.8,1.5-1.6
					c0.2-0.4,0.2-0.9,0.1-1.3c0,0,0,0,0,0c-0.1,0.3-0.2,0.6-0.4,0.9c0,0,0,0,0,0c0-0.3-0.2-0.6-0.4-0.9c-0.4-0.4-0.8-0.7-1.4-0.8
					c-0.8-0.1-1.4,0.3-1.8,0.9c-0.4,0.6-0.4,1.3-0.1,1.9l0.1,0.1L68,21.3z"/>
				<path class="st1" d="M69.7,17.8c0.1-0.4,0-0.8-0.2-1.3c-0.2-0.4-0.5-0.7-0.9-0.9c0,0,0.1,0,0.1-0.1l0.7-0.1l0.1,0l0,0
					c-0.1,0-0.1-0.1-0.2-0.1c-0.5-0.2-1-0.2-1.5-0.1c-0.4,0.1-0.7,0.3-1,0.5c-0.3,0.2-0.6,0.5-0.7,0.9c-0.3,0.6-0.2,1.2,0.1,1.8
					c0.3,0.4,0.6,0.7,1.1,0.9c0.1,0,0.1,0,0.1-0.1c0.2-0.5,0.5-0.8,0.9-1.1c0.4-0.2,0.8-0.4,1.2-0.4C69.6,17.8,69.6,17.8,69.7,17.8z
					"/>
			</g>
			<g>
				<path class="st0" d="M72,29.5l0.1,0.2c0.4,0.6,1.1,1.1,2,0.9c0.8-0.1,1.4-0.4,1.9-1.1c0.3-0.4,0.4-0.8,0.4-1.2c0,0,0,0,0,0
					c-0.2,0.3-0.3,0.5-0.6,0.7c0,0,0,0,0,0c0-0.3,0-0.6-0.2-0.9c-0.2-0.5-0.6-0.9-1.1-1.1c-0.7-0.3-1.4-0.1-1.9,0.4
					c-0.6,0.5-0.8,1.1-0.7,1.8l0,0.2L72,29.5z"/>
				<path class="st1" d="M74.7,26.6c0.2-0.4,0.3-0.8,0.2-1.3c-0.1-0.4-0.3-0.8-0.7-1.1c0,0,0.1,0,0.1,0l0.7,0.1l0.1,0l0,0
					c0,0-0.1-0.1-0.1-0.1c-0.4-0.3-0.9-0.5-1.4-0.5c-0.4,0-0.8,0.1-1.1,0.2c-0.4,0.1-0.7,0.3-0.9,0.6c-0.4,0.5-0.6,1.1-0.4,1.8
					c0.1,0.2,0.2,0.5,0.3,0.6c0.1,0.2,0.3,0.4,0.5,0.5c0.1,0,0.1,0,0.1,0c0.3-0.4,0.7-0.7,1.1-0.8c0.4-0.1,0.8-0.1,1.2,0
					C74.5,26.6,74.6,26.6,74.7,26.6z"/>
			</g>
			<g>
				<path class="st0" d="M73.7,38.5l0.1,0.2c0.2,0.7,0.9,1.3,1.7,1.4c0.8,0.1,1.5,0,2.1-0.5c0.3-0.3,0.6-0.6,0.7-1.1c0,0,0,0,0,0
					c-0.2,0.2-0.5,0.4-0.8,0.5c0,0,0,0,0,0c0.1-0.3,0.1-0.6,0.1-0.9c-0.1-0.6-0.3-1.1-0.7-1.4c-0.6-0.4-1.3-0.5-2-0.2
					c-0.7,0.3-1.1,0.8-1.2,1.5l0,0.2L73.7,38.5z"/>
				<path class="st1" d="M77.1,36.4c0.3-0.3,0.4-0.7,0.4-1.2c0-0.4-0.1-0.9-0.3-1.2c0,0,0.1,0,0.1,0l0.6,0.3l0.1,0l0,0
					c0-0.1-0.1-0.1-0.1-0.2c-0.3-0.4-0.7-0.7-1.2-0.9c-0.4-0.1-0.8-0.1-1.2-0.1c-0.4,0-0.7,0.1-1.1,0.4c-0.6,0.4-0.9,0.9-0.9,1.6
					c0,0.5,0.2,1,0.6,1.3c0,0,0.1,0,0.1,0c0.4-0.3,0.8-0.5,1.3-0.5c0.4,0,0.8,0.1,1.2,0.3C76.9,36.3,77,36.4,77.1,36.4z"/>
			</g>
		</g>
	</g>
</g>
</svg>
