<?xml version="1.0" encoding="utf-8"?>
<!-- Generator: Adobe Illustrator 23.0.6, SVG Export Plug-In . SVG Version: 6.00 Build 0)  -->
<svg version="1.1" id="Layer_1" xmlns="http://www.w3.org/2000/svg" xmlns:xlink="http://www.w3.org/1999/xlink" x="0px" y="0px"
	 viewBox="0 0 80.7 80.7" style="enable-background:new 0 0 80.7 80.7;" xml:space="preserve">
<style type="text/css">
	.st0{fill:#73509C;}
</style>
<g>
	<g>
		<g>
			<g>
				<path class="st0" d="M75.2,39l0-0.1c0.1-0.4,0.4-0.7,0.7-0.7c0.4-0.1,0.7,0,1,0.2c0.2,0.1,0.3,0.3,0.4,0.5c0,0,0,0,0,0
					c-0.1-0.1-0.2-0.2-0.4-0.2c0,0,0,0,0,0c0.1,0.1,0.1,0.3,0.1,0.4c0,0.3-0.1,0.5-0.3,0.7c-0.3,0.2-0.6,0.3-0.9,0.2
					c-0.3-0.1-0.5-0.4-0.6-0.7l0-0.1L75.2,39z"/>
			</g>
			<g>
				<path class="st0" d="M75.1,36.7l0-0.1c0-0.4,0.3-0.7,0.7-0.8c0.4-0.1,0.7-0.1,1,0.1c0.2,0.1,0.3,0.2,0.4,0.5c0,0,0,0,0,0
					c-0.1-0.1-0.3-0.2-0.4-0.2c0,0,0,0,0,0c0.1,0.1,0.1,0.3,0.1,0.4c0,0.3-0.1,0.5-0.3,0.7c-0.3,0.3-0.6,0.3-0.9,0.2
					c-0.3-0.1-0.5-0.3-0.6-0.6l0-0.1C75.1,36.8,75.1,36.8,75.1,36.7z"/>
			</g>
			<g>
				<path class="st0" d="M74.7,34.6l0-0.1c0-0.4,0.3-0.7,0.7-0.8c0.4-0.1,0.7-0.1,1,0.1c0.2,0.1,0.3,0.2,0.4,0.4c0,0,0,0,0,0
					c-0.1-0.1-0.3-0.1-0.4-0.2c0,0,0,0,0,0c0.1,0.1,0.1,0.3,0.1,0.4c0,0.3,0,0.5-0.2,0.7c-0.2,0.3-0.5,0.4-0.9,0.3
					c-0.3-0.1-0.6-0.3-0.7-0.6l0-0.1L74.7,34.6z"/>
			</g>
			<g>
				<path class="st0" d="M74.3,32.4l0-0.1c0-0.4,0.2-0.7,0.6-0.9c0.3-0.1,0.7-0.2,1,0c0.2,0.1,0.4,0.2,0.5,0.4c0,0,0,0,0,0
					c-0.1-0.1-0.3-0.1-0.4-0.1c0,0,0,0,0,0c0.1,0.1,0.2,0.3,0.2,0.4c0.1,0.3,0,0.5-0.1,0.7c-0.2,0.3-0.5,0.4-0.9,0.4
					c-0.4-0.1-0.6-0.2-0.8-0.6l0-0.1L74.3,32.4z"/>
			</g>
			<g>
				<path class="st0" d="M73.8,30.2l0-0.1c0-0.4,0.2-0.7,0.5-0.9c0.3-0.2,0.7-0.2,1.1-0.1c0.2,0.1,0.4,0.2,0.5,0.4c0,0,0,0,0,0
					c-0.1-0.1-0.3-0.1-0.4-0.1c0,0,0,0,0,0c0.1,0.1,0.2,0.3,0.2,0.4c0.1,0.3,0,0.5-0.1,0.7c-0.2,0.3-0.5,0.4-0.9,0.4
					c-0.3,0-0.6-0.2-0.7-0.5l0-0.1L73.8,30.2z"/>
			</g>
			<g>
				<path class="st0" d="M73,28.1l0-0.1c-0.1-0.4,0.1-0.8,0.5-0.9c0.3-0.2,0.7-0.2,1-0.1c0.2,0.1,0.4,0.2,0.5,0.3c0,0,0,0,0,0
					c-0.1-0.1-0.3-0.1-0.4-0.1c0,0,0,0,0,0c0.1,0.1,0.2,0.2,0.2,0.4c0.1,0.3,0.1,0.5-0.1,0.7c-0.2,0.3-0.5,0.5-0.8,0.5
					c-0.4,0-0.6-0.2-0.8-0.5l0-0.1L73,28.1z"/>
			</g>
			<g>
				<path class="st0" d="M72.2,26.1l0-0.1c-0.1-0.4,0.1-0.8,0.4-1c0.3-0.2,0.7-0.3,1-0.2c0.2,0,0.4,0.1,0.5,0.3c0,0,0,0,0,0
					c-0.1,0-0.3-0.1-0.4,0c0,0,0,0,0,0c0.1,0.1,0.2,0.2,0.3,0.4c0.1,0.3,0.1,0.5,0,0.7c-0.2,0.3-0.4,0.5-0.8,0.5
					c-0.3,0-0.6-0.1-0.8-0.4l0-0.1L72.2,26.1z"/>
			</g>
			<g>
				<path class="st0" d="M71.2,24.1l0-0.1c-0.1-0.4,0-0.8,0.3-1c0.3-0.2,0.6-0.3,1-0.3c0.2,0,0.4,0.1,0.5,0.3c0,0,0,0,0,0
					c-0.1,0-0.3-0.1-0.4,0c0,0,0,0,0,0c0.1,0.1,0.2,0.2,0.3,0.4c0.1,0.3,0.1,0.5,0,0.8c-0.1,0.3-0.4,0.5-0.8,0.6
					c-0.3,0-0.6-0.1-0.8-0.4l0-0.1L71.2,24.1z"/>
			</g>
			<g>
				<path class="st0" d="M70.1,22.2l0-0.1c-0.1-0.4,0-0.8,0.3-1c0.3-0.2,0.6-0.4,1-0.3c0.2,0,0.4,0.1,0.6,0.2c0,0,0,0,0,0
					c-0.1,0-0.3,0-0.4,0c0,0,0,0,0,0c0.1,0.1,0.2,0.2,0.3,0.3c0.1,0.2,0.2,0.5,0.1,0.7c-0.1,0.3-0.4,0.5-0.7,0.6
					c-0.3,0.1-0.6,0-0.9-0.3l-0.1-0.1L70.1,22.2z"/>
			</g>
			<g>
				<path class="st0" d="M68.9,20.3l-0.1-0.1c-0.2-0.3-0.1-0.8,0.2-1c0.3-0.2,0.6-0.4,1-0.4c0.2,0,0.4,0.1,0.6,0.2c0,0,0,0,0,0
					c-0.2,0-0.3,0-0.4,0c0,0,0,0,0,0c0.1,0.1,0.2,0.2,0.3,0.3c0.1,0.2,0.2,0.5,0.1,0.7c-0.1,0.4-0.3,0.6-0.7,0.7
					c-0.3,0.1-0.6,0-0.9-0.2L69,20.5L68.9,20.3z"/>
			</g>
			<g>
				<path class="st0" d="M67.6,18.6l-0.1-0.1c-0.1-0.3-0.1-0.8,0.2-1c0.3-0.3,0.6-0.4,0.9-0.5c0.2,0,0.4,0,0.6,0.2c0,0,0,0,0,0
					c-0.1,0-0.3,0-0.4,0.1c0,0,0,0,0,0c0.1,0.1,0.2,0.2,0.3,0.3c0.1,0.2,0.2,0.5,0.1,0.7c-0.1,0.4-0.3,0.6-0.6,0.7
					c-0.3,0.1-0.6,0-0.9-0.2l-0.1-0.1L67.6,18.6z"/>
			</g>
			<g>
				<path class="st0" d="M66.1,16.9l-0.1-0.1c-0.2-0.3-0.2-0.8,0.1-1.1c0.2-0.3,0.5-0.5,0.9-0.5c0.2,0,0.4,0,0.6,0.1c0,0,0,0,0,0
					c-0.2,0-0.3,0-0.4,0.1c0,0,0,0,0,0c0.1,0,0.3,0.2,0.3,0.3c0.2,0.2,0.2,0.4,0.2,0.7c-0.1,0.4-0.3,0.6-0.6,0.7
					c-0.3,0.1-0.6,0.1-0.9-0.1l-0.1,0L66.1,16.9z"/>
			</g>
			<g>
				<path class="st0" d="M64.6,15.3L64.6,15.3c-0.3-0.4-0.3-0.8-0.1-1.1c0.2-0.3,0.5-0.5,0.9-0.6c0.2,0,0.4,0,0.6,0.1c0,0,0,0,0,0
					c-0.2,0-0.3,0-0.4,0.1c0,0,0,0,0,0c0.2,0,0.3,0.1,0.4,0.2c0.2,0.2,0.3,0.4,0.3,0.7c0,0.4-0.2,0.6-0.6,0.8
					c-0.3,0.1-0.6,0.1-0.9-0.1l-0.1,0L64.6,15.3z"/>
			</g>
			<g>
				<path class="st0" d="M63,13.8L63,13.8c-0.3-0.4-0.3-0.8-0.1-1.2c0.2-0.3,0.5-0.5,0.8-0.6c0.2,0,0.4,0,0.6,0.1c0,0,0,0,0,0
					c-0.1,0-0.3,0.1-0.4,0.1c0,0,0,0,0,0c0.1,0,0.3,0.1,0.4,0.2c0.2,0.2,0.3,0.4,0.3,0.7c0,0.4-0.2,0.6-0.5,0.8
					c-0.3,0.2-0.6,0.2-0.9,0l-0.1,0L63,13.8z"/>
			</g>
			<g>
				<path class="st0" d="M61.2,12.4L61.2,12.4c-0.3-0.4-0.4-0.8-0.2-1.1c0.2-0.3,0.4-0.6,0.8-0.7c0.2-0.1,0.4-0.1,0.6,0c0,0,0,0,0,0
					c-0.1,0-0.3,0.1-0.4,0.2c0,0,0,0,0,0c0.2,0,0.3,0.1,0.4,0.2c0.2,0.2,0.3,0.4,0.3,0.7c0,0.4-0.1,0.6-0.4,0.8
					c-0.3,0.2-0.6,0.2-0.9,0.1l-0.1,0L61.2,12.4z"/>
			</g>
			<g>
				<path class="st0" d="M59.4,11.1L59.4,11.1c-0.4-0.3-0.4-0.8-0.3-1.1c0.2-0.3,0.4-0.6,0.8-0.7c0.2-0.1,0.4-0.1,0.6,0c0,0,0,0,0,0
					c-0.1,0-0.3,0.1-0.4,0.2c0,0,0,0,0,0c0.2,0,0.3,0.1,0.4,0.2c0.2,0.1,0.4,0.4,0.4,0.6c0,0.4-0.1,0.7-0.4,0.9
					c-0.3,0.2-0.6,0.2-0.9,0.1l-0.1,0L59.4,11.1z"/>
			</g>
			<g>
				<path class="st0" d="M57.5,10L57.5,10c-0.4-0.3-0.5-0.8-0.3-1.1c0.1-0.3,0.4-0.6,0.7-0.8C58.1,8,58.3,8,58.5,8c0,0,0,0,0,0
					c-0.1,0-0.3,0.1-0.4,0.2c0,0,0,0,0,0c0.2,0,0.3,0.1,0.4,0.2c0.2,0.2,0.4,0.4,0.4,0.6c0.1,0.4-0.1,0.7-0.3,0.9
					c-0.3,0.2-0.6,0.3-0.9,0.1l-0.1,0L57.5,10z"/>
			</g>
			<g>
				<path class="st0" d="M55.6,9L55.6,9c-0.4-0.3-0.5-0.7-0.4-1.1c0.1-0.4,0.3-0.6,0.6-0.8C56,7,56.2,6.9,56.4,7c0,0,0,0,0,0
					c-0.1,0.1-0.3,0.1-0.4,0.2c0,0,0,0,0,0c0.2,0,0.3,0,0.4,0.1c0.2,0.1,0.4,0.3,0.5,0.6c0.1,0.3,0,0.7-0.3,0.9
					c-0.3,0.2-0.6,0.3-0.9,0.2l-0.1,0L55.6,9z"/>
			</g>
			<g>
				<path class="st0" d="M53.6,8L53.6,8c-0.4-0.3-0.6-0.7-0.5-1c0.1-0.4,0.3-0.7,0.6-0.9C53.9,6,54.1,6,54.3,6c0,0,0,0,0,0
					c-0.1,0.1-0.3,0.2-0.4,0.3c0,0,0,0,0,0c0.2,0,0.3,0,0.4,0.1c0.3,0.1,0.4,0.3,0.5,0.6c0.1,0.4,0,0.7-0.2,0.9
					c-0.2,0.3-0.5,0.3-0.9,0.3l-0.1,0L53.6,8z"/>
			</g>
			<g>
				<path class="st0" d="M51.5,7.3l-0.1-0.1c-0.3-0.2-0.5-0.6-0.4-1c0.1-0.4,0.2-0.7,0.5-0.9c0.2-0.1,0.4-0.2,0.6-0.2c0,0,0,0,0,0
					c-0.1,0.1-0.2,0.2-0.3,0.3c0,0,0,0,0,0c0.2,0,0.3,0,0.4,0.1c0.2,0.1,0.4,0.3,0.5,0.5c0.1,0.3,0.1,0.7-0.2,0.9
					c-0.2,0.3-0.5,0.4-0.9,0.3l-0.1,0L51.5,7.3z"/>
			</g>
			<g>
				<path class="st0" d="M49.4,6.6l-0.1-0.1c-0.3-0.2-0.5-0.5-0.5-0.9c0-0.4,0.2-0.7,0.5-0.9c0.2-0.1,0.3-0.2,0.6-0.2c0,0,0,0,0,0
					c-0.1,0.1-0.2,0.2-0.3,0.3c0,0,0,0,0,0c0.2,0,0.3,0,0.4,0c0.3,0.1,0.5,0.2,0.6,0.5c0.2,0.3,0.1,0.6-0.1,0.9
					c-0.2,0.3-0.5,0.4-0.8,0.4l-0.1,0L49.4,6.6z"/>
			</g>
			<g>
				<path class="st0" d="M47.2,6.1l-0.1,0c-0.3-0.1-0.6-0.5-0.6-0.9c0-0.4,0.1-0.7,0.4-1C47.1,4.1,47.3,4,47.5,4c0,0,0,0,0,0
					c-0.1,0.1-0.2,0.2-0.3,0.3c0,0,0,0,0,0c0.1-0.1,0.3,0,0.4,0c0.3,0.1,0.5,0.2,0.6,0.5c0.2,0.3,0.2,0.7,0,1
					c-0.2,0.3-0.5,0.4-0.8,0.4l-0.1,0L47.2,6.1z"/>
			</g>
			<g>
				<path class="st0" d="M45,5.8l-0.1,0c-0.3-0.1-0.6-0.5-0.6-0.9c0-0.4,0.1-0.7,0.4-1c0.1-0.1,0.3-0.2,0.5-0.3c0,0,0,0,0,0
					C45.1,3.7,45,3.8,44.9,4c0,0,0,0,0,0c0.1-0.1,0.3,0,0.4,0C45.7,4,45.9,4.1,46,4.4c0.2,0.3,0.2,0.6,0,0.9
					c-0.2,0.3-0.4,0.5-0.8,0.5l-0.1,0L45,5.8z"/>
			</g>
			<g>
				<path class="st0" d="M42.8,5.6l-0.1,0c-0.4-0.1-0.6-0.4-0.7-0.8c0-0.4,0.1-0.7,0.3-1c0.1-0.2,0.3-0.3,0.5-0.3c0,0,0,0,0,0
					c-0.1,0.1-0.2,0.2-0.3,0.4c0,0,0,0,0,0c0.1-0.1,0.3-0.1,0.4-0.1c0.3,0,0.5,0.1,0.6,0.4C43.9,4.3,44,4.7,43.8,5
					c-0.2,0.3-0.4,0.5-0.8,0.6l-0.1,0L42.8,5.6z"/>
			</g>
			<g>
				<path class="st0" d="M40.6,5.4l-0.1,0c-0.4-0.1-0.7-0.4-0.7-0.8c0-0.4,0-0.7,0.2-1c0.1-0.2,0.3-0.3,0.5-0.4c0,0,0,0,0,0
					c-0.1,0.1-0.2,0.2-0.2,0.4c0,0,0,0,0,0c0.1-0.1,0.3-0.1,0.4-0.1c0.3,0,0.5,0.1,0.7,0.4c0.2,0.3,0.3,0.6,0.1,0.9
					c-0.1,0.3-0.4,0.5-0.7,0.6l-0.1,0L40.6,5.4z"/>
			</g>
			<g>
				<path class="st0" d="M38.4,5.5l-0.1,0c-0.4-0.1-0.7-0.4-0.8-0.7c-0.1-0.4,0-0.7,0.2-1c0.1-0.2,0.3-0.3,0.5-0.4c0,0,0,0,0,0
					C38.1,3.5,38,3.6,38,3.8c0,0,0,0,0,0c0.1-0.1,0.3-0.1,0.4-0.1c0.3,0,0.5,0.1,0.7,0.3c0.2,0.3,0.3,0.6,0.2,0.9
					c-0.1,0.3-0.3,0.5-0.7,0.6l-0.1,0L38.4,5.5z"/>
			</g>
			<g>
				<path class="st0" d="M36.2,5.7l-0.1,0c-0.4,0-0.7-0.3-0.8-0.7c-0.1-0.4-0.1-0.7,0.1-1c0.1-0.2,0.2-0.3,0.4-0.4c0,0,0,0,0,0
					c-0.1,0.1-0.2,0.3-0.2,0.4c0,0,0,0,0,0c0.1-0.1,0.3-0.1,0.4-0.1c0.3,0,0.5,0,0.7,0.2c0.3,0.3,0.3,0.6,0.3,0.9
					c-0.1,0.3-0.3,0.5-0.6,0.7l-0.1,0L36.2,5.7z"/>
			</g>
			<g>
				<path class="st0" d="M34,6l-0.1,0c-0.4,0-0.7-0.3-0.8-0.6c-0.1-0.3-0.1-0.7,0-1c0.1-0.2,0.2-0.3,0.4-0.4c0,0,0,0,0,0
					c-0.1,0.1-0.1,0.3-0.2,0.4c0,0,0,0,0,0c0.1-0.1,0.3-0.1,0.4-0.1c0.3,0,0.5,0,0.7,0.2c0.3,0.2,0.4,0.5,0.3,0.9
					c-0.1,0.3-0.3,0.6-0.6,0.7l-0.1,0L34,6z"/>
			</g>
			<g>
				<path class="st0" d="M31.8,6.5l-0.1,0c-0.4,0-0.7-0.2-0.9-0.6c-0.1-0.3-0.2-0.7,0-1c0.1-0.2,0.2-0.4,0.4-0.5c0,0,0,0,0,0
					c-0.1,0.1-0.1,0.3-0.1,0.4c0,0,0,0,0,0c0.1-0.1,0.3-0.2,0.4-0.2c0.3-0.1,0.5,0,0.7,0.1c0.3,0.2,0.4,0.5,0.4,0.9
					c0,0.4-0.2,0.6-0.5,0.8l-0.1,0L31.8,6.5z"/>
			</g>
			<g>
				<path class="st0" d="M29.7,7.1l-0.1,0c-0.4,0.1-0.7-0.1-0.9-0.5c-0.2-0.3-0.2-0.7-0.1-1c0.1-0.2,0.2-0.4,0.4-0.5c0,0,0,0,0,0
					c-0.1,0.1-0.1,0.3-0.1,0.4c0,0,0,0,0,0c0.1-0.1,0.2-0.2,0.4-0.2c0.3-0.1,0.5,0,0.7,0.1c0.3,0.2,0.4,0.5,0.4,0.9
					c0,0.3-0.2,0.6-0.5,0.7l-0.1,0L29.7,7.1z"/>
			</g>
			<g>
				<path class="st0" d="M27.6,7.8l-0.1,0c-0.4,0.1-0.8-0.1-1-0.5c-0.2-0.3-0.3-0.7-0.2-1c0.1-0.2,0.2-0.4,0.3-0.5c0,0,0,0,0,0
					c-0.1,0.1-0.1,0.3-0.1,0.4c0,0,0,0,0,0c0.1-0.1,0.2-0.2,0.4-0.2C27.3,6,27.6,6,27.8,6.1c0.3,0.2,0.5,0.5,0.5,0.8
					c0,0.4-0.2,0.6-0.4,0.8l-0.1,0L27.6,7.8z"/>
			</g>
			<g>
				<path class="st0" d="M25.6,8.7l-0.1,0c-0.4,0.1-0.8-0.1-1-0.4c-0.2-0.3-0.3-0.6-0.2-1c0-0.2,0.1-0.4,0.3-0.5c0,0,0,0,0,0
					c0,0.1-0.1,0.3,0,0.4c0,0,0,0,0,0C24.7,7.1,24.8,7,24.9,7c0.2-0.1,0.5-0.1,0.7,0c0.3,0.2,0.5,0.4,0.5,0.8c0,0.4-0.1,0.6-0.4,0.8
					l-0.1,0L25.6,8.7z"/>
			</g>
			<g>
				<path class="st0" d="M23.6,9.7l-0.1,0c-0.3,0.1-0.8,0-1-0.3c-0.2-0.3-0.3-0.6-0.3-1c0-0.2,0.1-0.4,0.3-0.6c0,0,0,0,0,0
					c0,0.2,0,0.3,0,0.4c0,0,0,0,0,0c0.1-0.1,0.2-0.2,0.3-0.3c0.3-0.1,0.5-0.1,0.8,0c0.3,0.1,0.5,0.4,0.6,0.8c0,0.3-0.1,0.6-0.4,0.8
					l-0.1,0C23.7,9.6,23.7,9.7,23.6,9.7z"/>
			</g>
			<g>
				<path class="st0" d="M21.7,10.8l-0.1,0c-0.4,0.1-0.8,0-1-0.3c-0.2-0.3-0.4-0.6-0.3-1c0-0.2,0.1-0.4,0.2-0.6c0,0,0,0,0,0
					c0,0.1,0,0.3,0,0.4c0,0,0,0,0,0c0.1-0.1,0.2-0.2,0.3-0.3c0.2-0.1,0.5-0.2,0.7-0.1c0.3,0.1,0.6,0.4,0.6,0.7
					c0.1,0.3,0,0.6-0.3,0.9l-0.1,0.1L21.7,10.8z"/>
			</g>
			<g>
				<path class="st0" d="M19.9,12.1l-0.1,0.1c-0.3,0.2-0.8,0.1-1-0.2c-0.3-0.3-0.4-0.6-0.4-1c0-0.2,0.1-0.4,0.2-0.6c0,0,0,0,0,0
					c0,0.2,0,0.3,0,0.4c0,0,0,0,0,0c0.1-0.1,0.2-0.2,0.3-0.3c0.2-0.1,0.5-0.2,0.7-0.1c0.3,0.1,0.6,0.3,0.7,0.7
					c0.1,0.3,0,0.7-0.2,0.9L20,12L19.9,12.1z"/>
			</g>
			<g>
				<path class="st0" d="M18.1,13.4L18,13.5c-0.3,0.2-0.7,0.1-1-0.1c-0.3-0.2-0.4-0.6-0.5-0.9c0-0.2,0-0.4,0.1-0.6c0,0,0,0,0,0
					c0,0.2,0,0.3,0.1,0.4c0,0,0,0,0,0c0.1-0.1,0.2-0.3,0.3-0.3c0.2-0.1,0.5-0.2,0.7-0.1c0.4,0.1,0.6,0.3,0.7,0.6
					c0.1,0.3,0,0.6-0.2,0.9l-0.1,0.1C18.2,13.4,18.1,13.4,18.1,13.4z"/>
			</g>
			<g>
				<path class="st0" d="M16.5,14.9L16.4,15c-0.3,0.2-0.8,0.2-1.1-0.1c-0.3-0.2-0.5-0.5-0.5-0.9c0-0.2,0-0.4,0.1-0.6c0,0,0,0,0,0
					c0,0.1,0,0.3,0.1,0.4c0,0,0,0,0,0c0-0.1,0.2-0.3,0.3-0.3c0.2-0.2,0.5-0.2,0.7-0.2c0.4,0,0.6,0.2,0.7,0.6
					c0.1,0.3,0.1,0.6-0.1,0.9l0,0.1L16.5,14.9z"/>
			</g>
			<g>
				<path class="st0" d="M14.9,16.5L14.9,16.5c-0.4,0.3-0.8,0.3-1.1,0.1c-0.3-0.2-0.5-0.5-0.6-0.9c0-0.2,0-0.4,0.1-0.6c0,0,0,0,0,0
					c0,0.2,0,0.3,0.1,0.4c0,0,0,0,0,0c0-0.2,0.1-0.3,0.2-0.4c0.2-0.2,0.4-0.3,0.7-0.3c0.4,0,0.6,0.2,0.8,0.5c0.2,0.3,0.1,0.6,0,0.9
					l0,0.1L14.9,16.5z"/>
			</g>
			<g>
				<path class="st0" d="M13.4,18.1C13.4,18.1,13.4,18.2,13.4,18.1c-0.4,0.3-0.8,0.4-1.1,0.2c-0.3-0.2-0.5-0.5-0.6-0.8
					c-0.1-0.2-0.1-0.4,0-0.6c0,0,0,0,0,0c0,0.2,0.1,0.3,0.2,0.4c0,0,0,0,0,0c0-0.2,0.1-0.3,0.2-0.4c0.2-0.2,0.4-0.3,0.7-0.3
					c0.4,0,0.6,0.2,0.8,0.5c0.2,0.3,0.2,0.6,0,0.9l0,0.1L13.4,18.1z"/>
			</g>
			<g>
				<path class="st0" d="M12.1,19.9L12.1,19.9c-0.4,0.3-0.8,0.4-1.1,0.2c-0.3-0.2-0.6-0.4-0.7-0.8c-0.1-0.2-0.1-0.4,0-0.6
					c0,0,0,0,0,0c0,0.1,0.1,0.3,0.2,0.4c0,0,0,0,0,0c0-0.2,0.1-0.3,0.2-0.4c0.2-0.2,0.4-0.3,0.7-0.3c0.4,0,0.6,0.1,0.8,0.4
					c0.2,0.3,0.2,0.6,0.1,0.9l0,0.1L12.1,19.9z"/>
			</g>
			<g>
				<path class="st0" d="M10.8,21.7L10.8,21.7c-0.3,0.4-0.8,0.4-1.1,0.3c-0.3-0.2-0.6-0.4-0.7-0.7c-0.1-0.2-0.1-0.4,0-0.6
					c0,0,0,0,0,0c0,0.1,0.1,0.3,0.2,0.4c0,0,0,0,0,0c0-0.2,0.1-0.3,0.2-0.4c0.2-0.2,0.4-0.4,0.6-0.4c0.4,0,0.6,0.1,0.9,0.4
					c0.2,0.3,0.3,0.6,0.1,0.9l0,0.1L10.8,21.7z"/>
			</g>
			<g>
				<path class="st0" d="M9.7,23.6L9.7,23.6C9.4,24,9,24.1,8.6,24c-0.3-0.1-0.6-0.3-0.8-0.7c-0.1-0.2-0.1-0.4-0.1-0.6c0,0,0,0,0,0
					C7.8,22.8,7.9,22.9,8,23c0,0,0,0,0,0c0-0.2,0.1-0.3,0.1-0.4c0.2-0.2,0.4-0.4,0.6-0.4c0.4-0.1,0.7,0,0.9,0.3
					c0.2,0.3,0.3,0.6,0.2,0.9l0,0.1L9.7,23.6z"/>
			</g>
			<g>
				<path class="st0" d="M8.7,25.6L8.7,25.6C8.4,26,8,26.1,7.6,26c-0.4-0.1-0.6-0.3-0.8-0.6c-0.1-0.2-0.1-0.4-0.1-0.6c0,0,0,0,0,0
					C6.8,24.9,6.8,25,7,25.1c0,0,0,0,0,0c0-0.2,0-0.3,0.1-0.4c0.1-0.2,0.3-0.4,0.6-0.5c0.4-0.1,0.7,0,0.9,0.3
					c0.2,0.3,0.3,0.6,0.2,0.9l0,0.1L8.7,25.6z"/>
			</g>
			<g>
				<path class="st0" d="M7.8,27.6l-0.1,0.1c-0.2,0.3-0.6,0.5-1,0.4c-0.4-0.1-0.7-0.3-0.9-0.6c-0.1-0.2-0.2-0.4-0.2-0.6c0,0,0,0,0,0
					c0.1,0.1,0.2,0.3,0.3,0.4c0,0,0,0,0,0c0-0.2,0-0.3,0.1-0.4c0.1-0.2,0.3-0.4,0.5-0.5c0.3-0.1,0.7,0,0.9,0.2
					c0.3,0.2,0.4,0.5,0.3,0.9l0,0.1L7.8,27.6z"/>
			</g>
			<g>
				<path class="st0" d="M7.1,29.7L7,29.8c-0.2,0.3-0.6,0.5-0.9,0.5c-0.4-0.1-0.7-0.2-0.9-0.5C5.1,29.6,5,29.4,5,29.2c0,0,0,0,0,0
					c0.1,0.1,0.2,0.2,0.3,0.3c0,0,0,0,0,0c0-0.2,0-0.3,0.1-0.4c0.1-0.2,0.3-0.4,0.5-0.5c0.3-0.1,0.7-0.1,0.9,0.1
					c0.3,0.2,0.4,0.5,0.3,0.8l0,0.1L7.1,29.7z"/>
			</g>
			<g>
				<path class="st0" d="M6.5,31.9L6.5,32c-0.2,0.3-0.5,0.5-0.9,0.5c-0.4,0-0.7-0.2-0.9-0.5c-0.1-0.2-0.2-0.3-0.2-0.6c0,0,0,0,0,0
					c0.1,0.1,0.2,0.2,0.3,0.3c0,0,0,0,0,0c0-0.2,0-0.3,0-0.4C4.8,31,5,30.8,5.2,30.7c0.3-0.2,0.6-0.1,0.9,0.1
					c0.3,0.2,0.4,0.5,0.4,0.8l0,0.1L6.5,31.9z"/>
			</g>
			<g>
				<path class="st0" d="M6,34l0,0.1c-0.1,0.3-0.5,0.6-0.9,0.6c-0.4,0-0.7-0.1-1-0.4C4,34.1,3.9,34,3.9,33.7c0,0,0,0,0,0
					C4,33.8,4.1,33.9,4.2,34c0,0,0,0,0,0c-0.1-0.1,0-0.3,0-0.4c0.1-0.3,0.2-0.5,0.4-0.6c0.3-0.2,0.7-0.2,1,0C5.9,33.2,6,33.4,6,33.8
					l0,0.1L6,34z"/>
			</g>
			<g>
				<path class="st0" d="M5.7,36.2l0,0.1c-0.1,0.3-0.5,0.6-0.9,0.6c-0.4,0-0.7-0.1-1-0.3c-0.1-0.1-0.2-0.3-0.3-0.5c0,0,0,0,0,0
					c0.1,0.1,0.2,0.2,0.3,0.3c0,0,0,0,0,0c-0.1-0.1,0-0.3,0-0.4c0.1-0.3,0.2-0.5,0.4-0.6c0.3-0.2,0.6-0.2,0.9,0
					c0.3,0.2,0.5,0.4,0.5,0.8l0,0.1L5.7,36.2z"/>
			</g>
			<g>
				<path class="st0" d="M5.5,38.4l0,0.1c-0.1,0.4-0.4,0.6-0.8,0.7c-0.4,0-0.7,0-1-0.3c-0.2-0.1-0.3-0.3-0.3-0.5c0,0,0,0,0,0
					c0.1,0.1,0.2,0.2,0.4,0.2c0,0,0,0,0,0c-0.1-0.1-0.1-0.3-0.1-0.4c0-0.3,0.1-0.5,0.4-0.6c0.3-0.2,0.6-0.2,0.9-0.1
					c0.3,0.1,0.5,0.4,0.6,0.7l0,0.1L5.5,38.4z"/>
			</g>
			<g>
				<path class="st0" d="M5.4,40.6l0,0.1c-0.1,0.4-0.4,0.7-0.7,0.7c-0.4,0.1-0.7,0-1-0.2c-0.2-0.1-0.3-0.3-0.4-0.5c0,0,0,0,0,0
					c0.1,0.1,0.2,0.2,0.4,0.2c0,0,0,0,0,0c-0.1-0.1-0.1-0.3-0.1-0.4c0-0.3,0.1-0.5,0.3-0.7c0.3-0.2,0.6-0.3,0.9-0.2
					c0.3,0.1,0.5,0.4,0.6,0.7l0,0.1L5.4,40.6z"/>
			</g>
			<g>
				<path class="st0" d="M5.6,42.8l0,0.1c-0.1,0.4-0.4,0.7-0.7,0.8c-0.4,0.1-0.7,0-1-0.2c-0.2-0.1-0.3-0.3-0.4-0.5c0,0,0,0,0,0
					c0.1,0.1,0.2,0.2,0.4,0.2c0,0,0,0,0,0c-0.1-0.1-0.1-0.3-0.1-0.4c0-0.3,0.1-0.5,0.3-0.7c0.3-0.2,0.6-0.3,0.9-0.2
					c0.3,0.1,0.5,0.3,0.6,0.7l0,0.1L5.6,42.8z"/>
			</g>
			<g>
				<path class="st0" d="M5.8,45l0,0.1c0,0.4-0.3,0.7-0.7,0.8c-0.4,0.1-0.7,0.1-1-0.1c-0.2-0.1-0.3-0.2-0.4-0.4c0,0,0,0,0,0
					c0.1,0.1,0.3,0.1,0.4,0.2c0,0,0,0,0,0c-0.1-0.1-0.1-0.3-0.1-0.4c0-0.3,0-0.5,0.2-0.7c0.2-0.3,0.5-0.4,0.9-0.3
					c0.3,0.1,0.6,0.3,0.7,0.6l0,0.1L5.8,45z"/>
			</g>
			<g>
				<path class="st0" d="M6.1,47.2l0,0.1c0,0.4-0.2,0.7-0.6,0.8c-0.3,0.1-0.7,0.1-1.1,0C4.3,48.1,4.1,48,4,47.8c0,0,0,0,0,0
					c0.1,0.1,0.3,0.1,0.4,0.1c0,0,0,0,0,0c-0.1-0.1-0.1-0.3-0.2-0.4c0-0.3,0-0.5,0.2-0.7c0.2-0.3,0.5-0.4,0.9-0.3
					c0.3,0.1,0.6,0.3,0.7,0.6l0,0.1L6.1,47.2z"/>
			</g>
			<g>
				<path class="st0" d="M6.6,49.4l0,0.1c0,0.4-0.2,0.7-0.6,0.9c-0.3,0.1-0.7,0.2-1,0c-0.2-0.1-0.4-0.2-0.5-0.4c0,0,0,0,0,0
					c0.1,0.1,0.3,0.1,0.4,0.1c0,0,0,0,0,0c-0.1-0.1-0.2-0.3-0.2-0.4c-0.1-0.3,0-0.5,0.1-0.7c0.2-0.3,0.5-0.4,0.9-0.4
					c0.4,0,0.6,0.2,0.8,0.5l0,0.1L6.6,49.4z"/>
			</g>
			<g>
				<path class="st0" d="M7.3,51.5l0,0.1c0.1,0.4-0.1,0.8-0.5,0.9c-0.3,0.2-0.7,0.2-1,0.1c-0.2-0.1-0.4-0.2-0.5-0.4c0,0,0,0,0,0
					c0.1,0.1,0.3,0.1,0.4,0.1c0,0,0,0,0,0c-0.1-0.1-0.2-0.2-0.2-0.4c-0.1-0.3-0.1-0.5,0.1-0.7c0.2-0.3,0.5-0.5,0.8-0.4
					c0.3,0,0.6,0.2,0.8,0.5l0,0.1L7.3,51.5z"/>
			</g>
			<g>
				<path class="st0" d="M8,53.6l0,0.1c0,0.4-0.1,0.8-0.4,1c-0.3,0.2-0.7,0.3-1,0.2c-0.2,0-0.4-0.1-0.5-0.3c0,0,0,0,0,0
					c0.1,0,0.3,0.1,0.4,0.1c0,0,0,0,0,0c-0.1-0.1-0.2-0.2-0.2-0.4c-0.1-0.3-0.1-0.5,0.1-0.7c0.2-0.3,0.5-0.5,0.8-0.5
					c0.4,0,0.6,0.1,0.8,0.4l0,0.1L8,53.6z"/>
			</g>
			<g>
				<path class="st0" d="M9,55.6l0,0.1c0.1,0.4-0.1,0.8-0.4,1c-0.3,0.2-0.6,0.3-1,0.2c-0.2,0-0.4-0.1-0.5-0.3c0,0,0,0,0,0
					c0.1,0,0.3,0.1,0.4,0c0,0,0,0,0,0c-0.1-0.1-0.2-0.2-0.3-0.4c-0.1-0.2-0.1-0.5,0-0.7C7.4,55.2,7.6,55,8,55c0.4,0,0.6,0.1,0.8,0.4
					l0,0.1L9,55.6z"/>
			</g>
			<g>
				<path class="st0" d="M10,57.6l0,0.1c0.1,0.3,0,0.8-0.3,1c-0.3,0.2-0.6,0.3-1,0.3c-0.2,0-0.4-0.1-0.6-0.2c0,0,0,0,0,0
					c0.2,0,0.3,0,0.4,0c0,0,0,0,0,0c-0.1-0.1-0.2-0.2-0.3-0.3c-0.1-0.2-0.2-0.5-0.1-0.7C8.4,57.3,8.6,57.1,9,57
					c0.3,0,0.6,0.1,0.9,0.3l0.1,0.1L10,57.6z"/>
			</g>
			<g>
				<path class="st0" d="M11.1,59.4l0,0.1c0.1,0.4,0,0.8-0.2,1c-0.3,0.2-0.6,0.4-1,0.4c-0.2,0-0.4-0.1-0.6-0.2c0,0,0,0,0,0
					c0.1,0,0.3,0,0.4,0c0,0,0,0,0,0c-0.1-0.1-0.2-0.2-0.3-0.3c-0.1-0.2-0.2-0.5-0.1-0.7c0.1-0.3,0.4-0.6,0.7-0.6
					c0.3-0.1,0.6,0,0.9,0.3l0.1,0.1L11.1,59.4z"/>
			</g>
			<g>
				<path class="st0" d="M12.4,61.2l0.1,0.1c0.2,0.3,0.1,0.8-0.2,1c-0.3,0.3-0.6,0.4-0.9,0.4c-0.2,0-0.4-0.1-0.6-0.2c0,0,0,0,0,0
					c0.2,0,0.3,0,0.4,0c0,0,0,0,0,0c-0.1-0.1-0.2-0.2-0.3-0.3c-0.1-0.2-0.2-0.5-0.1-0.7c0.1-0.4,0.3-0.6,0.7-0.7
					c0.3-0.1,0.6,0,0.9,0.2l0.1,0.1L12.4,61.2z"/>
			</g>
			<g>
				<path class="st0" d="M13.8,63l0.1,0.1c0.2,0.3,0.1,0.8-0.1,1c-0.2,0.3-0.5,0.5-0.9,0.5c-0.2,0-0.4,0-0.6-0.1c0,0,0,0,0,0
					c0.2,0,0.3,0,0.4-0.1c0,0,0,0,0,0c-0.1-0.1-0.3-0.2-0.4-0.3c-0.2-0.2-0.2-0.4-0.2-0.7c0.1-0.4,0.3-0.6,0.6-0.7
					c0.3-0.1,0.6,0,0.9,0.2l0.1,0L13.8,63z"/>
			</g>
			<g>
				<path class="st0" d="M15.3,64.6l0.1,0.1c0.2,0.3,0.2,0.8-0.1,1.1c-0.2,0.3-0.5,0.5-0.9,0.6c-0.2,0-0.4,0-0.6-0.1c0,0,0,0,0,0
					c0.1,0,0.3,0,0.4-0.1c0,0,0,0,0,0c-0.1,0-0.3-0.2-0.3-0.3c-0.2-0.2-0.2-0.5-0.2-0.7c0-0.4,0.2-0.6,0.6-0.8
					c0.3-0.1,0.6-0.1,0.9,0.1l0.1,0L15.3,64.6z"/>
			</g>
			<g>
				<path class="st0" d="M16.9,66.2L16.9,66.2c0.3,0.4,0.3,0.8,0.1,1.2c-0.2,0.3-0.5,0.5-0.9,0.6c-0.2,0-0.4,0-0.6-0.1c0,0,0,0,0,0
					c0.1,0,0.3-0.1,0.4-0.1c0,0,0,0,0,0c-0.2,0-0.3-0.1-0.4-0.2c-0.2-0.2-0.3-0.4-0.3-0.7c0-0.4,0.2-0.6,0.5-0.8
					c0.3-0.2,0.6-0.1,0.9,0l0.1,0L16.9,66.2z"/>
			</g>
			<g>
				<path class="st0" d="M18.6,67.6L18.6,67.6c0.3,0.4,0.4,0.8,0.2,1.1c-0.2,0.3-0.5,0.6-0.8,0.7c-0.2,0.1-0.4,0.1-0.6,0
					c0,0,0,0,0,0c0.2,0,0.3-0.1,0.4-0.2c0,0,0,0,0,0c-0.2,0-0.3-0.1-0.4-0.2c-0.2-0.2-0.3-0.4-0.3-0.7c0-0.4,0.2-0.7,0.5-0.8
					c0.3-0.2,0.6-0.2,0.9,0l0.1,0L18.6,67.6z"/>
			</g>
			<g>
				<path class="st0" d="M20.3,68.9L20.3,68.9c0.3,0.4,0.4,0.8,0.2,1.1c-0.2,0.3-0.4,0.6-0.8,0.7c-0.2,0.1-0.4,0.1-0.6,0
					c0,0,0,0,0,0c0.1,0,0.3-0.1,0.4-0.2c0,0,0,0,0,0c-0.2,0-0.3-0.1-0.4-0.2c-0.2-0.2-0.3-0.4-0.3-0.7c0-0.4,0.1-0.7,0.4-0.9
					c0.3-0.2,0.6-0.2,0.9-0.1l0.1,0L20.3,68.9z"/>
			</g>
			<g>
				<path class="st0" d="M22.2,70.1L22.2,70.1c0.4,0.3,0.5,0.8,0.3,1.1c-0.1,0.3-0.4,0.6-0.7,0.7c-0.2,0.1-0.4,0.1-0.6,0
					c0,0,0,0,0,0c0.1,0,0.3-0.1,0.4-0.2c0,0,0,0,0,0c-0.2,0-0.3-0.1-0.4-0.2c-0.2-0.2-0.4-0.4-0.4-0.6c-0.1-0.4,0.1-0.7,0.4-0.9
					c0.3-0.2,0.6-0.3,0.9-0.1l0.1,0L22.2,70.1z"/>
			</g>
			<g>
				<path class="st0" d="M24.1,71.2L24.1,71.2c0.4,0.3,0.5,0.7,0.4,1.1c-0.1,0.3-0.3,0.6-0.7,0.8c-0.2,0.1-0.4,0.1-0.6,0.1
					c0,0,0,0,0,0c0.1-0.1,0.3-0.1,0.4-0.2c0,0,0,0,0,0c-0.2,0-0.3-0.1-0.4-0.1c-0.2-0.1-0.4-0.3-0.4-0.6c-0.1-0.4,0-0.7,0.3-0.9
					c0.3-0.2,0.6-0.3,0.9-0.2l0.1,0L24.1,71.2z"/>
			</g>
			<g>
				<path class="st0" d="M26.1,72.2L26.1,72.2c0.4,0.3,0.5,0.7,0.4,1.1c-0.1,0.3-0.3,0.7-0.6,0.8c-0.2,0.1-0.4,0.1-0.6,0.1
					c0,0,0,0,0,0c0.1-0.1,0.3-0.1,0.4-0.2c0,0,0,0,0,0c-0.2,0-0.3,0-0.4-0.1c-0.2-0.1-0.4-0.3-0.5-0.6c-0.1-0.4,0-0.7,0.3-0.9
					c0.3-0.2,0.6-0.3,0.9-0.2l0.1,0L26.1,72.2z"/>
			</g>
			<g>
				<path class="st0" d="M28.2,73l0.1,0.1c0.3,0.2,0.5,0.6,0.4,1c-0.1,0.4-0.3,0.7-0.6,0.9c-0.2,0.1-0.4,0.2-0.6,0.2c0,0,0,0,0,0
					c0.1-0.1,0.3-0.2,0.3-0.3c0,0,0,0,0,0c-0.2,0-0.3,0-0.4-0.1c-0.2-0.1-0.4-0.3-0.5-0.5c-0.1-0.3-0.1-0.7,0.2-0.9
					c0.2-0.3,0.5-0.4,0.9-0.3l0.1,0L28.2,73z"/>
			</g>
			<g>
				<path class="st0" d="M30.2,73.8l0.1,0.1c0.3,0.2,0.5,0.5,0.5,0.9c-0.1,0.4-0.2,0.7-0.5,0.9c-0.2,0.1-0.4,0.2-0.6,0.2
					c0,0,0,0,0,0c0.1-0.1,0.2-0.2,0.3-0.3c0,0,0,0,0,0c-0.2,0-0.3,0-0.4,0c-0.3-0.1-0.4-0.3-0.5-0.5c-0.1-0.3-0.1-0.7,0.1-0.9
					c0.2-0.3,0.5-0.4,0.8-0.3l0.1,0L30.2,73.8z"/>
			</g>
			<g>
				<path class="st0" d="M32.4,74.3l0.1,0.1c0.3,0.2,0.6,0.6,0.5,0.9c0,0.4-0.2,0.7-0.5,0.9c-0.2,0.1-0.3,0.2-0.6,0.2c0,0,0,0,0,0
					c0.1-0.1,0.2-0.2,0.3-0.3c0,0,0,0,0,0c-0.1,0-0.3,0-0.4,0c-0.3-0.1-0.5-0.2-0.6-0.5c-0.2-0.3-0.1-0.6,0.1-0.9
					c0.2-0.3,0.5-0.4,0.8-0.4l0.1,0L32.4,74.3z"/>
			</g>
			<g>
				<path class="st0" d="M34.6,74.7l0.1,0c0.3,0.1,0.6,0.5,0.6,0.9c0,0.4-0.1,0.7-0.4,1c-0.1,0.1-0.3,0.2-0.5,0.3c0,0,0,0,0,0
					c0.1-0.1,0.2-0.2,0.3-0.3c0,0,0,0,0,0c-0.1,0.1-0.3,0-0.4,0c-0.3-0.1-0.5-0.2-0.6-0.4c-0.2-0.3-0.2-0.6,0-0.9
					c0.2-0.3,0.5-0.5,0.8-0.5l0.1,0L34.6,74.7z"/>
			</g>
			<g>
				<path class="st0" d="M36.7,75.1c0,0,0.1,0,0.1,0c0.4,0.1,0.6,0.4,0.6,0.8c0,0.4-0.1,0.7-0.3,1c-0.1,0.2-0.3,0.3-0.5,0.3
					c0,0,0,0,0,0c0.1-0.1,0.2-0.2,0.3-0.4c0,0,0,0,0,0c-0.1,0.1-0.3,0.1-0.4,0c-0.3-0.1-0.5-0.2-0.6-0.4c-0.2-0.3-0.2-0.6,0-1
					c0.2-0.3,0.4-0.5,0.8-0.5l0.1,0L36.7,75.1z"/>
			</g>
			<g>
				<path class="st0" d="M39,75.2l0.1,0c0.4,0.1,0.7,0.4,0.7,0.8c0,0.4,0,0.7-0.3,1c-0.1,0.2-0.3,0.3-0.5,0.3c0,0,0,0,0,0
					c0.1-0.1,0.2-0.2,0.2-0.4c0,0,0,0,0,0c-0.1,0.1-0.3,0.1-0.4,0.1c-0.3,0-0.5-0.1-0.7-0.4c-0.2-0.3-0.3-0.6-0.1-0.9
					c0.1-0.3,0.4-0.5,0.7-0.6l0.1,0L39,75.2z"/>
			</g>
			<g>
				<path class="st0" d="M41.2,75.2l0.1,0c0.4,0.1,0.7,0.4,0.7,0.7c0.1,0.4,0,0.7-0.2,1c-0.1,0.2-0.3,0.3-0.5,0.4c0,0,0,0,0,0
					c0.1-0.1,0.2-0.2,0.2-0.4c0,0,0,0,0,0c-0.1,0.1-0.3,0.1-0.4,0.1c-0.3,0-0.5-0.1-0.7-0.3c-0.2-0.3-0.3-0.6-0.2-0.9
					c0.1-0.3,0.4-0.5,0.7-0.6l0.1,0L41.2,75.2z"/>
			</g>
			<g>
				<path class="st0" d="M43.4,75.1l0.1,0c0.4,0.1,0.7,0.3,0.8,0.7c0.1,0.4,0.1,0.7-0.1,1c-0.1,0.2-0.3,0.3-0.5,0.4c0,0,0,0,0,0
					c0.1-0.1,0.2-0.2,0.2-0.4c0,0,0,0,0,0C43.7,77,43.6,77,43.4,77c-0.3,0-0.5-0.1-0.7-0.3c-0.3-0.3-0.3-0.6-0.2-0.9
					c0.1-0.3,0.3-0.5,0.7-0.6l0.1,0L43.4,75.1z"/>
			</g>
			<g>
				<path class="st0" d="M45.6,74.8l0.1,0c0.4,0,0.7,0.3,0.8,0.7c0.1,0.4,0.1,0.7-0.1,1c-0.1,0.2-0.2,0.3-0.4,0.4c0,0,0,0,0,0
					c0.1-0.1,0.1-0.3,0.2-0.4c0,0,0,0,0,0c-0.1,0.1-0.3,0.1-0.4,0.1c-0.3,0-0.5,0-0.7-0.2c-0.3-0.2-0.4-0.5-0.3-0.9
					c0.1-0.3,0.3-0.6,0.6-0.7l0.1,0L45.6,74.8z"/>
			</g>
			<g>
				<path class="st0" d="M47.8,74.4l0.1,0c0.4,0,0.7,0.2,0.9,0.6c0.1,0.3,0.1,0.7,0,1c-0.1,0.2-0.2,0.4-0.4,0.5c0,0,0,0,0,0
					c0.1-0.1,0.1-0.3,0.1-0.4c0,0,0,0,0,0c-0.1,0.1-0.3,0.2-0.4,0.2c-0.3,0.1-0.5,0-0.7-0.2c-0.3-0.2-0.4-0.5-0.3-0.9
					c0.1-0.4,0.3-0.6,0.6-0.7l0.1,0L47.8,74.4z"/>
			</g>
			<g>
				<path class="st0" d="M49.9,73.9l0.1,0c0.4,0,0.8,0.2,0.9,0.6c0.1,0.3,0.2,0.7,0.1,1c-0.1,0.2-0.2,0.4-0.4,0.5c0,0,0,0,0,0
					c0.1-0.1,0.1-0.3,0.1-0.4c0,0,0,0,0,0c-0.1,0.1-0.3,0.2-0.4,0.2c-0.3,0.1-0.5,0-0.7-0.1c-0.3-0.2-0.4-0.5-0.4-0.9
					c0-0.4,0.2-0.6,0.5-0.8l0.1,0L49.9,73.9z"/>
			</g>
			<g>
				<path class="st0" d="M52,73.2l0.1,0c0.4-0.1,0.8,0.1,0.9,0.5c0.2,0.3,0.2,0.7,0.1,1c-0.1,0.2-0.2,0.4-0.3,0.5c0,0,0,0,0,0
					c0.1-0.1,0.1-0.3,0.1-0.4c0,0,0,0,0,0c-0.1,0.1-0.2,0.2-0.4,0.2c-0.3,0.1-0.5,0.1-0.7-0.1c-0.3-0.2-0.5-0.5-0.4-0.8
					c0-0.4,0.2-0.6,0.5-0.8l0.1,0L52,73.2z"/>
			</g>
			<g>
				<path class="st0" d="M54.1,72.4l0.1,0c0.4-0.1,0.8,0.1,1,0.4c0.2,0.3,0.3,0.7,0.2,1c0,0.2-0.1,0.4-0.3,0.5c0,0,0,0,0,0
					c0-0.1,0.1-0.3,0.1-0.4c0,0,0,0,0,0c-0.1,0.1-0.2,0.2-0.4,0.3c-0.3,0.1-0.5,0.1-0.8-0.1c-0.3-0.2-0.5-0.5-0.5-0.8
					c0-0.3,0.1-0.6,0.4-0.8c0,0,0,0,0.1,0L54.1,72.4z"/>
			</g>
			<g>
				<path class="st0" d="M56.1,71.5l0.1,0c0.4-0.1,0.8,0.1,1,0.4c0.2,0.3,0.3,0.6,0.3,1c0,0.2-0.1,0.4-0.3,0.5c0,0,0,0,0,0
					c0-0.1,0.1-0.3,0-0.4c0,0,0,0,0,0c-0.1,0.1-0.2,0.2-0.4,0.3c-0.2,0.1-0.5,0.1-0.7,0c-0.3-0.1-0.5-0.4-0.6-0.8
					c0-0.4,0.1-0.6,0.4-0.8l0.1,0L56.1,71.5z"/>
			</g>
			<g>
				<path class="st0" d="M58,70.4l0.1,0c0.4-0.1,0.8,0,1,0.3c0.2,0.3,0.4,0.6,0.3,1c0,0.2-0.1,0.4-0.2,0.6c0,0,0,0,0,0
					c0-0.1,0-0.3,0-0.4c0,0,0,0,0,0c-0.1,0.1-0.2,0.2-0.3,0.3c-0.2,0.1-0.5,0.2-0.7,0.1c-0.3-0.1-0.5-0.4-0.6-0.7
					c-0.1-0.4,0-0.6,0.3-0.9l0.1-0.1L58,70.4z"/>
			</g>
			<g>
				<path class="st0" d="M59.9,69.3l0.1,0c0.3-0.2,0.8-0.1,1,0.2c0.2,0.3,0.4,0.6,0.4,1c0,0.2-0.1,0.4-0.2,0.6c0,0,0,0,0,0
					c0-0.2,0-0.3,0-0.4c0,0,0,0,0,0c-0.1,0.1-0.2,0.2-0.3,0.3C60.6,71,60.4,71,60.1,71c-0.4-0.1-0.6-0.3-0.6-0.7
					c-0.1-0.3,0-0.6,0.3-0.9l0.1-0.1C59.8,69.3,59.9,69.3,59.9,69.3z"/>
			</g>
			<g>
				<path class="st0" d="M61.7,67.9l0.1-0.1c0.3-0.2,0.8-0.1,1.1,0.2c0.3,0.3,0.4,0.6,0.4,0.9c0,0.2,0,0.4-0.2,0.6c0,0,0,0,0,0
					c0-0.1,0-0.3-0.1-0.4c0,0,0,0,0,0c-0.1,0.1-0.2,0.2-0.3,0.3c-0.2,0.1-0.5,0.2-0.7,0.1c-0.4-0.1-0.6-0.3-0.7-0.7
					c-0.1-0.3,0-0.6,0.2-0.9l0.1-0.1L61.7,67.9z"/>
			</g>
			<g>
				<path class="st0" d="M63.4,66.5l0.1-0.1c0.3-0.2,0.8-0.2,1,0.1c0.3,0.2,0.5,0.5,0.5,0.9c0,0.2,0,0.4-0.1,0.6c0,0,0,0,0,0
					c0-0.2,0-0.3-0.1-0.4c0,0,0,0,0,0c-0.1,0.1-0.2,0.3-0.3,0.4c-0.2,0.2-0.4,0.2-0.7,0.2c-0.4-0.1-0.6-0.3-0.7-0.6
					C63,67.3,63,67,63.2,66.7l0-0.1L63.4,66.5z"/>
			</g>
			<g>
				<path class="st0" d="M65,65L65,65c0.4-0.3,0.8-0.3,1.1-0.1c0.3,0.2,0.5,0.5,0.6,0.9c0,0.2,0,0.4-0.1,0.6c0,0,0,0,0,0
					c0-0.2,0-0.3-0.1-0.4c0,0,0,0,0,0c0,0.2-0.1,0.3-0.2,0.4c-0.2,0.2-0.5,0.2-0.7,0.2c-0.4,0-0.6-0.2-0.8-0.6
					c-0.1-0.3-0.1-0.6,0.1-0.9l0-0.1L65,65z"/>
			</g>
			<g>
				<path class="st0" d="M66.5,63.4L66.5,63.4c0.4-0.3,0.8-0.3,1.2-0.1c0.3,0.2,0.5,0.5,0.6,0.8c0,0.2,0,0.4-0.1,0.6c0,0,0,0,0,0
					c0-0.1-0.1-0.3-0.1-0.4c0,0,0,0,0,0c0,0.2-0.1,0.3-0.2,0.4c-0.2,0.2-0.4,0.3-0.7,0.3c-0.4,0-0.6-0.2-0.8-0.5
					c-0.2-0.3-0.1-0.6,0-0.9l0-0.1L66.5,63.4z"/>
			</g>
			<g>
				<path class="st0" d="M67.9,61.7L67.9,61.7c0.4-0.3,0.8-0.4,1.1-0.2c0.3,0.2,0.6,0.4,0.7,0.8c0.1,0.2,0.1,0.4,0,0.6c0,0,0,0,0,0
					c0-0.1-0.1-0.3-0.2-0.4c0,0,0,0,0,0c0,0.2-0.1,0.3-0.2,0.4c-0.2,0.2-0.4,0.3-0.7,0.3c-0.4,0-0.6-0.1-0.8-0.5
					c-0.2-0.3-0.2-0.6,0-0.9l0-0.1L67.9,61.7z"/>
			</g>
			<g>
				<path class="st0" d="M69.3,59.9C69.3,59.9,69.3,59.9,69.3,59.9c0.3-0.4,0.8-0.4,1.1-0.3c0.3,0.2,0.6,0.4,0.7,0.8
					c0.1,0.2,0.1,0.4,0,0.6c0,0,0,0,0,0c0-0.1-0.1-0.3-0.2-0.4c0,0,0,0,0,0c0,0.2-0.1,0.3-0.2,0.4c-0.2,0.2-0.4,0.3-0.7,0.4
					c-0.4,0-0.7-0.1-0.9-0.4c-0.2-0.3-0.2-0.6-0.1-0.9l0-0.1L69.3,59.9z"/>
			</g>
			<g>
				<path class="st0" d="M70.4,58L70.4,58c0.3-0.4,0.8-0.5,1.1-0.3c0.3,0.1,0.6,0.4,0.8,0.7c0.1,0.2,0.1,0.4,0,0.6c0,0,0,0,0,0
					c0-0.1-0.1-0.3-0.2-0.4c0,0,0,0,0,0c0,0.2-0.1,0.3-0.2,0.4c-0.2,0.2-0.4,0.4-0.6,0.4c-0.4,0.1-0.7-0.1-0.9-0.3
					c-0.2-0.3-0.3-0.6-0.1-0.9l0-0.1L70.4,58z"/>
			</g>
			<g>
				<path class="st0" d="M71.5,56.1L71.5,56.1c0.3-0.4,0.7-0.5,1.1-0.4c0.3,0.1,0.6,0.3,0.8,0.7c0.1,0.2,0.1,0.4,0.1,0.6
					c0,0,0,0,0,0c-0.1-0.1-0.1-0.3-0.2-0.4c0,0,0,0,0,0c0,0.2,0,0.3-0.1,0.4c-0.1,0.2-0.3,0.4-0.6,0.5c-0.3,0.1-0.7,0-0.9-0.3
					c-0.2-0.3-0.3-0.6-0.2-0.9l0-0.1L71.5,56.1z"/>
			</g>
			<g>
				<path class="st0" d="M72.4,54.1L72.4,54.1c0.3-0.4,0.7-0.6,1-0.5c0.4,0.1,0.7,0.3,0.9,0.6c0.1,0.2,0.2,0.4,0.1,0.6c0,0,0,0,0,0
					c-0.1-0.1-0.1-0.3-0.3-0.4c0,0,0,0,0,0c0,0.2,0,0.3-0.1,0.4c-0.1,0.2-0.3,0.4-0.6,0.5c-0.4,0.1-0.7,0-0.9-0.2
					c-0.2-0.2-0.3-0.5-0.2-0.9l0-0.1L72.4,54.1z"/>
			</g>
			<g>
				<path class="st0" d="M73.2,52l0.1-0.1c0.2-0.3,0.6-0.5,1-0.4c0.4,0.1,0.7,0.2,0.9,0.6c0.1,0.2,0.2,0.4,0.2,0.6c0,0,0,0,0,0
					c-0.1-0.1-0.2-0.2-0.3-0.3c0,0,0,0,0,0c0,0.2,0,0.3-0.1,0.4c-0.1,0.2-0.3,0.4-0.5,0.5c-0.3,0.1-0.7,0.1-0.9-0.2
					c-0.3-0.2-0.4-0.5-0.3-0.9l0-0.1L73.2,52z"/>
			</g>
			<g>
				<path class="st0" d="M73.9,49.9l0.1-0.1c0.2-0.3,0.5-0.5,0.9-0.5c0.4,0.1,0.7,0.2,0.9,0.5c0.1,0.2,0.2,0.4,0.2,0.6c0,0,0,0,0,0
					c-0.1-0.1-0.2-0.2-0.3-0.3c0,0,0,0,0,0c0,0.2,0,0.3,0,0.4c-0.1,0.3-0.2,0.4-0.5,0.6c-0.3,0.1-0.7,0.1-0.9-0.1
					c-0.3-0.2-0.4-0.5-0.4-0.8l0-0.1L73.9,49.9z"/>
			</g>
			<g>
				<path class="st0" d="M74.5,47.8l0.1-0.1c0.2-0.3,0.5-0.6,0.9-0.5c0.4,0,0.7,0.2,1,0.4c0.2,0.2,0.2,0.3,0.2,0.6c0,0,0,0,0,0
					c-0.1-0.1-0.2-0.2-0.3-0.3c0,0,0,0,0,0c0,0.1,0,0.3,0,0.4c-0.1,0.3-0.2,0.5-0.5,0.6c-0.3,0.2-0.7,0.1-0.9-0.1
					c-0.3-0.2-0.4-0.5-0.4-0.8l0-0.1L74.5,47.8z"/>
			</g>
			<g>
				<path class="st0" d="M74.8,45.6l0-0.1c0.1-0.3,0.5-0.6,0.9-0.6c0.4,0,0.7,0.1,1,0.4c0.1,0.1,0.2,0.3,0.3,0.5c0,0,0,0,0,0
					c-0.1-0.1-0.2-0.2-0.3-0.3c0,0,0,0,0,0c0.1,0.1,0,0.3,0,0.4c-0.1,0.3-0.2,0.5-0.4,0.6c-0.3,0.2-0.6,0.2-0.9,0
					c-0.3-0.2-0.5-0.4-0.5-0.8l0-0.1L74.8,45.6z"/>
			</g>
			<g>
				<path class="st0" d="M75.1,43.4l0-0.1c0.1-0.4,0.4-0.6,0.8-0.7c0.4,0,0.7,0.1,1,0.3c0.2,0.1,0.3,0.3,0.3,0.5c0,0,0,0,0,0
					c-0.1-0.1-0.2-0.2-0.4-0.3c0,0,0,0,0,0c0.1,0.1,0.1,0.3,0.1,0.4c0,0.3-0.1,0.5-0.4,0.6c-0.3,0.2-0.6,0.2-1,0.1
					c-0.3-0.2-0.5-0.4-0.5-0.8l0-0.1L75.1,43.4z"/>
			</g>
			<g>
				<path class="st0" d="M75.2,41.2l0-0.1c0.1-0.4,0.4-0.7,0.8-0.7c0.4,0,0.7,0,1,0.3c0.2,0.1,0.3,0.3,0.3,0.5c0,0,0,0,0,0
					c-0.1-0.1-0.2-0.2-0.4-0.2c0,0,0,0,0,0c0.1,0.1,0.1,0.3,0.1,0.4c0,0.3-0.1,0.5-0.4,0.7c-0.3,0.2-0.6,0.3-0.9,0.1
					c-0.3-0.1-0.5-0.4-0.6-0.7l0-0.1L75.2,41.2z"/>
			</g>
		</g>
	</g>
</g>
</svg>
