<?xml version="1.0" encoding="utf-8"?>
<!-- Generator: Adobe Illustrator 23.0.6, SVG Export Plug-In . SVG Version: 6.00 Build 0)  -->
<svg version="1.1" id="Layer_1" xmlns="http://www.w3.org/2000/svg" xmlns:xlink="http://www.w3.org/1999/xlink" x="0px" y="0px"
	 viewBox="0 0 80.3 80.3" style="enable-background:new 0 0 80.3 80.3;" xml:space="preserve">
<style type="text/css">
	.st0{fill:#73509C;}
</style>
<g>
	<g>
		<g>
			<g>
				<path class="st0" d="M73.8,37.4l0-0.2c0.1-0.7,0.6-1.4,1.4-1.6c0.7-0.2,1.5-0.1,2.2,0.3c0.4,0.2,0.7,0.5,0.8,1c0,0,0,0,0,0
					c-0.2-0.2-0.5-0.3-0.8-0.4c0,0,0,0,0,0c0.2,0.3,0.2,0.6,0.2,0.9c0,0.6-0.2,1.1-0.6,1.4c-0.6,0.5-1.2,0.6-1.9,0.4
					c-0.7-0.2-1.1-0.7-1.3-1.4l0-0.1L73.8,37.4z"/>
			</g>
			<g>
				<path class="st0" d="M73.1,33l0-0.2c0-0.7,0.5-1.5,1.2-1.8c0.7-0.3,1.4-0.3,2.2,0c0.4,0.2,0.7,0.4,1,0.8c0,0,0,0,0,0
					c-0.3-0.2-0.6-0.3-0.9-0.3c0,0,0,0,0,0c0.2,0.2,0.3,0.5,0.4,0.9c0.1,0.6-0.1,1.1-0.4,1.5c-0.5,0.6-1.1,0.8-1.9,0.7
					c-0.7-0.1-1.2-0.5-1.4-1.2c0,0,0-0.1-0.1-0.1L73.1,33z"/>
			</g>
			<g>
				<path class="st0" d="M71.9,28.8l0-0.2c-0.1-0.7,0.3-1.5,1-1.9c0.7-0.4,1.4-0.5,2.1-0.3c0.4,0.1,0.8,0.3,1,0.7c0,0,0,0,0,0
					c-0.3-0.1-0.6-0.2-0.9-0.2c0,0,0,0,0,0c0.2,0.2,0.4,0.5,0.5,0.8c0.2,0.5,0.1,1.1-0.2,1.5c-0.4,0.6-1,0.9-1.8,0.9
					c-0.7,0-1.3-0.4-1.6-1L72,29.1L71.9,28.8z"/>
			</g>
			<g>
				<path class="st0" d="M70.1,24.7l-0.1-0.2c-0.1-0.7,0.1-1.5,0.7-2c0.6-0.5,1.3-0.7,2.1-0.6c0.5,0.1,0.8,0.2,1.1,0.6c0,0,0,0,0,0
					c-0.3-0.1-0.6-0.1-0.9-0.1c0,0,0,0,0,0c0.3,0.2,0.4,0.5,0.5,0.8c0.2,0.5,0.2,1.1,0,1.6c-0.3,0.7-0.9,1.1-1.6,1.1
					c-0.7,0.1-1.3-0.2-1.7-0.7L70.3,25L70.1,24.7z"/>
			</g>
			<g>
				<path class="st0" d="M67.9,21l-0.1-0.2c-0.3-0.7-0.1-1.5,0.4-2.1c0.6-0.5,1.2-0.9,2-0.9c0.4,0,0.9,0.1,1.2,0.4c0,0,0,0,0,0
					c-0.3,0-0.6,0-0.9,0.1c0,0,0,0,0,0c0.3,0.1,0.5,0.4,0.7,0.6c0.3,0.5,0.3,1,0.2,1.6c-0.2,0.7-0.7,1.2-1.5,1.3
					c-0.7,0.2-1.3,0-1.8-0.5c0,0-0.1-0.1-0.1-0.1L67.9,21z"/>
			</g>
			<g>
				<path class="st0" d="M65.1,17.5L65,17.3c-0.4-0.6-0.3-1.6,0.2-2.2c0.5-0.6,1.1-1,1.9-1.1c0.4,0,0.8,0,1.2,0.3c0,0,0,0,0,0
					c-0.3,0-0.6,0-0.9,0.2c0,0,0,0,0,0c0.3,0.1,0.5,0.3,0.7,0.6c0.4,0.4,0.5,0.9,0.4,1.5c-0.1,0.8-0.6,1.3-1.3,1.5
					c-0.7,0.2-1.3,0.2-1.9-0.3l-0.1-0.1L65.1,17.5z"/>
			</g>
			<g>
				<path class="st0" d="M62,14.4l-0.1-0.2c-0.4-0.6-0.5-1.4-0.1-2.1c0.4-0.7,0.9-1.1,1.7-1.4c0.4-0.1,0.9-0.1,1.3,0.1c0,0,0,0,0,0
					c-0.3,0-0.6,0.1-0.9,0.3c0,0,0,0,0,0c0.3,0.1,0.6,0.3,0.8,0.5c0.4,0.4,0.6,0.9,0.6,1.4c0,0.8-0.4,1.3-1.1,1.6
					c-0.7,0.3-1.3,0.3-1.9,0l-0.1-0.1L62,14.4z"/>
			</g>
			<g>
				<path class="st0" d="M58.4,11.8l-0.2-0.2c-0.5-0.5-0.7-1.4-0.4-2.1c0.3-0.7,0.8-1.3,1.5-1.6c0.4-0.2,0.8-0.2,1.3-0.1
					c0,0,0,0,0,0c-0.3,0.1-0.6,0.2-0.8,0.4c0,0,0,0,0,0c0.3,0,0.6,0.2,0.9,0.3c0.5,0.3,0.7,0.8,0.8,1.4c0.1,0.8-0.2,1.4-0.9,1.8
					c-0.6,0.4-1.2,0.4-1.9,0.2L58.7,12L58.4,11.8z"/>
			</g>
			<g>
				<path class="st0" d="M54.6,9.7l-0.2-0.1c-0.6-0.5-0.9-1.3-0.6-2.1c0.2-0.7,0.6-1.4,1.3-1.7c0.4-0.2,0.8-0.3,1.2-0.2c0,0,0,0,0,0
					C56,5.6,55.7,5.8,55.5,6c0,0,0,0,0,0c0.3,0,0.6,0.1,0.9,0.3c0.5,0.3,0.8,0.7,1,1.2c0.2,0.7-0.1,1.4-0.6,1.9
					C56.3,9.9,55.7,10,55,9.8l-0.2,0L54.6,9.7z"/>
			</g>
			<g>
				<path class="st0" d="M50.5,8l-0.2-0.1c-0.6-0.3-1.1-1.1-0.9-1.9c0.1-0.8,0.4-1.4,1.1-1.9c0.3-0.3,0.8-0.4,1.2-0.4c0,0,0,0,0,0
					C51.4,3.8,51.1,4,51,4.3c0,0,0,0,0,0c0.3-0.1,0.6,0,0.9,0.1C52.4,4.6,52.8,5,53,5.5c0.3,0.7,0.1,1.4-0.4,1.9
					c-0.5,0.6-1.1,0.8-1.7,0.7l-0.2,0L50.5,8z"/>
			</g>
			<g>
				<path class="st0" d="M46.2,7L46,6.9c-0.7-0.3-1.2-1-1.2-1.8c0-0.8,0.2-1.5,0.8-2c0.3-0.3,0.7-0.5,1.2-0.6c0,0,0,0,0,0
					c-0.2,0.2-0.5,0.4-0.6,0.7c0,0,0,0,0,0c0.3-0.1,0.6-0.1,0.9,0c0.6,0.1,1,0.5,1.2,1c0.4,0.7,0.3,1.4-0.1,2
					C47.9,6.7,47.3,7,46.6,7l-0.2,0L46.2,7z"/>
			</g>
			<g>
				<path class="st0" d="M41.8,6.5l-0.2-0.1c-0.7-0.2-1.3-0.9-1.4-1.7c-0.1-0.8,0-1.5,0.5-2.1C41,2.3,41.3,2.1,41.8,2c0,0,0,0,0,0
					c-0.2,0.2-0.4,0.5-0.5,0.8c0,0,0,0,0,0c0.3-0.1,0.6-0.1,0.9-0.1c0.6,0.1,1,0.3,1.4,0.7c0.4,0.6,0.5,1.3,0.2,2
					c-0.3,0.7-0.8,1.1-1.5,1.2l-0.2,0L41.8,6.5z"/>
			</g>
			<g>
				<path class="st0" d="M37.4,6.6l-0.2,0c-0.7-0.1-1.4-0.6-1.6-1.4c-0.2-0.7-0.1-1.5,0.3-2.2c0.2-0.4,0.5-0.7,1-0.8c0,0,0,0,0,0
					c-0.2,0.2-0.3,0.5-0.4,0.8c0,0,0,0,0,0c0.3-0.2,0.6-0.2,0.9-0.2c0.6,0,1.1,0.2,1.4,0.6c0.5,0.6,0.6,1.2,0.4,1.9
					c-0.2,0.7-0.7,1.1-1.4,1.3l-0.1,0L37.4,6.6z"/>
			</g>
			<g>
				<path class="st0" d="M33,7.2l-0.2,0c-0.7,0-1.5-0.5-1.8-1.2c-0.3-0.7-0.3-1.4,0-2.2c0.2-0.4,0.4-0.7,0.8-1c0,0,0,0,0,0
					c-0.2,0.3-0.3,0.6-0.3,0.9c0,0,0,0,0,0c0.2-0.2,0.5-0.3,0.9-0.4C33,3.2,33.6,3.4,34,3.7c0.6,0.5,0.8,1.1,0.7,1.9
					c-0.1,0.7-0.5,1.2-1.2,1.4c0,0-0.1,0-0.1,0.1L33,7.2z"/>
			</g>
			<g>
				<path class="st0" d="M28.8,8.4l-0.2,0c-0.7,0.1-1.5-0.3-1.9-1c-0.4-0.7-0.5-1.4-0.3-2.1c0.1-0.4,0.3-0.8,0.7-1c0,0,0,0,0,0
					c-0.1,0.3-0.2,0.6-0.2,0.9c0,0,0,0,0,0c0.2-0.2,0.5-0.4,0.8-0.5c0.5-0.2,1.1-0.1,1.5,0.2c0.6,0.4,0.9,1,0.9,1.8
					c0,0.7-0.4,1.3-1,1.6l-0.1,0.1L28.8,8.4z"/>
			</g>
			<g>
				<path class="st0" d="M24.7,10.2l-0.2,0.1c-0.7,0.1-1.5-0.1-2-0.7c-0.5-0.6-0.7-1.3-0.6-2.1c0.1-0.5,0.2-0.8,0.6-1.1c0,0,0,0,0,0
					c-0.1,0.3-0.1,0.6-0.1,0.9c0,0,0,0,0,0c0.2-0.3,0.5-0.4,0.8-0.5c0.5-0.2,1.1-0.2,1.6,0c0.7,0.3,1.1,0.9,1.1,1.6
					c0.1,0.7-0.2,1.3-0.7,1.7L25,10L24.7,10.2z"/>
			</g>
			<g>
				<path class="st0" d="M21,12.4l-0.2,0.1c-0.7,0.3-1.5,0.1-2.1-0.4c-0.5-0.6-0.9-1.2-0.9-2c0-0.4,0.1-0.9,0.4-1.2c0,0,0,0,0,0
					c0,0.3,0,0.6,0.1,0.9c0,0,0,0,0,0c0.1-0.3,0.4-0.5,0.6-0.7c0.5-0.3,1-0.3,1.6-0.2c0.7,0.2,1.2,0.7,1.3,1.5
					c0.2,0.7,0,1.3-0.5,1.8c0,0-0.1,0.1-0.1,0.1L21,12.4z"/>
			</g>
			<g>
				<path class="st0" d="M17.5,15.2l-0.2,0.1c-0.6,0.4-1.6,0.3-2.2-0.2c-0.6-0.5-1-1.1-1.1-1.9c0-0.4,0-0.8,0.3-1.2c0,0,0,0,0,0
					c0,0.3,0,0.6,0.2,0.9c0,0,0,0,0,0c0.1-0.3,0.3-0.5,0.6-0.7c0.4-0.4,0.9-0.5,1.5-0.4c0.8,0.1,1.3,0.6,1.5,1.3
					c0.2,0.7,0.2,1.3-0.3,1.9L17.7,15L17.5,15.2z"/>
			</g>
			<g>
				<path class="st0" d="M14.4,18.3l-0.2,0.1c-0.6,0.4-1.4,0.5-2.1,0.1c-0.7-0.4-1.1-0.9-1.4-1.7c-0.1-0.4-0.1-0.9,0.1-1.3
					c0,0,0,0,0,0c0,0.3,0.1,0.6,0.3,0.9c0,0,0,0,0,0c0.1-0.3,0.3-0.6,0.5-0.8c0.4-0.4,0.9-0.6,1.4-0.6c0.8,0,1.3,0.4,1.6,1.1
					c0.3,0.7,0.3,1.3,0,1.9l-0.1,0.1L14.4,18.3z"/>
			</g>
			<g>
				<path class="st0" d="M11.8,21.9l-0.2,0.2c-0.5,0.5-1.4,0.7-2.1,0.4c-0.7-0.3-1.3-0.8-1.6-1.5c-0.2-0.4-0.2-0.8-0.1-1.3
					c0,0,0,0,0,0c0.1,0.3,0.2,0.6,0.4,0.8c0,0,0,0,0,0c0-0.3,0.2-0.6,0.3-0.9c0.3-0.5,0.8-0.7,1.4-0.8c0.8-0.1,1.4,0.2,1.8,0.9
					c0.4,0.6,0.4,1.2,0.2,1.9L12,21.6L11.8,21.9z"/>
			</g>
			<g>
				<path class="st0" d="M9.7,25.7l-0.1,0.2c-0.5,0.6-1.3,0.9-2.1,0.6c-0.7-0.2-1.4-0.6-1.7-1.3c-0.2-0.4-0.3-0.8-0.2-1.2
					c0,0,0,0,0,0c0.1,0.3,0.3,0.5,0.5,0.8c0,0,0,0,0,0c0-0.3,0.1-0.6,0.3-0.9c0.3-0.5,0.7-0.8,1.2-1c0.7-0.2,1.4,0.1,1.9,0.6
					c0.5,0.6,0.7,1.2,0.5,1.8l0,0.2L9.7,25.7z"/>
			</g>
			<g>
				<path class="st0" d="M8,29.8L7.9,30C7.6,30.7,6.8,31.1,6,31c-0.8-0.1-1.4-0.4-1.9-1.1c-0.3-0.3-0.4-0.8-0.4-1.2c0,0,0,0,0,0
					c0.2,0.3,0.4,0.5,0.6,0.7c0,0,0,0,0,0c-0.1-0.3,0-0.6,0.1-0.9c0.2-0.5,0.6-0.9,1.1-1.1c0.7-0.3,1.4-0.1,1.9,0.4
					c0.6,0.5,0.8,1.1,0.7,1.7l0,0.2L8,29.8z"/>
			</g>
			<g>
				<path class="st0" d="M7,34.1l-0.1,0.2c-0.3,0.7-1,1.2-1.8,1.2c-0.8,0-1.5-0.2-2-0.8c-0.3-0.3-0.5-0.7-0.6-1.2c0,0,0,0,0,0
					c0.2,0.2,0.4,0.5,0.7,0.6c0,0,0,0,0,0c-0.1-0.3-0.1-0.6,0-0.9c0.1-0.6,0.5-1,1-1.2c0.7-0.4,1.4-0.3,2,0.1C6.7,32.4,7,33,7,33.7
					l0,0.2L7,34.1z"/>
			</g>
			<g>
				<path class="st0" d="M6.5,38.5l-0.1,0.2c-0.2,0.7-0.9,1.3-1.7,1.4c-0.8,0.1-1.5,0-2.1-0.5C2.3,39.3,2.1,39,2,38.5c0,0,0,0,0,0
					c0.2,0.2,0.5,0.4,0.8,0.5c0,0,0,0,0,0c-0.1-0.3-0.1-0.6-0.1-0.9c0.1-0.6,0.3-1,0.7-1.4c0.6-0.4,1.3-0.5,2-0.2
					C6,36.8,6.4,37.4,6.5,38l0,0.2L6.5,38.5z"/>
			</g>
			<g>
				<path class="st0" d="M6.6,42.9l0,0.2c-0.1,0.7-0.6,1.4-1.4,1.6c-0.7,0.2-1.5,0.1-2.2-0.3c-0.4-0.2-0.7-0.5-0.8-1c0,0,0,0,0,0
					c0.2,0.2,0.5,0.3,0.8,0.4c0,0,0,0,0,0c-0.2-0.3-0.2-0.6-0.2-0.9c0-0.6,0.2-1.1,0.6-1.4c0.6-0.5,1.2-0.6,1.9-0.4
					c0.7,0.2,1.1,0.7,1.3,1.4l0,0.1L6.6,42.9z"/>
			</g>
			<g>
				<path class="st0" d="M7.2,47.3l0,0.2c0,0.7-0.5,1.5-1.2,1.8c-0.7,0.3-1.4,0.3-2.2,0c-0.4-0.2-0.7-0.4-1-0.8c0,0,0,0,0,0
					c0.3,0.2,0.6,0.3,0.9,0.3c0,0,0,0,0,0c-0.2-0.2-0.3-0.5-0.4-0.9c-0.1-0.6,0.1-1.1,0.4-1.5c0.5-0.6,1.1-0.8,1.9-0.7
					c0.7,0.1,1.2,0.5,1.4,1.2c0,0,0,0.1,0.1,0.1L7.2,47.3z"/>
			</g>
			<g>
				<path class="st0" d="M8.4,51.5l0,0.2c0.1,0.7-0.3,1.5-1,1.9C6.8,54.1,6,54.2,5.3,54c-0.4-0.1-0.8-0.3-1-0.7c0,0,0,0,0,0
					c0.3,0.1,0.6,0.2,0.9,0.2c0,0,0,0,0,0c-0.2-0.2-0.4-0.5-0.5-0.8C4.5,52,4.5,51.5,4.8,51c0.4-0.6,1-0.9,1.8-0.9
					c0.7,0,1.3,0.4,1.6,1l0.1,0.1L8.4,51.5z"/>
			</g>
			<g>
				<path class="st0" d="M10.2,55.6l0.1,0.2c0.1,0.7-0.1,1.5-0.7,2c-0.6,0.5-1.3,0.7-2.1,0.6c-0.5-0.1-0.8-0.2-1.1-0.6c0,0,0,0,0,0
					c0.3,0.1,0.6,0.1,0.9,0.1c0,0,0,0,0,0c-0.3-0.2-0.4-0.5-0.5-0.8c-0.2-0.5-0.2-1.1,0-1.6c0.3-0.7,0.9-1.1,1.6-1.1
					c0.7-0.1,1.3,0.2,1.7,0.7l0.1,0.1L10.2,55.6z"/>
			</g>
			<g>
				<path class="st0" d="M12.4,59.3l0.1,0.2c0.3,0.7,0.1,1.5-0.4,2.1c-0.6,0.5-1.2,0.9-2,0.9c-0.4,0-0.9-0.1-1.2-0.4c0,0,0,0,0,0
					c0.3,0,0.6,0,0.9-0.1c0,0,0,0,0,0c-0.3-0.1-0.5-0.4-0.7-0.6c-0.3-0.5-0.3-1-0.2-1.6c0.2-0.7,0.7-1.2,1.5-1.3
					c0.7-0.2,1.3,0,1.8,0.5c0,0,0.1,0.1,0.1,0.1L12.4,59.3z"/>
			</g>
			<g>
				<path class="st0" d="M15.2,62.8l0.1,0.2c0.4,0.6,0.3,1.6-0.2,2.2c-0.5,0.6-1.1,1-1.9,1.1c-0.4,0-0.8,0-1.2-0.3c0,0,0,0,0,0
					c0.3,0,0.6,0,0.9-0.2c0,0,0,0,0,0c-0.3-0.1-0.5-0.3-0.7-0.6c-0.4-0.4-0.5-0.9-0.4-1.5c0.1-0.8,0.6-1.3,1.3-1.5
					c0.7-0.2,1.3-0.2,1.9,0.3l0.1,0.1L15.2,62.8z"/>
			</g>
			<g>
				<path class="st0" d="M18.3,65.9l0.1,0.2c0.4,0.6,0.5,1.4,0.1,2.1c-0.4,0.7-0.9,1.1-1.7,1.4c-0.4,0.1-0.9,0.1-1.3-0.1
					c0,0,0,0,0,0c0.3,0,0.6-0.1,0.9-0.3c0,0,0,0,0,0c-0.3-0.1-0.6-0.3-0.8-0.5c-0.4-0.4-0.6-0.9-0.6-1.4c0-0.8,0.4-1.3,1.1-1.6
					c0.7-0.3,1.3-0.3,1.9,0l0.1,0.1L18.3,65.9z"/>
			</g>
			<g>
				<path class="st0" d="M21.9,68.5l0.2,0.2c0.5,0.5,0.7,1.4,0.4,2.1c-0.3,0.7-0.8,1.3-1.5,1.6c-0.4,0.2-0.8,0.2-1.3,0.1
					c0,0,0,0,0,0c0.3-0.1,0.6-0.2,0.8-0.4c0,0,0,0,0,0c-0.3,0-0.6-0.2-0.9-0.3c-0.5-0.3-0.7-0.8-0.8-1.4c-0.1-0.8,0.2-1.4,0.9-1.8
					c0.6-0.4,1.2-0.4,1.9-0.2l0.1,0.1L21.9,68.5z"/>
			</g>
			<g>
				<path class="st0" d="M25.7,70.6l0.2,0.1c0.6,0.5,0.9,1.3,0.6,2.1c-0.2,0.7-0.6,1.4-1.3,1.7c-0.4,0.2-0.8,0.3-1.2,0.2
					c0,0,0,0,0,0c0.3-0.1,0.5-0.3,0.8-0.5c0,0,0,0,0,0c-0.3,0-0.6-0.1-0.9-0.3c-0.5-0.3-0.8-0.7-1-1.2c-0.2-0.7,0.1-1.4,0.6-1.9
					c0.6-0.5,1.2-0.7,1.8-0.5l0.2,0L25.7,70.6z"/>
			</g>
			<g>
				<path class="st0" d="M29.8,72.3l0.2,0.1c0.6,0.3,1.1,1.1,0.9,1.9c-0.1,0.8-0.4,1.4-1.1,1.9c-0.3,0.3-0.8,0.4-1.2,0.4
					c0,0,0,0,0,0c0.3-0.2,0.5-0.4,0.7-0.6c0,0,0,0,0,0c-0.3,0.1-0.6,0-0.9-0.1c-0.5-0.2-0.9-0.6-1.1-1.1c-0.3-0.7-0.1-1.4,0.4-1.9
					c0.5-0.6,1.1-0.8,1.7-0.7l0.2,0L29.8,72.3z"/>
			</g>
			<g>
				<path class="st0" d="M34.1,73.3l0.2,0.1c0.7,0.3,1.2,1,1.2,1.8c0,0.8-0.2,1.5-0.8,2c-0.3,0.3-0.7,0.5-1.2,0.6c0,0,0,0,0,0
					c0.2-0.2,0.5-0.4,0.6-0.7c0,0,0,0,0,0c-0.3,0.1-0.6,0.1-0.9,0c-0.6-0.1-1-0.5-1.2-1c-0.4-0.7-0.3-1.4,0.1-2
					c0.4-0.6,0.9-0.9,1.6-0.9l0.2,0L34.1,73.3z"/>
			</g>
			<g>
				<path class="st0" d="M38.5,73.8l0.2,0.1c0.7,0.2,1.3,0.9,1.4,1.7c0.1,0.8,0,1.5-0.5,2.1c-0.3,0.3-0.6,0.6-1.1,0.7c0,0,0,0,0,0
					c0.2-0.2,0.4-0.5,0.5-0.8c0,0,0,0,0,0c-0.3,0.1-0.6,0.1-0.9,0.1c-0.6-0.1-1-0.3-1.4-0.7c-0.4-0.6-0.5-1.3-0.2-2
					c0.3-0.7,0.8-1.1,1.5-1.2l0.2,0L38.5,73.8z"/>
			</g>
			<g>
				<path class="st0" d="M42.9,73.8l0.2,0c0.7,0.1,1.4,0.6,1.6,1.4c0.2,0.7,0.1,1.5-0.3,2.2c-0.2,0.4-0.5,0.7-1,0.8c0,0,0,0,0,0
					c0.2-0.2,0.3-0.5,0.4-0.8c0,0,0,0,0,0c-0.3,0.2-0.6,0.2-0.9,0.2c-0.6,0-1.1-0.2-1.4-0.6c-0.5-0.6-0.6-1.2-0.4-1.9
					c0.2-0.7,0.7-1.1,1.4-1.3l0.1,0L42.9,73.8z"/>
			</g>
			<g>
				<path class="st0" d="M47.3,73.1l0.2,0c0.7,0,1.5,0.5,1.8,1.2c0.3,0.7,0.3,1.4,0,2.2c-0.2,0.4-0.4,0.7-0.8,1c0,0,0,0,0,0
					c0.2-0.3,0.3-0.6,0.3-0.9c0,0,0,0,0,0c-0.2,0.2-0.5,0.3-0.9,0.4c-0.6,0.1-1.1-0.1-1.5-0.4c-0.6-0.5-0.8-1.1-0.7-1.9
					c0.1-0.7,0.5-1.2,1.2-1.4c0,0,0.1,0,0.1-0.1L47.3,73.1z"/>
			</g>
			<g>
				<path class="st0" d="M51.5,71.9l0.2,0c0.7-0.1,1.5,0.3,1.9,1c0.4,0.7,0.5,1.4,0.3,2.1c-0.1,0.4-0.3,0.8-0.7,1c0,0,0,0,0,0
					c0.1-0.3,0.2-0.6,0.2-0.9c0,0,0,0,0,0c-0.2,0.2-0.5,0.4-0.8,0.5c-0.5,0.2-1.1,0.1-1.5-0.2c-0.6-0.4-0.9-1-0.9-1.8
					c0-0.7,0.4-1.3,1-1.6l0.1-0.1L51.5,71.9z"/>
			</g>
			<g>
				<path class="st0" d="M55.6,70.1l0.2-0.1c0.7-0.1,1.5,0.1,2,0.7c0.5,0.6,0.7,1.3,0.6,2.1c-0.1,0.5-0.2,0.8-0.6,1.1c0,0,0,0,0,0
					c0.1-0.3,0.1-0.6,0.1-0.9c0,0,0,0,0,0c-0.2,0.3-0.5,0.4-0.8,0.5c-0.5,0.2-1.1,0.2-1.6,0c-0.7-0.3-1.1-0.9-1.1-1.6
					c-0.1-0.7,0.2-1.3,0.7-1.7l0.1-0.1L55.6,70.1z"/>
			</g>
			<g>
				<path class="st0" d="M59.3,67.9l0.2-0.1c0.7-0.3,1.5-0.1,2.1,0.4c0.5,0.6,0.9,1.2,0.9,2c0,0.4-0.1,0.9-0.4,1.2c0,0,0,0,0,0
					c0-0.3,0-0.6-0.1-0.9c0,0,0,0,0,0c-0.1,0.3-0.4,0.5-0.6,0.7c-0.5,0.3-1,0.3-1.6,0.2c-0.7-0.2-1.2-0.7-1.3-1.5
					c-0.2-0.7,0-1.3,0.5-1.8c0,0,0.1-0.1,0.1-0.1L59.3,67.9z"/>
			</g>
			<g>
				<path class="st0" d="M62.8,65.1L63,65c0.6-0.4,1.6-0.3,2.2,0.2c0.6,0.5,1,1.1,1.1,1.9c0,0.4,0,0.8-0.3,1.2c0,0,0,0,0,0
					c0-0.3,0-0.6-0.2-0.9c0,0,0,0,0,0c-0.1,0.3-0.3,0.5-0.6,0.7c-0.4,0.4-0.9,0.5-1.5,0.4c-0.8-0.1-1.3-0.6-1.5-1.3
					c-0.2-0.7-0.2-1.3,0.3-1.9l0.1-0.1L62.8,65.1z"/>
			</g>
			<g>
				<path class="st0" d="M65.9,62l0.2-0.1c0.6-0.4,1.4-0.5,2.1-0.1c0.7,0.4,1.1,0.9,1.4,1.7c0.1,0.4,0.1,0.9-0.1,1.3c0,0,0,0,0,0
					c0-0.3-0.1-0.6-0.3-0.9c0,0,0,0,0,0c-0.1,0.3-0.3,0.6-0.5,0.8c-0.4,0.4-0.9,0.6-1.4,0.6c-0.8,0-1.3-0.4-1.6-1.1
					c-0.3-0.7-0.3-1.3,0-1.9l0.1-0.1L65.9,62z"/>
			</g>
			<g>
				<path class="st0" d="M68.5,58.4l0.2-0.2c0.5-0.5,1.4-0.7,2.1-0.4c0.7,0.3,1.3,0.8,1.6,1.5c0.2,0.4,0.2,0.8,0.1,1.3c0,0,0,0,0,0
					c-0.1-0.3-0.2-0.6-0.4-0.8c0,0,0,0,0,0c0,0.3-0.2,0.6-0.3,0.9c-0.3,0.5-0.8,0.7-1.4,0.8c-0.8,0.1-1.4-0.2-1.8-0.9
					c-0.4-0.6-0.4-1.2-0.2-1.9l0.1-0.1L68.5,58.4z"/>
			</g>
			<g>
				<path class="st0" d="M70.6,54.6l0.1-0.2c0.5-0.6,1.3-0.9,2.1-0.6c0.7,0.2,1.4,0.6,1.7,1.3c0.2,0.4,0.3,0.8,0.2,1.2c0,0,0,0,0,0
					c-0.1-0.3-0.3-0.5-0.5-0.8c0,0,0,0,0,0c0,0.3-0.1,0.6-0.3,0.9c-0.3,0.5-0.7,0.8-1.2,1c-0.7,0.2-1.4-0.1-1.9-0.6
					c-0.5-0.6-0.7-1.2-0.5-1.8l0-0.2L70.6,54.6z"/>
			</g>
			<g>
				<path class="st0" d="M72.3,50.5l0.1-0.2c0.3-0.6,1.1-1.1,1.9-0.9c0.8,0.1,1.4,0.4,1.9,1.1c0.3,0.3,0.4,0.8,0.4,1.2c0,0,0,0,0,0
					c-0.2-0.3-0.4-0.5-0.6-0.7c0,0,0,0,0,0c0.1,0.3,0,0.6-0.1,0.9c-0.2,0.5-0.6,0.9-1.1,1.1c-0.7,0.3-1.4,0.1-1.9-0.4
					c-0.6-0.5-0.8-1.1-0.7-1.7l0-0.2L72.3,50.5z"/>
			</g>
			<g>
				<path class="st0" d="M73.3,46.2l0.1-0.2c0.3-0.7,1-1.2,1.8-1.2c0.8,0,1.5,0.2,2,0.8c0.3,0.3,0.5,0.7,0.6,1.2c0,0,0,0,0,0
					c-0.2-0.2-0.4-0.5-0.7-0.6c0,0,0,0,0,0c0.1,0.3,0.1,0.6,0,0.9c-0.1,0.6-0.5,1-1,1.2c-0.7,0.4-1.4,0.3-2-0.1
					c-0.6-0.4-0.9-0.9-0.9-1.6l0-0.2L73.3,46.2z"/>
			</g>
			<g>
				<path class="st0" d="M73.8,41.8l0.1-0.2c0.2-0.7,0.9-1.3,1.7-1.4c0.8-0.1,1.5,0,2.1,0.5c0.3,0.3,0.6,0.6,0.7,1.1c0,0,0,0,0,0
					c-0.2-0.2-0.5-0.4-0.8-0.5c0,0,0,0,0,0c0.1,0.3,0.1,0.6,0.1,0.9c-0.1,0.6-0.3,1-0.7,1.4c-0.6,0.4-1.3,0.5-2,0.2
					c-0.7-0.3-1.1-0.8-1.2-1.5l0-0.2L73.8,41.8z"/>
			</g>
		</g>
	</g>
</g>
</svg>
