<?xml version="1.0" encoding="utf-8"?>
<!-- Generator: Adobe Illustrator 25.1.0, SVG Export Plug-In . SVG Version: 6.00 Build 0)  -->
<svg version="1.1" id="Layer_1" xmlns="http://www.w3.org/2000/svg" xmlns:xlink="http://www.w3.org/1999/xlink" x="0px" y="0px"
	 viewBox="0 0 24 24" style="enable-background:new 0 0 24 24;" xml:space="preserve">
<style type="text/css">
	.st0{fill:#73509C;}
</style>
<g>
	<path class="st0" d="M12,15c-0.3,0-0.5-0.1-0.7-0.3l-3-3c-0.4-0.4-0.4-1,0-1.4s1-0.4,1.4,0l2.3,2.3l9.3-9.3c0.4-0.4,1-0.4,1.4,0
		s0.4,1,0,1.4l-10,10C12.5,14.9,12.3,15,12,15z"/>
</g>
<g>
	<path class="st0" d="M19,22H5c-1.7,0-3-1.3-3-3V5c0-1.7,1.3-3,3-3h11c0.6,0,1,0.4,1,1s-0.4,1-1,1H5C4.4,4,4,4.4,4,5v14
		c0,0.6,0.4,1,1,1h14c0.6,0,1-0.4,1-1v-7c0-0.6,0.4-1,1-1s1,0.4,1,1v7C22,20.7,20.7,22,19,22z"/>
</g>
</svg>
