<?xml version="1.0" encoding="utf-8"?>
<!-- Generator: Adobe Illustrator 23.0.6, SVG Export Plug-In . SVG Version: 6.00 Build 0)  -->
<svg version="1.1" id="Layer_1" xmlns="http://www.w3.org/2000/svg" xmlns:xlink="http://www.w3.org/1999/xlink" x="0px" y="0px"
	 viewBox="0 0 64 64" style="enable-background:new 0 0 64 64;" xml:space="preserve">
<style type="text/css">
	.st0{fill:#6E57A5;}
</style>
<path class="st0" d="M14.2,9.4C6.4,9.4,0,15.8,0,23.6c0,7.5,5.9,13.7,13.4,14.2c0.1,1.4,0,5.2-3.6,10.4c-0.3,0.4-0.2,0.9,0.1,1.3
	c1.5,1.5,2.4,2.4,3,3.1c0.8,0.9,1.2,1.2,1.8,1.8c0.2,0.2,0.4,0.3,0.7,0.3c0.2,0,0.5-0.1,0.7-0.2c6.3-5.5,13.4-16.9,12.3-30.8
	C27.8,15.4,21.8,9.4,14.2,9.4z"/>
<path class="st0" d="M63.9,23.5L63.9,23.5c-0.6-8.2-6.6-14.1-14.2-14.1c-7.8,0-14.2,6.4-14.2,14.2c0,7.5,5.9,13.7,13.4,14.2
	c0.1,1.4,0,5.2-3.6,10.4c-0.3,0.4-0.2,0.9,0.1,1.3c1.5,1.5,2.4,2.4,3,3.1c0.8,0.9,1.2,1.3,1.8,1.8c0.2,0.2,0.4,0.3,0.7,0.3
	c0.2,0,0.5-0.1,0.7-0.2C57.9,48.8,64.9,37.5,63.9,23.5z"/>
</svg>
