<?xml version="1.0" encoding="utf-8"?>
<!-- Generator: Adobe Illustrator 23.0.6, SVG Export Plug-In . SVG Version: 6.00 Build 0)  -->
<svg version="1.1" id="Layer_1" xmlns="http://www.w3.org/2000/svg" xmlns:xlink="http://www.w3.org/1999/xlink" x="0px" y="0px"
	 viewBox="0 0 64 64" style="enable-background:new 0 0 64 64;" xml:space="preserve">
<style type="text/css">
	.st0{fill:#6E57A5;}
</style>
<path class="st0" d="M50.6,26.2c-0.1-1.4,0-5.2,3.6-10.4c0.3-0.4,0.2-0.9-0.1-1.3c-1.5-1.5-2.4-2.4-3-3.1c-0.8-0.9-1.2-1.3-1.8-1.8
	c-0.4-0.3-0.9-0.3-1.3,0c-6.3,5.5-13.4,16.9-12.3,30.8c0.6,8.2,6.6,14.1,14.2,14.1c7.8,0,14.2-6.4,14.2-14.2
	C64,32.8,58.1,26.7,50.6,26.2z"/>
<path class="st0" d="M15.1,26.2c-0.1-1.4,0-5.2,3.6-10.4c0.3-0.4,0.2-0.9-0.1-1.3c-1.5-1.5-2.4-2.4-3-3.1c-0.8-0.9-1.2-1.3-1.8-1.8
	c-0.4-0.3-0.9-0.3-1.3,0C6.1,15.2-0.9,26.5,0.1,40.5v0c0.6,8.2,6.6,14.1,14.2,14.1c7.8,0,14.2-6.4,14.2-14.2
	C28.5,32.8,22.6,26.7,15.1,26.2z"/>
</svg>
