<?xml version="1.0" encoding="utf-8"?>
<!-- Generator: Adobe Illustrator 24.0.1, SVG Export Plug-In . SVG Version: 6.00 Build 0)  -->
<svg version="1.1" id="flag-icon-css-wf" xmlns="http://www.w3.org/2000/svg" xmlns:xlink="http://www.w3.org/1999/xlink" x="0px"
	 y="0px" viewBox="0 0 640 480" style="enable-background:new 0 0 640 480;" xml:space="preserve">
<style type="text/css">
	.st0{fill:#FFFFFF;}
	.st1{fill:#00AB39;}
	.st2{fill:#D21034;}
</style>
<rect x="-46.7" y="-4" class="st0" width="733.5" height="489"/>
<rect x="-46.7" y="240.5" class="st1" width="733.5" height="244.5"/>
<g id="dragon" transform="translate(-59.512 8.2826)">
	<path d="M531.8,48.9c-1.9-0.3-3.8,0.1-5.9,1c-4.2,1.9-9.3,6.1-18.1,12.8c-19.8,15.1-42.3,17.1-69.1,17.7
		c-55.6,1.3-81.4,14.9-93.5,32.3c-12.2,17.4-10.6,38.3-12.1,53.9c-1,10.6-3,19.7-10.7,29.7c2.1-5.1,2.8-8.9,2.2-11.7
		c-0.6-3-2.3-4.9-4.2-6.6c-2-1.6-4.1-2.9-5.9-4.7c-1.3-1.4-2.2-3.3-2.7-5.6c2.2-1.4,4.9-1.5,7-0.2c2.6,1.6,4.4,5.2,3.1,10.7
		c0,0.2,0.2,0.4,0.3,0.5c0,0.1,0,0.2,0,0.3c0.2,0.2,0.5,0.2,0.8,0l0.1-0.1c0,0,0,0,0,0c5.4-5.7,7.7-10.4,8.1-14.4
		c0.4-4-1.2-7.4-3.3-10.2s-4.9-5.3-6.8-7.7c-1.9-2.3-3-4.5-2.5-7c0.9-0.9,1.7-1.5,2.4-1.8c1.6-0.6,2.9-0.2,4.1,0.9
		c1.2,1.1,2.1,2.9,2.7,4.8c0.6,1.9,0.8,4,0.5,5.5c0,0,0,0,0,0.1c-0.1,0.3,0,0.6,0.3,0.7c0.3,0.1,0.6,0.1,0.8-0.1c0,0,0-0.1,0.1-0.1
		c0,0,0,0,0-0.1c3.6-5.4,5-10.1,5.1-14.1c0.1-4.1-1.3-7.5-3.3-10.4c-2-2.9-4.5-5.3-6.7-7.4c-2.2-2-4.1-3.7-5.1-5.1c0-0.4,0-1,0-1.4
		c1.7-1.2,3.9-1.9,6-1.4c2.3,0.5,4.3,2.1,5.2,5.8c0,0,0.1,0,0.1,0c0,0.3,0.3,0.6,0.6,0.6c0.3,0,0.6-0.3,0.6-0.6v0
		c0.2-7.4-1.1-13.4-3.9-17.8c-2.5-4.1-6.3-6.9-10.8-8.4c0.2-0.3,0.4-0.6,0.6-0.9c1.5-2,3.6-4.4,5.7-7.1c4-5.4,7.9-12.3,7.1-20.8
		c0-0.1-0.1-0.1-0.1-0.2c0-0.1,0-0.2-0.1-0.2c-0.1-0.1-0.3-0.2-0.5-0.2c-0.1,0-0.1,0.1-0.2,0.2c-0.1,0-0.2,0.1-0.3,0.2
		c-3.8,4.9-10.6,6.4-17.8,7.4c0.8-1.5,1.9-3.5,2.8-5.9c1.1-2.7,1.9-5.5,1.5-7.5v0c0-0.1,0-0.1,0-0.2c0-0.2-0.1-0.3-0.3-0.4
		c-0.1-0.1-0.3-0.1-0.5-0.1c-0.1,0-0.1,0.1-0.1,0.1c-0.1,0-0.2,0.1-0.3,0.2c-4.4,4.8-12.7,7.6-19.9,9.6c-3.6,1-7,1.8-9.5,2.6
		c-1.3,0.4-2.3,0.8-3.1,1.2c-0.5,0.3-0.9,0.6-1.2,1c-5-1.1-9.8-1.8-14-2.1c-7.7-0.4-13.9,0.5-18.2,2.2c-2.1,0.9-3.8,1.9-4.8,3.2
		c-1.1,1.3-1.5,2.8-1.2,4.3c0.3,1.4,1.5,2.8,3.1,4.2c-11-4.5-20.4-6.3-28.1-6.4c-3.2,0-6.1,0.3-8.7,0.7c-5.2,0.9-9.3,2.6-12.3,4.3
		c-2.4,1.3-3.8,2.6-4.8,3.6c-0.1,0.1-0.3,0.1-0.4,0.2c0,0,0,0-0.1,0c0,0,0,0.1,0,0.2c0,0.1-0.2,0.2-0.2,0.2c0,0-0.1,0-0.1,0v0
		c0,0-0.1,0.1-0.2,0.2c-0.2,0.2-0.1,0.6,0,0.8c0.2,0.2,0.5,0.3,0.8,0.1c1.4-0.8,3-1.5,4.6-2.2c0.1,0,0.2,0,0.2,0
		c1.4,0,2.8,0.3,4.1,0.8c1.4,0.6,2.8,1.3,3.8,1.9c1,0.6,1.7,1.2,1.8,1.3c0,0,0,0.1,0.1,0.1c0.7,0.5,1.7,0.9,2.7,1.4
		c-2.1,4.4-2.9,10-2.8,18.2c-0.4,0.1-0.7,0.2-1.1,0.2c-2.2,0.3-5.2,0.5-8.4,0.3c-4.6-0.3-9.7-1.4-14.3-3.8c0.8,0.1,1.5,0.4,2.3,0.4
		c3.4,0.2,6.4-0.5,8.7-1.8c0.3-0.1,0.7-0.1,1-0.2c0.2-0.1,0.4-0.3,0.4-0.6c0-0.2-0.1-0.3-0.3-0.4c0-0.1,0-0.2-0.1-0.2
		c-3.3-1.3-21-9.4-36-28.3c0,0,0,0,0,0s0,0,0,0c-0.1-0.2-0.4-0.3-0.6-0.2c-0.3,0.1-0.5,0.3-0.5,0.6c0,0.1,0,0.2,0,0.2
		c0.7,9,3.5,31,21.8,48.6c0.2,0.2,0.5,0.2,0.7,0.1s0.3-0.4,0.3-0.6c-0.4-2.3-0.7-3.9-1.1-6.3c0,0-0.1,0-0.1-0.1c0-3-0.2-5.1-0.6-6.9
		c5.5,5,11.2,7.3,16.6,8c6.9,0.9,13.1-0.5,17.2-1.2c0.2,0,0.4-0.1,0.6-0.1c0.1,3.9-1.4,8.8-3.9,12.9c-1.4,2.3-3,4.3-4.7,5.7
		c-1.7,1.4-3.5,2.1-5.2,2h0c-0.3,0-0.5,0.3-0.5,0.6c-0.1,0.1-0.3,0.1-0.3,0.3c0,0.3,0.3,0.6,0.6,0.6c7.4,0,13.7,0.2,20.4-0.2h0
		c0.9-0.1,1.2,0,1.2,0c0,0.1,0,0.1-0.1,0.3c-0.4,0.8-1.9,2.2-3.5,3.8c-0.2,0.2-0.3,0.4-0.1,0.7c0.1,0.2,0.3,0.4,0.6,0.4
		c0,0,0.1,0,0.1,0c0.1,0.1,0.3,0.2,0.5,0.1c0.1,0,0.1-0.1,0.2-0.1c0.3-0.1,0.4-0.1,0.7-0.2c4.4-0.5,9.8-1.4,13.9-4.3
		c-0.1,0.4-0.2,1.1-0.4,1.4c-0.2,0.4-0.4,0.8-1,1.3c-0.1,0.1-0.2,0.2-0.3,0.3c-0.7,0.5-1.2,1-2.1,1.6c0,0-0.1,0-0.1,0.1
		c-0.2,0.1-0.3,0.4-0.2,0.6s0.2,0.4,0.5,0.5c0,0,0.1,0,0.2,0h0.1c0,0,0.1,0,0.1,0c4.6-0.5,12.6-4,18.4-10.1c3,0.4,4.9,1.9,6.2,3.3
		c0.7,0.8,1.2,1.5,1.8,2.1c0.2,0.2,0.5,0.3,0.8,0.4c0,0.3-0.2,0.6-0.2,0.8c0.1,0.6,0.5,1,1,1.3c-2.2,4-2.8,6.8-2.5,8.5
		c0.2,1,0.6,1.7,1.1,2.2c-2.9,2.1-5.3,4.4-6.5,6.4c-0.6,1.1-0.9,2.2-0.7,3.2c0.1,0.3,0.3,0.5,0.5,0.7c-0.2,0-0.4,0-0.7,0h0
		c-2.9,1.4-5.6,4.2-7.2,6.9c-0.7,1.4-1.2,2.7-1.1,3.9c0,0.5,0.3,1,0.6,1.4c-3.6,1.8-7,6-8.9,9.7c-0.9,1.9-1.5,3.7-1.4,5.1
		c0.1,0.7,0.4,1.4,0.9,1.7c-0.1,0.1-0.2,0.2-0.3,0.4c-0.1,0.1-0.1,0.1-0.2,0.1c-3.6,1.9-6.1,6.3-7.1,10.1c-0.5,2-0.7,3.8-0.4,5.2
		c0.1,0.5,0.4,0.9,0.7,1.2c-0.2,0.1-0.4,0.2-0.6,0.4c-1.1,1-1.9,2.1-2.2,2.5l0,0c-2.1,2.7-3.1,7.2-2.9,10.9c0.1,1.9,0.4,3.5,1.1,4.8
		c0.2,0.4,0.6,0.7,1,1c0,0-0.2,0.1-0.2,0.2l0,0c-2.1,2.7-3.1,7.2-2.9,10.9c0.1,1.9,0.4,3.5,1.1,4.8c0.3,0.6,0.8,1.1,1.4,1.4
		c0.3,0.1,0.6,0.1,1,0.1c-0.1,0.1-0.3,0.4-0.4,0.5c0,0,0,0,0,0.1c-0.3,0.3-0.6,0.8-0.8,1.3c-0.1,0.3-0.1,0.7-0.2,1
		c-1.3,2.7-2.4,1.2-3.1,0.2c-5.6-11.7-11.2-18.7-16.6-45.5c-1-4.7-11.4-12-14.3-30.9c-0.6-4.3,5.9-13.5-3-16.3c0,0,0,0-0.1,0
		c-6.1-11.5-18.5-7.1-20.5-3.3c-0.2,0.2-0.2,0.5,0,0.7c0.1,0.2,0.4,0.3,0.6,0.2c1.6-0.5,6.4,1.2,6.4,4.2c-2.7,6.3,0.6,11.5-1.1,11
		c-0.3-9.8-11-9.7-11.4-9.6c0,0,0,0,0,0l-4.8-0.6c-16,0.1-11.5,11.8-10.5,14.1c0.2,0.2,0.5,0.3,0.9,0.3c0.4,0,0.6-0.2,0.7-0.4
		c-0.7-4.4,2.8-4.6,6.5-2.9c2.3,8.9,7.2,9.2,7.9,9.2v0h0.1c6.6,1.3,8.7,5.8,8.8,8.4c-2.1-0.8-4.7-1.2-8.3-0.6
		c-2.4-2.5-7.1-3.3-8.6-3.7c-0.8-0.1-5.7,0.5-7.8,3.4l-0.8-0.1c-9.9,3.2-5.8,14.4-2.5,15.7c0.1,0.2,0.4,0.3,0.6,0.2
		c0.2-0.1,0.3-0.3,0.3-0.5c-1.5-3.4,0.6-5.3,3.2-4.2c3.8,4.2,8.5,5.9,18,0.5c0.1,0.1,3.4,1.5,6.8,2.8c-0.1,4,4.1,11,7.2,16.2
		c-1,4.1-2.6,8.1-3.5,9.6c0,0-0.1,0.1-0.1,0.1c-3.9,3-7.2,10-5.6,16.4c-1.2,3.1-5.6,4.8-5.6-1.2c-0.2-0.2-0.5-0.2-0.7-0.1
		c-0.2,0.1-0.3,0.4-0.3,0.6c-1.4,4,5.2,16.1,15.5,9.8l2.1-2.4c3.4,0,7-4.4,8.3-8.3c5.1,31.3,17.2,62.9,22.2,73.1
		c-3.7,11.5-14.6,11.1-18.2,7.3c0,0-0.1,0-0.1-0.1c-0.3-0.2-0.6-0.1-0.8,0.1c-0.2,0.3-0.2,0.6,0.1,0.8c6.6,6.7,10.3,8.8,16.8,8.8
		c14.4,0,19.4-9,20.5-12.8c12.1-2.6,21.4-10.5,24.9-11.1c0.5,0.5,1.3,1.3,1.8,1.7c2.9,2.3,5.3,3.6,7.4,3.8c1,0.1,2,0,2.8-0.5
		c0.8,1.7,2,3.1,3.6,4.2c-0.6,4.3-1.1,12.9-4.2,24c-3.2,11.4-9.1,25-20.6,37.9c-4.5,2-8.2-1.1-10.5-3c-2-1.6-7.1-7.1-8-10
		c-1.1-3.4-2.3-5.7-4.1-7.5c-1.8-1.7-4.7-2.3-7-2.6c0,0,0.9,0.2-0.1,0c-0.8,0.1-1.4,0-1.9,0.1c-7-5.5-13.9,3.8-13.1,9.6
		c0,0.2,0.2,0.5,0.5,0.5c0.3,0.1,0.6,0,0.7-0.2c0.9-2.2,3.7-1.6,5.1,0.3c-0.2,2.1-0.1,4.4,2.2,7.2c-2.2,0.2-5,0.8-8,4.2
		c-12,1.4-9.8,15.1-6.2,17.3c0.1,0.2,0.4,0.4,0.6,0.3c0.2,0,0.4-0.2,0.5-0.5c-3.9-5.1,1.6-7.3,4.4-5c0.7,2.2,3.9,4.3,6.6,5.6
		c-0.1,0.7-1,3.3-0.7,4.1c-12.9,7.1-0.9,19.4,2,18.6c0.2-0.1,0.5-0.1,0.7-0.2c0.2-0.1,0.3-0.4,0.2-0.7c-1.8-2.9-1.9-6.5,1.3-5.5
		c1.7,1.1,4.8,1.5,6.5,1.5c4.1,0.1,6.4-2.6,11.5-7.6c3-3,5.4-1.5,7.3-0.5c0.2,0.9,0.5,1.9,1.6,2.3c1.5,0.6,4.8,0.9,6.7,0.9
		c10.5-0.3,16.4-2.6,21.2-4.3c4.8-1.7,9.2-2.6,13.2-2.6c3.8-0.1,6.2,0.7,10.3,2.1c2.1,0.7,5.3,2.3,7,2.3c2.7-0.1,3.8-1.4,4.5-2.4
		c3.9-0.7,4.9,1,2.7,5.5c-0.1,0.3,0,0.6,0.3,0.7c0.2,0.1,0.5,0.1,0.7,0c4.1-1.7,16.3-13.4-0.2-20.1c-2.5-2.2-5.8-4.1-8.3-4.1
		c-2.5,0-5.1,1-7.7,1.6c-2.6,0.6-5.2,1.1-6.1,1.1c-3.4,0.1-3.5-2-3.9-5.7c-0.3-3.7,7.5-16.8,11-21.4c6.9-9.1,16.1-19.5,22.8-26.4
		c19.8-0.8,11.8,10.8,8.4,13.1c-0.3,0.2-0.4,0.5-0.2,0.8c0.1,0.3,0.4,0.4,0.7,0.3c0.1,0,0.1-0.1,0.2-0.1c7.2-1.9,13.9-6.8,16.2-11.4
		c0,0,5.2-9,0.8-16.6c-0.2-0.4-0.4-1-0.6-1.5c2.5-1.1,5.5-5.3,5.6-5.9c3.3,0.9,16,0.3,17.1-6.9c5.9,0.6,16.3-3.3,16.7-9.7
		c0.7,0.7,2.2,0.7,3.8,0.4c0.7,5.4,8.8,10.4,10.6,9.3c0.8,8.9,12,13.1,15.3,11.5c-0.6,2.2,7.7,6.2,11,6
		c-6.4,17.2-17.6,36.6-33.2,44.3c-4.2-0.4-10.2-3.2-12.8-5c-2.1-1.4-4.8-3.2-6.4-5.9s-1.6-2.6-3.3-4.3c-1.8-1.7-5.3-3.1-6.4-3
		c-0.8,0.1-2.2,0.7-3.4,1.5c-15.4-2.8-13.9,8.2-12.6,12.2c0,0.2,0.2,0.5,0.5,0.5c0.3,0.1,0.6,0,0.7-0.2c0-5.7,3.3-5.7,5-3.1
		c0,0.1-0.1,0.2,0,0.3c0.9,2,0.5,3.1,0.2,3.9c-1.7,0.2-3.4,0.6-5.4,2.1c-13.5-1.5-12.3,13.4-8,15.2c0.1,0.2,0.4,0.4,0.6,0.3
		c0.2,0,0.4-0.2,0.5-0.5c-2.4-3.6,3.7-9,5.1-2.5v0c-0.2,0.2-0.2,0.5-0.1,0.7c0.3,2.1,2.8,4.1,5,5.2c-0.4,0.6-1.2,1.2-1.4,2.3
		c-14.3,5-6.3,17.2-2.1,19c0.2,0.1,0.5,0.1,0.7,0c0.2-0.1,0.3-0.4,0.2-0.6c-1.3-1.8-0.8-6,5.1-5.3c0.5,1.7,3.1,2.5,5.1,2.5
		c4.1,0,11.5-5.5,15.4-7.6c3.7-2,9.7-1.3,11.3-1.2c0.8,0.7,2,1.3,4.7,1.3c14.3-0.2,16.8-7.9,31.2-7.7c6.5,0.1,21.8,7.8,26.7,0.7
		c2.2-0.8,3.4,1.1,0.8,3.8c-0.2,0.2,0,0.5,0.3,0.7c0.2,0.1,0.4-0.1,0.7,0c4.3,0.5,17-13.4,0.1-17.9c-0.1-0.1-0.1-0.3-0.3-0.4
		c-0.4-0.3-2.5-2.6-7.6-2.6c-5.2,0-8.8,2.4-10.6,2.9c-3.8,1.1-2.4-2-2-3c4.2-10.3,24.6-29.6,33.9-37.4c0.9-0.4,2-0.9,3.4-1.8
		c9.3-3.4,11.8,5.7,2.6,9c-0.4,0.4-0.4,1-0.1,1.5c0.3,0.5,0.8,0.7,1.3,0.6c21.5-5.7,18.3-17.5,18.3-17.6
		c0.8-12.2-13.7-17.3-16.1-18.4c-3.9-4.4-4.9-7-4.6-10.1c0.1-1.5,1.3-4.1,3.4-3c3.5,2.8,7.6,4.4,8.8,2.1
		c-2.5,2.8,14.6,13.1,16.3,8.8c1.7,7.3,14,6.9,16.3,4.9c3.6,6.9,16.2,5.1,16.1,3.9c-0.5,2.5,10.9,6.3,16.2,2.4l0.2,0.6
		c4.2,5.1,6.7,11.9,9.5,23.8c2.9,11.9,2.3,21.3-1.5,30.9c-0.2,0.3-1.2,0.4-2.4,0.3c-3.1-1.2-4.9-2.1-6.9-3.8c-2-1.6-4.3-3.8-6.1-6.3
		c-1.6-2.9-2.7-5.1-4.5-6.9c-1.8-1.7-4.8-2.5-7.1-2.7H514c-1,0.1-1.9,0.4-2.7,1c-11.5-3.6-17,8.6-15.7,12.6c0,0.2,0.2,0.5,0.5,0.5
		c0.3,0.1,0.6,0,0.7-0.2c1.2-3,6.5-4.5,8.4-1.7c0.3,1.2,0.2,2.1-0.1,2.7c-2.4,0.3-5.2,1-7.9,4.4c-13.5,0.9-8.9,14-6.1,17.5
		c0.1,0.2,0.4,0.4,0.6,0.3c0.3,0,0.5-0.2,0.5-0.5c-0.3-3.8,3.5-8.4,6.3-4.9c1.2,1.9,3.9,3.3,5.8,3.7c-15.4,7.1-4.4,17.3-0.2,19
		c0.2,0.1,0.5,0.1,0.7,0c0.2-0.1,0.3-0.4,0.3-0.6c-1.9-3-0.8-7.5,2.8-6.3c-0.1,2.5,5,4.2,7.4,4.2c4.1,0.1,8.4-3.3,12.3-5.4
		c3.7-2,12.5-2.1,14.3-2.1c5.9,5.6,17.2,4.2,23.5,2.2c6.7-2.1,11.8-5.9,17.1-6c7.2,0,12.7,8.7,19,1.3c4.1-2,5.3,3,3.3,6.2
		c-0.1,0.2,0,0.5,0.2,0.6c0.2,0.1,0.5,0.2,0.7,0c4.1-1.7,14.9-11.7,0.2-18.8c0.7-1.9-5.7-7.5-11.1-7.5c-6.6,0-16.6,10.1-20.5-10
		c-1-4.8-3.7-39.8-3.9-43.2c1.3-0.8,3-1.8,4.3-1.8c1.5-0.1,3-0.2,4.4,2.1c1.5,2.3,2.6,5.8-1.1,10.6c0,0.1,0.1,0.1,0,0.2
		c0,0.1-0.1,0.2-0.1,0.3c0,0.1,0.1,0.1,0.1,0.1c0,0.1,0,0.1,0,0.2c0,0,0.1,0,0.2,0c0,0,0,0.1,0.1,0.1c0.2,0.1,0.5,0,0.6-0.2
		c9.1-9.1,11.3-18.8,8.9-25.4c-2.4-6.7-9.1-11.6-14.5-11.7c-6.5-0.2-13.7-4-19.9-9.7c-6.2-5.7-10-12.3-12.5-18.3
		c-0.4-1.1-1.1-2.2-1.6-3.3c39.9-13.8,51.3-45.5,51.3-65c0-13.5-5.5-25-13.5-33.4c-0.1-3.2,0.7-7.4,2-11c0.7-2.1,1.6-3.9,2.2-5.2
		c0.3-0.6,0.5-1,0.8-1.3c0.2,0.8,0.4,1.5,0.8,2.7c0.7,1.7,1.6,3.6,2.6,5.6c2,4,4.4,8,6.5,9.8c0.2,0.1,0.4,0.2,0.6,0.1
		c0.2-0.1,0.4-0.3,0.4-0.5c1.6-19.6,8.4-48.4,30.2-74.9c0,0,0,0,0,0c0,0,0,0,0,0c0.1,0,0.1-0.1,0.2-0.1c0.3-0.1,0.4-0.4,0.3-0.7
		c-0.1-0.3-0.4-0.5-0.7-0.4c0,0-0.1,0-0.1,0c0,0,0,0,0,0c-5,2.4-9.5,4.7-13.6,6.9c-35.6,19-42,31.8-61.6,47
		c-0.2,0.2-0.3,0.5-0.2,0.7c0.1,0.3,0.4,0.4,0.6,0.4c9.7-0.5,18.1-2.6,25.7-6.5c-2,3.2-4.2,7-6.4,10.4c-1.3,2-2.5,3.8-3.5,5
		c-0.5,0.6-0.9,1-1.3,1.2c-0.2,0.1-0.2,0.1-0.3,0.1c-5.3-2.5-10.7-3.9-16-3.9c-19.6,0-33.2,13-33.3,28.8c-0.1,16.9,13,29.4,26,28.8
		c4.5-0.2,10.5-1.4,15.9-4.9c3.9-2.6,7.3-6.5,9.3-12c0,0.5,0.1,0.9,0.1,1.3c0,9.1-3.5,15.2-9.1,19.5c-5.6,4.2-13.7,6.4-22.6,6.6
		c-8.8,0.2-17.8-4.6-30.5-9.7c-12.7-5.1-29.1-10.5-52.5-10.9c-7-0.1-13.7,0.6-19.3,3.5c-0.4,0.2-0.7,0.5-1,0.7
		c3-3.6,6.6-6.8,10.9-9.1c10.2-5.6,23.2-7.1,34.8-2.3c1.2,0.6,2.7,1.3,3.8,1.8c0.9,0.4,1.4,0.4,2.2,0.6c0.2,1.4,0.2,2.5,0,3
		c-0.1,0.3-0.3,0.4-0.5,0.5c-0.1,0-0.3,0.1-0.4,0.1c-0.2,0-0.5,0.1-0.9,0c-0.2,0-0.4,0-0.6,0.2c-0.1,0.2-0.2,0.4-0.1,0.6
		c0,0.3,0.1,0.5,0.3,0.6c0.2,0.1,0.3,0,0.5,0.1c0.9,0.9,1.9,1.4,2.9,1.1c1.2-0.3,2.2-1.2,3-2.4c0.8-1.1,1.4-2.5,1.7-3.7
		c0-0.1,0-0.2,0-0.4c1-1.1,1.7-2.7,1.4-4.5c-0.3-1.9-1.9-3.9-5-5.6c-0.1,0,0-0.1-0.1-0.2c-0.1-0.1-0.7-0.7-1.2-1.8
		c-0.5-1.1-1-2.6-1.4-4.3c-0.8-3.4-1-7.8,0-12.2c1.9-8.7,8.3-17.4,25.9-19.1c0.1,0,0.1-0.1,0.2-0.1c3.4,0.7,6.4,1.1,8.7,1.1
		c0.4,0,0.6-0.1,1-0.1c0.2,0.2,0.3,0.3,0.5,0.6c0.3,0.5,0.4,1,0.3,1.6c-0.1,0.5-0.5,1.1-1,1.8c0,0,0,0-0.1,0c-0.2,0-0.4,0.2-0.4,0.4
		c-0.1,0.2,0,0.4,0.1,0.6v0v0h0v0c0.1,0.2,0.2,0.4,0.5,0.4c0.2,0,0.5-0.1,0.7-0.1c1.1,0.3,2.1,0.3,3-0.3c1.2-0.8,2.2-2.3,2.8-3.8
		c0.6-1.6,0.8-3.3,0.3-4.8c-0.4-1-1.2-1.7-2.3-2.2c-13.9-14.5-13.3-32-7.8-46.8c2.7-7.4,6.7-14.1,10.7-19.1c4-5,8.4-8.6,10.5-9.4
		c0.1,0-0.1,0.1,0,0c0.9,0,1.8,0.1,2.6-0.1c1.2-0.4,2.3-1,3.3-1.7c0,0,0,0.2,0.1,0.2c0.3,0.1,0.6,0,0.8-0.3l0,0
		c0.1-0.1,0.3-0.2,0.5-0.2c0.5-0.2,1-0.2,1.4-0.2c0.2,0,0.3,0.1,0.4,0.2s0.1,0.1,0.1,0.2c0,0.3-0.1,1.1-0.8,2.3c0,0,0,0,0,0v0v0
		c-0.1,0.2-0.1,0.3,0,0.5c0,0,0,0,0,0v0c0,0,0,0,0,0c0,0,0,0.1,0,0.1c0,0,0,0,0,0c0,0,0,0,0,0c0,0,0.1,0.1,0.1,0.1c0,0,0,0,0.1,0
		c0,0,0,0,0.1,0c0,0,0,0,0.1,0c0,0,0,0,0.1,0c0.1,0,0.1,0,0.2,0c0,0,0.1-0.1,0.1-0.1c0,0,0,0,0,0c1.1-0.2,2.2-0.9,3.1-1.9
		c1.1-1.1,1.9-2.6,2.3-4c0.4-1.5,0.4-3.1-0.7-4.2c-0.9-0.9-2.5-1.3-4.7-1.3c-0.4-0.9-1.1-1.6-2-2c-0.9-0.4-2-0.5-3.3-0.4l-0.8-0.2
		C535.6,50.1,533.7,49.2,531.8,48.9L531.8,48.9z M227.4,111.6c4.1,0,8.2,0.7,12,2.4c-0.8,0.7-1.8,1.2-3.1,1.4
		c-2.4,0.5-5.3,0.4-8.2-0.2c-2.8-0.5-5.5-1.5-7.3-2.4c-0.6-0.3-0.8-0.5-1.2-0.8C222.2,111.8,224.8,111.6,227.4,111.6L227.4,111.6z
		 M546.4,172.8c1.5,0,3.1,0.4,4.8,1c1.2,0.5,2.5,1.2,3.7,1.9c-0.2,0.2-0.3,0.5-0.4,0.7c-2.2,7.8-6.2,10-9.5,10
		c-3.3-0.1-6-2.5-6.1-5.8c0-4.1,1.4-6,3.6-7C543.5,173,544.9,172.7,546.4,172.8L546.4,172.8z M317.6,193.4c0.9-0.1,1.6,0,2.2,0.5
		c0.6,0.5,1.1,1.3,1.3,2.8c0,0.1,0.1,0.1,0.2,0.2c0,0.2,0,0.4,0.3,0.5c0.1,0,0.1,0,0.2,0c-1.1,1.3-2.1,2.6-3.4,4
		c-2-0.8-3.8-2.1-5.2-4.3C314.3,195.1,316,193.7,317.6,193.4L317.6,193.4z"/>
	<path class="st2" d="M532.1,51c-7.4,7.4-14.8,12.7-25.2,19c-18.3,11.2-39.7,14.1-66.5,15.5c-54.1,2.8-78.1,13.4-89.2,28.6
		c-11.1,15.2-9.2,34.7-12.1,55.2c-0.9,6.4-2.8,14-6.3,20.5c-2.9,5.5-7,10-12.4,12.5c15-13.6,15.1-26.9,16.4-34.7
		c2.3-14-0.3-33.9,10.6-50.8c10.9-16.9,35.2-31.2,91.6-33.3c23.3-0.9,37.5-3.1,47.3-6.1c9.9-2.9,15.4-6.5,21-10
		c5.9-3.6,10.7-9,15.4-12.6c2.3-1.8,4.7-3.2,7-3.7C530.5,50.9,531.3,51,532.1,51z M538.7,54.1c1,0,1.9,0,2.3,0.2
		c0.5,0.2,0.7,0.5,0.9,0.9c0.3,0.7-0.1,2.2-1.1,3.7c-1,1.4-2.6,2.7-4.3,3.2c-1.7,0.5-4.7-0.8-5.1-1.2c-0.2-0.2-0.5-0.2-0.8-0.2
		c-0.3-0.3-0.6-0.7-0.9-1c-0.1-0.2-0.3-0.2-0.5-0.2c-0.1,0-0.2,0.1-0.3,0.2c-26.7,24.4-49.5,29.1-87,31.7
		c-12.8,0.9-32.8,3.3-50.1,7.7c-8.6,2.2-16.6,4.8-22.7,8c-6.1,3.2-10.3,6.9-11.2,11.4c0,0.2,0,0.4,0.2,0.5c0.1,0.1,0.3,0.2,0.5,0.2
		c0.1,0,0.2,0,0.2,0c0.3,0.4,0.6,0.6,1.1,0.5c3.2-0.3,12.4-0.3,24.7,0.2c12.4,0.5,28.1,1.4,44.6,3c31.8,3,66.7,8.5,87.4,17.4
		c0.4,0.5,0.8,1,1.2,1.5c0,0,0,0,0,0c-0.5,0.3-1.8,0.5-3.7,0.3c-3.7-0.3-9.6-1.7-16.8-3.5c-14.3-3.7-33.6-9.1-51.3-10.9
		c-30.2-3.2-48.3-7.3-89.6-7.4c0,0-0.1,0-0.1,0c0,0-0.1,0-0.1,0c-0.2,0.1-0.2,0.2-0.4,0.3c-0.1,0.1-0.3,0.3-0.5,0.5
		c-0.4,0.4-0.9,1-1.3,1.7c-0.9,1.4-1.6,3.5-1.2,6c0,0.2,0.1,0.4,0.3,0.5c0.1,0,0.2,0,0.3,0.1c0.1,0.1,0.1,0.4,0.3,0.4
		c3.5,0.6,11.6,3.1,22,6.9c10.4,3.7,23.1,8.6,36.4,14.1c25.8,10.7,53.4,23.5,68.9,33.5c1.1,0.9,2.7,2,3.4,3.1
		c0.2,0.3,0.4,0.5,0.4,0.7c0,0.2,0,0.3,0,0.4c-0.1,0.1-0.7,0.4-1.4,0.6c-6.1-1.3-15.8-6.6-27-13.1c-12.2-7.1-26.2-15.4-39.3-20.8
		c-23-9.5-50.9-21.8-64-24.7c0,0-0.1,0-0.2,0c-0.2,0-0.2,0.2-0.3,0.4c-0.1,0-0.2,0-0.3,0c-0.1,0-0.1,0.1-0.2,0.1
		c-0.9,0.6-1.6,1.3-1.9,2.1c-0.3,0.8-0.2,1.7,0.2,2.6c0.8,1.8,2.7,3.8,5.5,6.7c5.6,5.7,15.1,14.8,27.2,30.4
		c20.9,27,30.7,40.1,34.9,46.6c2.1,3.3,2.8,4.9,2.8,5.5c0,0.3,0,0.4-0.1,0.5c-0.1,0.1-0.3,0.2-0.6,0.4c-1.7-0.1-2.7-0.4-3.6-1.3
		c-1-1-2.1-2.7-3.7-5.4c-3.2-5.5-8.6-15.2-21.1-31.6c-7.6-10-16.8-20.6-24.6-29.5c-7.7-8.8-13.9-15.8-15.8-18.4
		c0-0.1-0.1-0.3-0.1-0.4c-0.1-0.1-0.2-0.3-0.3-0.3c-0.4-0.1-0.8-0.1-1.1,0.1c-0.3,0.2-0.5,0.5-0.7,0.8c-0.4,0.7-0.6,1.6-0.9,2.7
		c-0.6,2.2-1.1,5.3-1.6,8.6c-0.4,3.2-0.7,6.6-0.9,9.4c-0.2,2.7-0.3,4.6-0.2,5.6v0v0v0.2c0,0.1,0.1,0.2,0.1,0.3
		c0.5,4.7,2.6,8.6,5.2,14.1c2.7,5.7,6.1,13.1,9.1,24.8c2.5,9.9,5.1,20.1,6.3,27.9c0.6,3.9,0.9,7.2,0.7,9.5c-0.1,1.2-0.3,2.1-0.6,2.6
		c-0.3,0.6-0.6,0.8-1.1,0.9h0c-0.7,0.2-1,0.1-1.2-0.2c-0.3-0.3-0.5-1-0.7-2.1c-0.4-2.2-0.5-6.1-1.1-11.8c-1.2-11.4-4.4-30-15.3-58.4
		c0-0.1,0-0.1-0.1-0.2c0-0.1-0.1,0-0.1-0.1c-0.1-0.1-0.1-0.2-0.2-0.3c-0.1,0-0.1,0-0.2,0c0,0-0.1-0.1-0.1-0.1c0,0,0,0.1-0.1,0.1
		c-0.1,0-0.2,0-0.3,0c-0.1,0.1-0.3,0.2-0.3,0.3c-0.2,0.3-0.4,0.6-0.6,1c-0.4,0.9-0.9,2.1-1.5,3.7c-1.1,3.1-2.5,7.6-3.8,12.8
		c-1.7,6.9-3.3,15.2-4.1,23.6c-0.1-1.2-0.1-2.1-0.1-3.3c-0.1-3-0.1-5.9,0.1-8.4c0.1-1.2,0.3-2.3,0.6-3.2c0.1-0.4,0.2-0.7,0.4-1
		c0.2-0.5,0.4-1,0.6-1.3c0,0,0,0,0-0.1c0,0,0-0.1,0-0.1c0.1-0.2,0.1-0.5,0-0.6c0,0-0.1,0-0.1,0c-0.1-0.1-0.3-0.3-0.5-0.2
		c-0.1,0-0.2,0.1-0.3,0.1c-4.8,4.6-7.9,7.9-10.3,13.1c-1.2,2.5-2.1,5.5-3,9.2c0.1-2.5,0.2-4.8,0.4-6.6s0.4-3.3,0.6-3.8
		c0.1-0.2,0.1-0.5-0.1-0.7c-0.2-0.2-0.4-0.2-0.6-0.1c-0.1,0-0.1,0.1-0.2,0.2c0,0-0.1,0-0.1,0c0,0-0.1,0-0.1,0
		c-3,1.4-7.5,4.5-11.2,8.4c-1.8,1.8-3.3,3.9-4.5,6c0.9-3.9,1.8-5.4,2.7-7c0.3-0.3,0.5-0.6,0.8-1c0.1-0.2,0.1-0.4,0-0.6
		c-0.1-0.1-0.2-0.1-0.3-0.2c0,0,0,0,0,0c-0.1,0-0.1-0.1-0.2-0.1c-0.1,0-0.1,0-0.2,0c-0.1,0-0.2-0.1-0.3-0.1c-0.1,0-0.1,0.1-0.2,0.1
		c-16.7,1.5-26.9,7.8-32.8,14.9c-3.9,4.7-5.9,9.7-6.9,13.9c0.7-10.8,7.2-20.9,16.5-24.6c5.3-2.1,12.4-3.1,18.9-4.2
		c6.2-1.1,11.7-2.4,14.5-5.5c7.6-2.6,13.1-9.8,17-17.4c3.9-7.7,6.1-15.7,6.8-20c3.3-18.3,0-37.6,10.1-52.7
		c5.1-7.6,13.4-14.1,27.8-19.1s34.7-8.3,63.5-9.3c23.3-0.8,37.4-3.8,47.2-7.4c9.7-3.6,15.1-7.9,20.8-11.2c3.2-1.9,8.7-6.6,14.5-10.5
		c2.9-2,5.9-3.7,8.6-4.9C536.5,54.6,537.6,54.3,538.7,54.1L538.7,54.1z M313.8,57.1c-0.9,2.2-2.1,4.4-3.4,6.2c-1,1.4-2,2.6-2.8,3.4
		c-0.4,0.4-0.7,0.7-0.9,0.9c0,0,0,0.1-0.1,0.1c0,0,0,0,0,0c0,0-0.1,0-0.1,0c0,0,0,0,0,0c-0.1,0-0.1,0.1-0.1,0.2
		c-4.1,0.5-8.2,1.1-11.5,2.5c-0.5,0.2-0.8,0.5-1.2,0.8c-2.5-0.9-4.7-1.3-7-2c0,0,0,0,0,0c0.1-0.3,0.4-0.6,1.1-1
		c0.7-0.4,1.6-0.7,2.8-1.1c2.3-0.7,5.5-1.4,8.8-2.3C304.6,63.4,310.3,61.1,313.8,57.1L313.8,57.1z M545.5,57.1
		c0.6,0.1,1,0.3,1.3,0.5c0.6,0.4,0.8,1.1,0.7,1.9c-0.1,0.7-0.6,1.6-1.2,2.4c0.1-0.6,0.3-1.2,0-1.7c-0.5-1-1.6-1.5-2.8-1.7
		c0.2-0.5,0.5-0.9,0.6-1.4C544.7,57.1,545.2,57.1,545.5,57.1L545.5,57.1z M329,62.5c-2.1,10.9-7.9,17.7-13.6,22
		c-3.1,2.3-6.1,4-8.3,5.3c-1.1,0.6-2.1,1.1-2.8,1.6c-0.3,0.2-0.6,0.5-0.8,0.8c-0.2,0.3-0.4,0.6-0.4,1c0,0.3,0.3,0.6,0.6,0.6
		c1,0,3.4,0,5.8-0.1c0.9,0,1.3,0,2,0c2.8,5.8,3.9,14.1,3.7,23.5c-0.2,10.2-1.8,21.5-4.1,32.5c-2.3,11-4.9,23.2-4.9,33.8
		c0,5.3,0.7,10.1,2.6,14.2c1.5,3.3,3.8,6.1,6.9,8.2c-0.6,0.9-1.6,1.7-3.2,2.3c-1.9,0.7-4.4,1.3-7.1,1.7c-5.5,0.9-11.8,1.4-16.5,2.8
		c-3.1,0.9-10,4.5-15.3,10.8c-4.4,5.3-7.4,12.7-6.1,21.9c-0.1,0.2-0.1,0.4-0.1,0.5c0.1,0.3,0.2,0.5,0.3,0.8c0.3,1.4,0.3,2.7,0.8,4.2
		v0c0.1,0.3,0.4,0.5,0.8,0.4c0.3-0.1,0.5-0.4,0.4-0.7c0,0,0-0.1,0-0.1c0-0.1,0-0.2,0-0.3c-0.1-0.5-0.1-0.9-0.2-1.4
		c1.1,0.6,2.6,0.9,4.4,0.9c-2.2,5.1-3.8,10.8-4.8,17c-1.1-1.7-2.8-3.3-5-4.8c0.2-0.7,0.3-1.4,0.3-2.1c0-3.5-2.3-7.6-7.5-12.4
		c0.4-0.6,0.7-1.2,1-1.9c1-3.1,0.3-7.1-2.7-12.4c1.9-3.2,2-7.9-0.8-15.1c0,0-0.1,0-0.1-0.1c0.3-0.3,0.6-0.5,0.8-0.7
		c2.3-2.8,2.9-7.2,1-13.9c0,0,0,0,0,0c0.5-0.4,1-0.7,1.4-1.2c2.2-2.6,3.1-6.8,2.1-13.3c0.8-0.4,1.6-0.9,2.3-1.6
		c2.1-2.3,2.9-6.2,2.4-12.5c1.5-0.5,2.9-1.2,3.9-2.4c2-2.2,2.9-5.6,2.2-10.7c1-0.5,2-1,2.8-1.9c1.8-2.1,2.8-5.5,2.5-10.5
		c0.7-0.3,1.4-0.6,1.9-1.1c1.2-1.3,1.5-3.3,1.5-6.1c0-2.4-0.3-5.9-0.5-9.8c0.9-1.4,1.6-3,1.8-5c0.4-3.1,0-6.9-1.2-11.7
		c1.5-3.7,2.5-8,2.2-13.2c1.1,0.4,2.4,0.6,3.9,0.3c1.8-0.3,4-1.4,6.7-3.3c0.1-0.1,0.1-0.1,0.2-0.1c0,0,0.1,0,0.1-0.1
		c0.3-0.2,0.3-0.5,0.2-0.8c-0.2-0.3-0.5-0.4-0.8-0.2c0,0,0,0.1-0.1,0.1c-0.7,0.3-1.3,0.8-1.8,1.1c-0.5,0.3-0.9,0.4-1.2,0.3
		c-2.7-1-3.3,0.2-10.9-6.1c-0.1-0.1-0.3-0.2-0.4-0.2c-0.2,0-0.4,0.1-0.5,0.3c-0.1,0.2-0.1,0.4,0,0.6c0,0.1,0.1,0.2,0.1,0.3
		c0,0,0,0,0,0c0.7,1.5,2.1,3,3.5,4.2c0.6,0.5,0.9,0.6,1.4,1c-1.7-0.4-3.1-1-4.3-1.5c-0.2-0.1-0.5-0.1-0.7,0.1
		c-0.2,0.2-0.2,0.5-0.1,0.7c3.3,7.7,0.9,16.9-4.8,23c-5.6,6-14.4,8.9-24,4.3c-0.1-0.2-0.4-0.4-0.6-0.3c-0.1,0-0.2,0.1-0.3,0.3
		c0,0-0.1,0-0.1,0c-1.3,2.2-2.4,4.3-4.8,6.5c-1.5,1.4-3.7,2.8-6.4,4.4c1.2-1.1,2-2.2,2.6-3.3c1.1-2.2,1.1-4.4,1-7.1
		c0-0.3-0.2-0.5-0.5-0.6c-0.3-0.1-0.6,0.1-0.7,0.3c-1.7,3.2-7,7.9-15.7,11.1c3.6-3,6-6.3,6.2-9.5c0-0.3-0.1-0.5-0.3-0.6
		c-0.2-0.1-0.5-0.1-0.7,0.1c-4.8,4.2-13.1,5.6-21.3,6.1c1.8-0.9,3.5-2.1,5.1-3.8c3.1-3.4,5.6-8.5,7.2-15.3
		c5.7,3.3,10.8,4.4,15.2,4.1c5-0.3,9-2.2,11.8-3.9c-0.1,1.2-0.1,2.3-0.2,3.8c0,0.3,0.2,0.6,0.5,0.6c0.3,0.1,0.6-0.1,0.7-0.4
		c2.7-6.4,4-10.3,3.6-13.7c-0.4-3.3-2.5-5.8-6.2-9.1c-0.1-0.1-0.3-0.2-0.5-0.2c-0.3,0-0.5,0.3-0.5,0.5c-0.1,0.8-0.1,1.6-0.2,2.4
		c-7.4-0.4-15.4-7.5-31.6,4.7c-0.4-7.1,0-11.7,1.9-15.5c0.8,0.1,1.5,0.1,2.3,0c1.5-0.3,3-1.1,4-2.8c1-1.5,1.6-3.7,1.8-6.7
		c9.7,0.4,20.7,2.2,32.7,5.7c0,0,0.1,0,0.1,0c0.3,0.1,0.6-0.1,0.7-0.4c0-0.1,0-0.1,0-0.2c0,0,0.1,0,0.1,0c0.1-0.3,0-0.6-0.3-0.7
		c0,0,0,0-0.1,0c0,0,0,0-0.1,0c-2-0.8-3.5-1.6-4.8-2.5c-0.8-0.7-1.6-1.6-1.8-2.4c-0.6-1.9,0.3-3.9,3-5.6c5.4-3.3,18.2-4.5,38.9,2.4
		c-0.8,1-1.5,2.1-1.9,3.5c-0.1,0.3,0,0.6,0.2,0.7c0.2,0.2,0.6,0.1,0.8-0.1c6-5.8,14.2-6.8,22.2-8C317.5,69.9,324.4,68.2,329,62.5
		L329,62.5z M323,71.9c-0.1,0-0.2,0.1-0.3,0.2c-5.2,4.1-9.7,5.4-14.8,6.3c-4.2,0.6-6.1,2.2-7.2,2.9c-0.3,0.2-0.5,0.3-0.6,0.3
		c-0.2,0-0.3,0.1-0.4,0c-0.3-0.1-0.9-0.6-1.9-1.6c-0.2-0.2-0.5-0.2-0.7-0.1c-0.2,0.1-0.4,0.4-0.3,0.6c0,0.1,0.1,0.2,0.1,0.3
		c0,0,0,0,0,0c0.2,1,0.8,2.3,1.6,3.7c0.4,0.8,0.9,1.5,1.3,2.1c0.4,0.6,0.8,1.1,1.2,1.3c0.1,0.1,0.3,0.1,0.5,0.1
		c0.2-0.1,0.3-0.2,0.4-0.3c1.6-3.5,3-5.5,4.2-6.6c1.2-1.1,2-1.3,2.8-1.1c0.7,0.1,1.4,0.7,2.1,1.2c0.3,0.3,0.6,0.5,0.9,0.7
		c0.3,0.2,0.7,0.4,1.1,0.3c0.2,0,0.3-0.1,0.4-0.2c1.9-2.7,5.5-5.5,9.9-9c0.2-0.2,0.3-0.4,0.2-0.7C323.5,72.1,323.3,71.9,323,71.9
		L323,71.9z M159.3,73.6c7.1,10,16.4,19.4,29.8,26.4c-5.5,0.5-9.6-0.6-13.1-2.8c-4.5-2.9-7.8-7.6-11.1-12.7c0,0,0-0.1,0-0.1
		c-0.1-0.2-0.4-0.3-0.6-0.3c-0.2,0-0.3,0.2-0.4,0.3c-0.1,0.2-0.1,0.4,0,0.5c0,0,0,0,0,0c4.4,9.5,8,13.8,10.3,17c2,2.9,2.9,4.8,2.5,9
		c-5.4-4-9.6-11-12.4-18.3C161.3,85.4,159.9,78.3,159.3,73.6L159.3,73.6z M519.3,74.3c-3.5,4.9-7,10.7-9.4,17.4
		c-5,13.6-6.1,30.1,3.6,44.4c-21.5-8.1-54.1-13.1-84.1-15.9c-16.6-1.6-32.3-2.5-44.8-3c-11.2-0.4-18.3-0.4-22.4-0.2
		c1.9-3.4,6.5-6.6,13.1-9.3c7.2-3,16.5-5.5,25.9-7.5c18.7-4,37.8-6,41.8-6.1c29.7-1,50.6-7,64.8-13.6
		C512.3,78.5,516,76.4,519.3,74.3L519.3,74.3z M253.5,76.5c-1-0.1-2.1,0-3.5,0.3c-0.3,0.1-0.5,0.3-0.5,0.6c0.1,0.9,0.5,1.6,1.1,2.1
		s1.3,0.8,2,1.3c1.5,0.9,3.1,2.1,4.4,5.4c0.1,0.2,0.3,0.4,0.5,0.4c0.2,0,0.5-0.1,0.6-0.3c0.2-0.5,0.3-0.9,0.4-1.2
		c0-0.1,0.1-0.1,0.1-0.1c0.2,0.2,0.4,0.4,0.8,0.8c0.2,0.2,0.5,0.5,0.9,0.6c0.4,0.1,0.9,0.1,1.4-0.1c4.8-1.5,8.1-2.2,10.4-2.4
		c2.3-0.2,3.5,0.2,4.5,1.1c0.2,0.2,0.6,0.2,0.8,0c0.2-0.2,0.2-0.5,0.1-0.8c0-0.1-0.1-0.1-0.1-0.1c-2.4-3.5-4.8-4.7-7.3-5
		c-2.5-0.3-5,0.2-7.8-0.3c-2.9-0.5-4.5-1.3-6.1-1.8C255.3,76.8,254.5,76.6,253.5,76.5L253.5,76.5z M254.2,78.3
		c1.3,0.2,4.3,1.3,5.4,1.3c-0.7,2.6,0.7,3.7,2,4.3C257.8,84.5,254.3,78.8,254.2,78.3L254.2,78.3z M216.6,78.4
		c0.1,1.2,0.2,3.1-0.4,4.6c-0.3,0.9-0.8,1.6-1.6,1.9c-0.8,0.3-2,0.3-3.8-0.5c0,0,0,0,0,0c-1.2-0.6-4.8-2.4-8.6-3.4
		c-0.9-0.2-1.8-0.2-2.7-0.3C204.3,79.2,210,78.4,216.6,78.4L216.6,78.4z M267.7,80.2c1.9-0.2,3.5,0.9,1.7,1.9
		c-1.8,1-4.9,2.4-6.8,1.8c1.8-0.1,2.4-2.2,1.6-3.5C263.5,80.2,265.8,80.4,267.7,80.2z M276.3,86.5c-3.3-0.1-5.3,0.1-6.9,0.5
		c-1.6,0.4-2.6,1.1-3.8,2c-0.2,0.1-0.3,0.4-0.3,0.6c0,0.2,0.3,0.4,0.5,0.5c1.2,0.2,1.8,0.4,2.1,0.5c0.1,0.1,0.1,0.1,0.2,0.2
		c0.1,0.1,0.2,0.3,0.3,0.6c0.1,0.2,0.3,0.4,0.5,0.4c0.2,0,0.5-0.1,0.6-0.3c0.8-1.7,1.6-2.6,2.5-3c0.9-0.4,2.2-0.6,3.9-0.6
		c0.1,0,0.2,0,0.3,0v0c0,0,0,0,0,0c0.3-0.1,0.5-0.3,0.5-0.6C276.8,86.7,276.6,86.5,276.3,86.5C276.3,86.5,276.3,86.5,276.3,86.5
		C276.3,86.5,276.3,86.5,276.3,86.5L276.3,86.5z M620.8,91.1c-23.1,26.5-28.6,55.2-30.1,64c-3-5.3-6.8-11.1-4.5-18.4v0
		c5.5-13.3,7.4-15.5,22.1-34.5c0,0,0,0,0,0c0.2-0.3,0.2-0.6-0.1-0.8c-0.2-0.2-0.6-0.2-0.8,0c0,0,0,0,0,0c0,0,0,0,0,0
		c-0.1,0.1-0.1,0.1-0.2,0.2c0,0,0,0,0,0c-15.8,13.2-22.9,22.2-29.1,28.1c-5.8,5.6-10.9,8.5-21.4,10.1
		C575.9,123.4,584.8,108.6,620.8,91.1L620.8,91.1z M317.3,93.3c0.2,0.1,0.2,0,0.3,0.1c1.5,0.6,3.5,1.5,5.4,3.1
		c3.1,2.5,6,6.8,7.2,13.6c-1.1-1.7-2.6-2.9-4.2-3.6c-2.6-1-5.3-1-7-1c-0.2-1.4-0.2-3-0.5-4.3c2.1-0.1,4.2-0.1,6.3,2.1
		c0.2,0.2,0.6,0.2,0.8,0c0.2-0.2,0.3-0.6,0.1-0.8c0,0,0,0,0,0c-2.7-3.6-5.4-5.4-7.8-5.4C317.7,95.8,317.5,94.5,317.3,93.3
		L317.3,93.3z M175.5,99.4c0.4,0.2,0.9,0.4,1.4,0.6c6.9,5,12.7,7.9,18.4,8.9c5.9,1,11.6,0,18-2.3h0c1.3-0.6,4-1.2,7.1-1.7
		c3.1-0.5,6.8-0.8,10.5-0.8c3.6,0,7.2,0.2,10.1,1c2,0.5,3.4,1.3,4.5,2.2c-5.7-1.2-11.1-1.6-17.7-1.3c-0.2,0-0.3,0.1-0.4,0.2
		c-0.2,0.2-0.5,0.4-0.4,0.8c0,0.2,0.2,0.5,0.4,0.6s0.3,0.1,0.4,0.1c0.5,0.1,1,0,1.8-0.1c1.6-0.2,3.8-0.5,6.1-0.3
		c2.3,0.2,3.4,0.3,8.5,1.9c0.4,0.4,0.6,0.9,0.7,1.4c-0.2-0.1-0.4-0.1-0.7-0.2c-0.6-0.2-1.4-0.4-2.4-0.6c-2-0.4-4.8-0.9-8-1.3
		c-6.3-0.7-14.1-0.9-20.2,1h0c-5.3,2.2-12.4,3.3-19.3,2.1c-6.5-1.1-12.8-4.3-17.7-10.2C176.3,100.7,175.9,100.1,175.5,99.4
		L175.5,99.4z M599.6,110.4c-12.4,15-18.9,27.7-22.3,36.5c-2,5.3-3.1,9.3-3.9,11.6c-0.4,1-0.7,1.5-0.9,1.7c-1.6-1.3-3.2-2.5-4.9-3.6
		c0-0.6,0.1-1.2,0.4-2.2c0.5-1.3,1.2-3,2.2-4.9c1.9-3.8,4.9-8.7,8.5-13.9C584.2,127.7,591.4,118.7,599.6,110.4L599.6,110.4z
		 M319.4,118.3c3.9,2.6,7.7,5.7,9.8,10.2c1.7,3.6,2.3,8.2,1,14.2c-0.4-2.9-1.6-5.4-3.4-6.9c-1.6-1.3-3.5-2-5.5-2.1
		c-1.3,0-2.6,0.4-3.9,1.1c0.4-2.3,0.7-4.5,1-6.6c0.5-0.1,1.3-0.2,2.2,0.2c1.1,0.4,2.3,1.1,3.5,1.9c1.2,0.8,2.2,1.8,3,2.8
		c0.8,1,1.2,1.9,1.2,2.6c0,0.3,0.3,0.6,0.6,0.6c0.3,0,0.6-0.3,0.6-0.6c0-0.9-0.5-1.8-1.1-2.6c-0.2-0.3-0.2-0.6-0.4-1
		c-0.9-1.3-2-2.6-3.2-3.8c-1.2-1.2-2.5-2.3-3.6-3c-0.9-0.6-1.6-1-2.4-1.1C319.1,122.1,319.4,120,319.4,118.3L319.4,118.3z
		 M276.3,120.5c1.3,3.2,1.6,5.7,1.1,7.7c-0.5,2.1-1.9,3.8-3.8,5c-3.3,2.2-8.2,3.2-12.6,4c-0.5-0.1-1.3-0.2-1.5-0.4
		c-0.2-0.2-0.3-0.3-0.3-0.4c0-0.1,0-0.2,0-0.3c0,0,0.1-0.1,0.1-0.1c0.2-0.2,0.3-0.4,0.6-0.7c0.7-0.6,1.7-1.2,2.8-2
		c2.3-1.5,5.2-3.5,8.1-6.1C272.9,125.3,274.7,123.1,276.3,120.5L276.3,120.5z M357,122.9c45.8,1.8,58,4.9,88.2,8.5
		c20.9,2.4,40.1,8,54,11.5c0.1,0,0.2,0,0.3,0.1c-13.5,3.4-19.7,11.8-21.6,20.2c-1.1,4.9-0.8,9.7,0,13.5c0.3,1.3,0.7,2.3,1.1,3.3
		c-16.2-9.9-41.7-21.7-66-31.7c-13.3-5.5-26.1-10.4-36.5-14.2c-9-3.2-15.6-5.3-20-6.3C356.2,126.2,356.1,124.3,357,122.9z
		 M353.5,134c0.6,0.1,1.2,0.2,2.3,0.6c1.5,0.5,3.3,1.1,5.5,1.9c4.4,1.6,10,3.8,16.2,6.3c12.4,5,27.1,11.2,38.6,16
		c12.6,5.2,30.1,15.6,44.6,23.6c0.7,0.4,1.3,0.7,2,1.1c-0.7,0-1.3-0.1-2-0.1c-4.8,0.1-10.6,1.1-16.2,3.2
		c-10.9,4.1-21.6,12.6-25.4,28c-0.4-0.6-0.7-1.1-1.1-1.7c-6.4-8.9-17.7-22.3-33-42c-9.5-12.2-18.9-21-25-27.3
		c-3-3.2-5.2-5.7-6.1-7.5C353.5,135.2,353.4,134.5,353.5,134L353.5,134z M275.4,135.3c0.7,3.8,0.8,6.6,0.3,8.4
		c-0.5,2-1.6,3.1-3.2,3.9c-2.4,1.1-6.2,1.2-10.5,1.4c-1.6-0.2-2.6-0.8-3.1-1.5c-0.6-0.8-0.7-1.8-0.6-2.9c0.3-2.2,1.8-4.7,3.1-5.9
		h0.1c0.4,0,0.5,0,1.2,0c0.1,0,0.1-0.1,0.2-0.2C268,138.1,272.4,137.4,275.4,135.3L275.4,135.3z M521.1,143.6
		c0.1,0.1,0.2,0.2,0.3,0.3c0.4,0.7,0.3,1.6,0,2.6c-0.4,1-1.1,1.9-2,2.6c0,0-0.1,0-0.1,0c0.5-0.6,0.8-1.2,0.9-1.9
		c0.1-0.8,0-1.7-0.2-2.4c0.1-0.1,0.3-0.1,0.5-0.2C520.7,144.3,520.9,143.9,521.1,143.6z M351.7,144.6c0.3,0.2,0.4,0.1,0.8,0.5
		c1.9,1.5,4.6,4.6,7.8,8.5c6.4,7.8,14.7,19.1,22.9,29.3c8.4,10.5,15.1,22.7,21.1,31.7c1,1.4,1.9,2.6,2.8,3.9c-2.8-0.8-6-1.5-9.5-1.5
		c-1.9,0-3.9,0.1-5.9,0.5c-7.6,1.3-15.5,5.6-21.6,15c-1.3-7.6-4-17.2-7.3-28.1c-4.8-15.9-7.7-21.9-9.6-25.8c-2-3.8-3-5.4-4.4-12.7
		c0,0,0,0,0-0.1c-0.2-3.1,0.3-9,1.2-13.9c0.4-2.5,0.9-4.7,1.4-6.2C351.4,145.1,351.5,144.9,351.7,144.6L351.7,144.6z M315.6,146.7
		c0.8,1.2,1.8,2.3,3.2,3.4c2,1.7,4.3,3.5,6.1,5.7s3,5,2.9,8.5c-0.1,2.7-1.4,6.2-3.5,10.1c0.3-1.9,0.2-3.6-0.4-5c-1-2.4-3-4-5.1-5.2
		c-2.1-1.2-4.2-2-5.7-2.6c-0.3-0.1-0.5-0.2-0.7-0.3c0.4-1.6,1-2.7,1.7-3.2c1-0.7,2.2-0.6,3.5-0.2c1.3,0.4,2.7,1.3,3.8,2.2
		c1.1,0.9,1.9,2,2.1,2.5c0.1,0.3,0.5,0.5,0.8,0.3c0.3-0.1,0.5-0.5,0.4-0.8c0,0,0,0,0,0c0,0,0-0.1,0-0.1c-1.7-4.6-5-5.9-7.2-7.4
		c-1.1-0.8-1.8-1.5-2.2-2.9C314.9,150.9,315,149.1,315.6,146.7L315.6,146.7z M170.3,148c4.4-0.2,7.7,1.6,9.5,4.7
		c-0.5,0.4-1,0.4-1.9,0.5c-0.5-1.7-3.3-3.6-5.7-4c-0.2-0.1-0.4-0.2-0.6,0c-0.2,0.1-0.3,0.3-0.3,0.6c0,0.2,0.2,0.5,0.4,0.5
		c1.8,0.9,3.7,1.6,3,3.2c-0.9,0-1.5,0-2.2,0c0-1.7-3.6-3.3-7-4.6C167.2,148.3,168.8,148.1,170.3,148L170.3,148z M272.2,150.2
		c0.3,4.5-0.6,7.2-2.1,8.6c-1.6,1.5-3.9,1.9-6.6,1.9c-2.6-0.1-5.3-0.6-7.8-0.9c-0.1-0.1-0.1-0.3-0.3-0.3h-0.1
		c-0.7,0-1.2-0.2-1.5-0.5c-0.3-0.2-0.4-0.5-0.5-1c0-0.8,0.5-2.1,1.4-3.3c0.9-1.3,2.1-2.5,3.2-3.3c1-0.8,1.9-1,2.5-1
		c4.1,0,8,0.1,10.4-0.1C271.4,150.3,271.7,150.2,272.2,150.2L272.2,150.2z M546.7,153.5c17.9,0,40.4,18.3,40.5,44.4
		c0,18.1-10.5,48.5-49.2,61.7c-10.8-21.4-31.5-40.4-58.1-49.5c-0.1-0.1-0.3-0.1-0.4,0c-0.3,0.1-0.5,0.3-0.5,0.6
		c0,0.3,0.2,0.5,0.5,0.6c29,10,48.4,32.5,57.9,56.3c2.5,6.3,8.9,15,15.1,20.8c6.3,5.9,13.5,9.7,20.5,9.8c4.8,0.1,10.1,2.9,12.3,9.1
		c1.8,4.9,1.7,11.1-2.8,17.9c0.8-3,0.1-5.5-0.9-7.2c-1.7-2.8-5.3-3.9-7.7-3.8c-4.2,0.2-6.6,2-12.2,5c-0.3,0.1-0.4,0.5-0.3,0.8
		c0.1,0.2,2.1,0.4,4.2,0.4c0.2,3.3,5.3,38,6.1,42.9c3.8,24.1,20.5,12.4,23.3,12.9c5.5,0.9,6.6,2.4,8.4,4.1c-1.9,0.1-3.3,5.7-2.4,9.4
		c-6.7,4.9-13.5-2.5-18.5-2.6c-5.7,0.1-12,4.1-18.5,6.2c-6,1.9-9,3.4-16.6-0.1c1.2-0.3,2.6-0.8,2.7-0.8c0.2,0,0.3,0,0.4,0
		c0.1,0,0.1,0,0.3,0c0.2,0,0.4-0.1,0.5-0.4c0.1-0.2,0.1-0.5-0.1-0.6c-0.2-0.2-0.4-0.2-0.6-0.1c0.1,0,0,0-0.1,0H550
		c-0.3,0-0.7,0-1.2,0c-1,0-2.4,0-3.8,0c-2.8,0-5.9,0-7.1,0c-3.2,0-7.9,1-11.8,3.1c-3.9,2.1-6.8,4.7-10.4,4.7c-2,0-4.2-0.4-5.9-1.8
		c0.9-3.3,0.8-7.6-1.7-11.2l-0.6,0c4.2-0.6,5.7-2.7,8.5-2.8c3.3-0.1,3.2,6.5,20.2-4.3c0.2-0.1,0.3-0.3,0.3-0.5
		c0-0.2-0.1-0.5-0.3-0.6c-0.2-0.1-0.5-0.1-0.6,0.1c-15,6.8-10.3,1.7-18,2c-7.3,0.3-7.5,2.8-11.9,2.7c-2.3,0-5-1.1-5.5-2.2
		c1.7-0.4,2.3-6,1.5-8.9c0-0.1,0.1-0.2,0.1-0.3c0.1-0.3-0.1-0.5-0.3-0.7c1-1.2,3.6-1.6,5.9-1.6c2.1,0,5,2,8.3,3.4
		c3.3,1.4,6.3-1.2,10.3,1.5c0.3,0.2,0.7,0.1,0.8-0.2c0.2-0.3,0.1-0.7-0.2-0.8c-1.4-0.8-4.4-4-7.8-5.4c-2.1-0.9-4.6-1.4-6.9-1.8
		c-1.6-1.5-4.4-4.1-4-4.3c0.8-0.5,1.6-1.2,2.3-2c0.7-0.8,1.3-1.8,1.5-2.9c0.1-0.7-0.1-1-0.3-1.5c0.1-0.2,0.1-0.4,0.2-0.7
		c0.9-1,1.4-1.4,2.7-1.6c2,0.2,3.1,0.9,4.7,2.5c1.6,1.6,3.4,4,5,6.8c2.3,4.2,5.5,6.6,8.7,8.7c-1,0.8-2.2,1.9-2.3,1.9
		c-0.2,0-0.3-0.1-0.6,0.1c-0.3,0.1-0.4,0.5-0.3,0.8c0.1,0.3,0.5,0.5,0.8,0.3c0.1,0,0.2,0,0.4,0c0.3,0.1,0.8,0.2,1.4,0.3
		c1.1,0.3,2.7,0.6,4.2,0.8c1.6,0.2,3.2,0.3,4.7,0c1.5-0.3,2.9-0.9,3.6-2.2c5-9.1,4.6-22.6,1.7-34.7c-2.9-12-11.5-28.3-11.8-28.5
		c-0.3-4-10.2-16.1-12.4-13.4c0-0.5,0.1-0.9,0-1.4c-0.3-0.8-0.7-1.6-1.2-2.5c-1.1-1.7-2.7-3.5-4.5-5c-1.7-1.5-3.5-2.7-5.2-2.9
		c-0.8-0.1-1.7,0-2.4,0.4c-0.2,0.1-0.2,0.5-0.4,0.6c-0.3-0.9-0.7-1.7-1.4-2.7c-1.2-1.7-2.9-3.4-4.8-4.8c-1.8-1.4-3.7-2.4-5.4-2.8
		c-0.8-0.1-1.7-0.1-2.3,0.2c-0.1,0-0.1,0.1-0.1,0.2c-0.2-0.7-0.6-1.3-1.1-2.1c-1.2-1.7-3-3.4-5-4.8s-4.3-2.4-6.4-2.3
		c-1.2,0-2.2,0.5-3.1,1.4c-0.1-1.3-0.4-2.7-1.1-3.9c-1.2-2.3-3.3-4.4-5.6-5.9c-2.3-1.5-4.7-2.5-6.8-2.4c-1.1,0.1-2,0.4-2.8,1.2l0,0
		c-0.2-1.4-0.7-2.7-1.6-3.8c-1.6-1.9-4-3.3-6.5-4.1c-2.5-0.8-5-1.1-7-0.7c-1,0.2-1.9,0.5-2.5,1.1c-0.2,0.2-0.3,0.4-0.4,0.6
		c-0.1-0.1,0-0.3-0.1-0.4c-0.6-0.7-1.4-1.4-2.3-1.9c-1.9-1.1-4.5-2-7.1-2.4c-1.3-0.2-2.6-0.3-3.8-0.2c-1.2,0.1-2.3,0.4-3.3,0.8
		c-1.2,0.6-1.9,1.8-2.3,3.2c-0.7-1.1-1.6-1.9-2.8-2.4c-2.1-0.8-4.8-0.8-7.3-0.3c-2.5,0.5-4.9,1.4-6.5,2.6c-0.5,0.4-0.7,0.9-1,1.3
		c-0.3-0.3-0.6-0.6-1-0.8c-1.8-0.8-4.3-1.1-6.9-0.9c-2.6,0.2-5.1,0.8-6.8,2.1c-0.9,0.7-1.5,1.5-1.8,2.5c0,0.1,0,0.2,0,0.2
		c-0.6-0.3-1.1-0.7-1.9-0.8c-2.3-0.4-5.3-0.2-8,0.6c-2.8,0.8-5.3,2-6.6,3.8c-0.6,0.8-0.9,1.8-0.8,2.8c-0.5-0.1-0.8-0.4-1.3-0.5
		c-2.3-0.3-5.2,0.2-7.8,1.1c-2.6,0.9-4.8,2.3-6,4c-0.4,0.6-0.6,1.3-0.7,2c-0.7-0.3-1.5-0.6-2.4-0.7c-2.4-0.1-5.1,0.6-7.5,1.7
		c-2.4,1.2-4.5,2.8-5.4,4.6c-0.2,0.5-0.4,0.9-0.4,1.4c-0.9-0.1-1.8-0.2-2.7-0.1c-0.8,0.1,0.7-2.7,2.1-5.3c1-1.3,1.8-2.5,2.9-3.9
		c0.3-0.1,0.5-0.4,0.5-0.7c-0.1-0.3-0.4-0.5-0.8-0.5c-0.1,0-0.2,0-0.2,0.1c-5.9,2.8-10.7,10-14.2,18.2c-3.5,8.3-5.5,17.6-5.4,24.8
		v0.1c0.8,7,3.4,10.5,5,13.7c1.6,3.3,2.2,6.3-0.6,13.3c0,0,0,0,0,0c-1.8,3.6-2,4.5-6.9,6.9c5.4-11.2-11.7-17.9-30.6-7.3
		c-0.2,0.1-0.4,0.3-0.4,0.5c0,0.2,0.1,0.5,0.3,0.6c0.2,0.1,0.5,0.1,0.6,0c1.4-0.3,2.2-0.3,3.4-0.5c2.4,4.5-7.7,14.2-14,23.3
		c-3.3,4.8-12.2,17-12.3,22.8s1.4,8.5,5.9,8.5c1.2,0,3.4,0.1,6-0.5c2.6-0.6,6.5-2,8.8-2c2.3,0,3.8,0.2,6.1,2.1
		c-0.7,0.3-5.4,8.6-2.4,11.9c-0.2,0.6-2.4,0.9-3.1,0.9c-1.3,0-4.9-1.5-6.9-2.2c-4-1.3-5.8-2.4-10-2.3c-4.3,0.1-10.9,1.9-15.7,3.5
		c-4.7,1.7-8.9,2.9-19.3,3.2c-1.3,0-2.8-0.3-4.1-0.6c1.7-2.7,2.8-3.5,2.9-3.5c0.1,0,0.1,0,0.3,0c0.2,0,0.5-0.2,0.6-0.4
		c0.1-0.2,0-0.5-0.1-0.6c-0.2-0.2-0.4-0.2-0.6-0.1c0.1,0,0,0-0.1,0c-0.1,0-0.2,0-0.4,0c-0.3,0-0.7,0-1.2,0c-1,0-10.9,1.8-14.8,3.9
		c-3.9,2.1-6.1,7.1-9.7,7c-2,0-2.8,0-4.6-1.3c1.7-8.1-4.1-10.5-1.5-12.6c2.7,0.4,13,1.7,22.5-4.4c0.2-0.1,0.4-0.3,0.3-0.5
		c0-0.2-0.1-0.5-0.3-0.6c-0.2-0.1-0.5-0.1-0.6,0.1c-5.4,3.4-9.3-2.9-13.5-2.5c-7.3,0.6-5.6,1.9-10,1.9c-2.3,0-5-1.1-5.5-2.2
		c1.5-3.2,4-7.7,2.7-10.1c0.9-1.2,2.2-1.4,4.6-1.4c2.1,0,3.2,2,6.5,3.4c11.8,6,8.3,1.3,17.3,4.6c0.3,0.2,0.7,0.1,0.8-0.2
		c0.2-0.3,0.3-1.6-0.8-1.7c-10.1-1.5-13-5.6-15.3-7.9c-0.7-0.7-2.4-1.2-4.2-1.6c-4.9-4.5-4.9-8.5-4.4-8.8c0.8-0.5,3.4-4,2.9-4.9
		c1.1-1.2,1.9-0.9,3.3-1c5,0.1,10.2,7.7,8.7,10.6c-0.1,0.2,4.3,4.2,7,7.5c2.1,2.6,6.5,7.9,12.3,6.8c0.1,0.1,0.1,0.3,0.3,0.3
		c0.2,0.1,0.5,0,0.6-0.1c11-10,19-26,24.3-40.3c2.6-7.1,4.6-13.8,5.9-19.1c1.3-5.3,1.9-9,1.9-10.5c0-8-1.9-20.7-1.7-33.1
		c0.2-11.3,2.2-22.2,8.5-28.9c1.6-0.3,3.2-0.7,4.8-1.3c4.1-1.5,8.1-4.1,11.2-7.6c0.1,0.9,0.3,1.9,0.6,3c0.7,2.4,1.8,5,3.4,7.5
		c3.2,5,8.1,9.5,14.5,10.5h0c0,0,0.1,0,0.1,0c0.3,0.1,0.7-0.1,0.8-0.4c0-0.1-0.1-0.1-0.1-0.1c0,0,0,0,0,0c0-0.2-0.1-0.5-0.3-0.6
		c-0.1,0-0.1,0-0.2-0.1c-0.9-0.1-1.3-0.5-1.7-1c-0.4-0.5-0.6-1.3-0.6-2.2c-0.1-1.9,0.6-4.5,1.6-7.1c0.7-2.1,1.7-4,2.7-5.8
		c1.8,4,4.6,8.3,9,11.1c5.2,3.2,12.3,4.1,21.4,0.1c0,0,0,0,0.1,0c0.1,0,0.1,0,0.2-0.1c0.1-0.1,0.1-0.2,0.1-0.3
		c0.1-0.1,0.2-0.1,0.2-0.2c0-0.1-0.1-0.1-0.1-0.2c0,0,0,0,0,0c0-0.2,0-0.4-0.2-0.5c-6.8-3.3-8.8-7.3-8.9-11.2
		c-0.1-2.1,0.3-4.1,0.9-6c3.7,4.1,8,7.4,11.9,8.9c2.2,0.8,4.1,1.1,5.8,0.8c0.8-0.2,1.5-0.6,2-1.2c0.2,0.8,0.6,1.6,1,2.1
		c0.4,0.6,1.1,0.9,1.7,1.2c0.1,1.3-0.2,2.3-0.7,2.9c-0.7,0.8-1.8,1-2.8,0.8h0h0h0h-0.1l-0.1,0h0c0,0-0.1,0-0.1,0
		c0,0-0.1,0.1-0.1,0.2c0,0,0,0-0.1,0.1l0,0.1c-0.1,0.1-0.1,0.3,0,0.4v0c0,0,0,0.1,0,0.1v0l0,0.1c0.1,0.1,0.2,0.1,0.3,0.2
		c0,0,0,0,0,0.1c0.4,0.5,0.9,0.9,1.5,1.1c0.2,0.1,0.4,0.1,0.6,0.2c0.2,0,0.5,0.2,0.7,0.2c0.2,0,0.3-0.1,0.5-0.1c0.4,0,0.7,0.1,1,0.1
		c1.8-0.3,3.7-1.3,5.4-2.6c1.6-1.3,3-3,3.7-4.7c0.7-1.8,0.7-3.7-0.5-5.3c-0.1-0.1-0.2,0-0.2-0.1c0.2-1.4,0.3-2.9,0.1-4.7
		c0.6-1.8,2-4.2,4.3-6.5c2.5-2.6,5.9-5.1,9.8-7c7.5-3.6,17.2-4.6,27.4,0.7c0.2,0.2,0.3,0.4,0.5,0.5c0.8,0.8,1.7,1.1,2.6,1.6
		c0.2,1.5-0.1,2.5-0.8,3c-0.7,0.6-1.9,0.7-2.9,0.5c0,0-0.1,0-0.1,0c-0.1,0-0.1,0-0.2,0c-0.1,0-0.2,0.1-0.3,0.1
		c-0.1,0.1-0.1,0.1-0.1,0.2v0c0,0.1,0,0.3,0,0.4v0l0,0v0h0c0.1,0.1,0.2,0.1,0.2,0.2c0.4,0.6,0.9,1,1.5,1.3c0.2,0.1,0.5,0.2,0.7,0.3
		c0.3,0.1,0.6,0.2,1,0.2c0.3,0.1,0.7,0.2,1,0.3c1.7,0.1,3.5-0.5,5-1.4c1.5-0.9,2.8-2.1,3.4-3.6c0.4-0.9,0.3-1.9,0.1-3
		c0.3-0.8,0.3-1.7,0.1-2.7c-0.2-0.8-0.8-1.9-1.4-2.9c0-1.3,0.1-2.5,0.3-3.8c2.1-6.3,5.3-10,9.6-12.3c4.7-2.5,10.8-3.2,17.5-3
		c22.9,0.4,38.7,5.5,51.2,10.6s21.8,10.2,31.9,10c9.5-0.2,18.2-2.4,24.7-7.3c6.5-4.8,10.6-12.4,10.6-22.4c0-3.7-1.2-6.9-2.8-9.9
		c-3-5.5-7.9-9.8-13.2-11.7c-2-0.7-4-1.1-6-1.2c-2,0-3.8,0.3-5.5,1.1c-3.4,1.6-5.6,5.3-5.6,10.4c0,5.3,4.5,9.3,9.6,9.4
		c5,0.1,10.3-3.8,12.9-12.2c1.9,1.6,3.5,3.6,4.8,5.8c-1.1,8-4.8,12.8-9.3,15.8c-4.6,3-10,4.1-14,4.3c-10.5,0.5-22.3-10.2-22.2-25.1
		C517.1,165,528.6,153.5,546.7,153.5L546.7,153.5z M182.4,154.7c5.6,5.1,0.1,8.9,1,14.7c3.9,23.8,14,26.8,15.7,37.1
		c5.5,34.5,20.9,50.9,22,52.1c0.5,0.9,1.2,1.5,2,1.9c-0.4,2.7,0.3,7,1.8,10.9c1.4,3.8,3.5,7.2,6.4,8.7v0c0.1,3.1,1.3,6.9,3.1,10.2
		c1.8,3.2,4.4,5.8,7.4,6.7c1.1,1.2,1.8,1.7,2.8,2.7c2.5,5.6-14.5,11.8-21.8,14c-2.6,7.5-11.3,13.5-17.8,13.3c-4.8-0.1-5.2-1-8.2-2.5
		c10.5-1.9,14.5-1.6,14-26.1c0-0.5,0-1,0-1.3c0-0.2,0-0.3,0-0.4c0,0,0-0.1,0-0.1c0,0,0-0.1-0.1-0.2c-0.1-0.3-0.3-0.4-0.6-0.4
		c-0.2,0-0.3,0.1-0.5,0.3c-0.1,0.2-0.1,0.4-0.1,0.5v0v0c-5,15-19-43.1-22-64.3c-0.7-5,4.6-15.7,4.1-21.5c0.2-0.2-1.2-0.3-1.3-0.2
		c-0.4,2.5-1.5,5.4-2.7,8.3c0,0,0,0,0,0c-0.3,0.2-0.8,0.5-1.2,0.9c-0.9,0.8-2,1.9-2.9,3.4c-2,3-4.3,4.8-1.5,12.1
		c1,2.7-3.8,7.6-5.6,8.7c0.1-4.3-7-5.6-8.3-5c-0.6-4.7,1.4-10.8,4.7-13.6c3.7-3.7,6.6-15.7,4.3-21.2c-0.2-0.6-0.8-1-1.4-0.8
		c-0.3,0.1-0.7,0.3-0.8,0.6c-0.2,0.3-0.2,0.7-0.1,1c0.5,0.8,0.6,1.8,0.7,2.9c0,0,0,0,0,0c-1.7,1.4-5.6-6.4-2.3-8.7
		c0.6,0.1,1.4,0.3,1.8,0.2c0.7-0.1,1.1-0.8,1-1.5c-0.1-0.7-0.8-1.1-1.4-1c-2.2,0.4-9-1.9-13.1-4.5c-12.1,4.1-14.3,3.5-17.7-0.5
		c2-2.7,0.3-7.1,0.3-7.4c2.3-2,4.5-2.2,6.9-1.7c1.3,0.3,4.9,1.2,7.1,3.4c4.3-1.5,11.2,1.8,12.2,5c0.1,0.4,0.4,0.7,0.8,0.8
		c0,0,0.2,0.3,0.2,0.3c0.5,0.1,1,0,1.3-0.4c0.3-0.4,0.4-0.9,0.2-1.3c-0.8-2.9-4.4-17.3-14.9-17.4h0c0.1,0-5.4-1.1-5.6-7
		c1.9-0.7,6.4-4,6.1-7.8c0.1,0,0.1,0,0.2,0c5.2,1.5,7.7,7,7.7,9.5c2.1,1.4,9.4,3.4,11.3,22.7c0,0.5,0.2,0.9,0.6,1.1
		c0.4,0.2,1,0.2,1.3-0.1c0.4-0.3,0.5-0.8,0.4-1.3c-0.4-4.7-1.2-8.4-2.2-11.6c0.1-5.3-1-9-4.7-13.8c0-0.1-0.1-0.2-0.1-0.2
		c-1.9-3.2-2.2-6.6,0.1-9.1C176.8,156.7,182.1,154.8,182.4,154.7L182.4,154.7z M151,158.2c1.5,0,2.9,0.1,4.3,0.4
		c0.1,0.5,0.1,1.8,0,2.8c-0.1,0.2-0.4,0.4-0.5,0.6c-2.6-0.4-7.5-2.7-9.3-0.2c-0.3,0.1-0.5,0.3-0.5,0.5c0,0.2,0.3,0.4,0.6,0.4
		c0.3,0.1,0.6,0,0.9-0.1c2-0.5,5.3,0.1,6.1,1.4c-0.3,0.2-0.7,0.4-1,0.6c-2.2-0.5-5.6-1-9,1C142.4,160,146.6,158.3,151,158.2
		L151,158.2z M251.3,161.9c1.4,0,3.2,0.1,5.5,0.5c2.7,0.4,5.8,0.9,8.6,0.7c0.5,0,1-0.2,1.5-0.3c0.9,4.6,0.2,7.4-1.4,8.8
		c-1.7,1.5-4.6,2-7.8,1.8c-3.2-0.1-6.7-0.8-9.7-1.1c-0.5-0.1-0.9,0-1.4-0.1c-0.5-0.1-1-0.2-1.2-0.3c-0.4-0.2-0.6-0.5-0.6-0.9
		c-0.2-0.7,0.1-1.9,0.8-3.2C246.8,165.5,249.3,163.1,251.3,161.9L251.3,161.9z M243.7,174.3c1.5,0.1,3,0.1,5.4,0.5
		c3.2,0.5,6.8,1,10.2,0.9c0.5,0,1-0.2,1.5-0.3c0.8,5.7-0.2,8.7-2,10.2c-1.9,1.5-4.8,1.8-8.2,1.5c-3.4-0.2-7.1-0.9-10.4-1
		c-0.8,0-1.5,0.2-2.2,0.3c-0.1,0-0.1-0.1-0.2-0.1c-0.2,0-0.4,0-0.6,0c-0.3-0.2-0.5-0.4-0.6-0.7c-0.3-0.9,0-2.4,0.8-4
		C238.6,178.9,241.3,176,243.7,174.3L243.7,174.3z M310.2,177.1c4.1,0.8,7.8,2.9,10,6.1c2.1,3,2.8,6.8,1.5,11.3
		c-0.4-1.2-0.8-2.3-1.6-2.9c-1.1-1-2.5-1.2-3.9-1.2c-2.2,0.1-4.1,1-5.3,1.5c-0.1-0.6-0.3-1-0.4-1.6c-0.2-1.1-0.2-2.5-0.3-3.8
		c0.6-0.2,1.6-0.3,2.8-0.3c2.5,0.2,5.6,1.1,7.1,2.4c0.3,0.2,0.6,0.2,0.8-0.1c0.2-0.2,0.2-0.6,0-0.8c-3.5-3-6.1-3.7-8-4.2
		c-0.9-0.2-1.7-0.5-2.2-0.8c-0.2-0.2-0.4-0.6-0.6-0.9C310,180.3,310.1,178.8,310.2,177.1L310.2,177.1z M344.8,182.2
		c0.3,0,0.7,0.2,1.2,0.8c0.5,0.6,1.1,1.6,1.6,2.7c1.1,2.3,2.3,5.6,3.4,9c2.1,6.9,3.9,14.9,4.5,18.8c2.1,13.5,2.2,22.3,2.8,27.7
		c0,0.6,0.2,0.9,0.2,1.4c-0.9,0.6-2,0.8-3.4,0.6c-1.7-0.3-3.6-1.1-5.6-2.3c-3.8-2.3-7.4-6-9-9c0-0.1,0-0.2-0.1-0.3
		c-0.1-0.2-0.3-0.3-0.5-0.2h0c0,0,0,0-0.1,0c-0.3,0-0.6,0.2-0.6,0.5c0,0.2,0,0.2-0.1,0.3c-2.8,3.3-4.3,6.3-4.6,9
		c-0.3,2.9,0.6,5.3,2,7.3s3.4,3.5,5.3,4.6c1.1,0.6,1.9,0.7,2.8,1c-3.7,0.5-8.2,1.1-12.6-0.2c-5.2-1.5-10-5.7-12.2-16.2
		c0,0-0.1,0-0.1,0c0-0.1,0.1-0.3,0.1-0.4c-0.1-0.2-0.4-0.3-0.6-0.3c-0.1,0-0.2,0.1-0.3,0.2c0,0,0,0-0.1,0.1c-4.6,3.6-7.5,9.1-8.5,14
		c-0.5,2.5-0.5,4.8,0.1,6.6c0,0.1,0.2,0.2,0.2,0.3c-4.7-2.7-7.6-6.1-9.2-9.9c-2-4.6-2-9.9-1.3-15.3c0.1-0.2,0.3-0.3,0.3-0.5
		c0.1-0.1,0.1-0.1,0.2-0.2c0.1-0.1,0.1-0.2,0.1-0.2c0,0,0,0,0,0c0,0,0.1-0.1,0.1-0.1c0,0,0,0,0.1-0.2c0,0,0-0.1,0-0.1v-0.1l-0.1-0.3
		l-0.3-0.2l-0.3-0.1l-0.1,0c0,0-0.1,0.1-0.1,0.1c-0.1,0.1-0.1,0.1-0.1,0.1c0,0,0,0-0.1,0c-0.2,0-0.4,0.1-0.5,0.3
		c-1.8,3.1-6.5,8-12.3,11.3c-5.2,3-11.3,4.5-17,2.7c3.5-11.7,9.9-18.9,16.7-23c6.6-3.9,13.4-4.8,18.4-4.3c0,0,0,0,0,0.1
		c-0.8,2.9-1.2,6.7-1.2,11v0v0.1c0,0.3,0.2,0.6,0.6,0.6c0.3,0,0.6-0.2,0.6-0.6v-0.1c0,0,0.1,0,0.1-0.1c0.7-3.5,3.4-8,6.6-11.2
		c1.6-1.6,3.3-2.9,5-3.6c1.3-0.5,2.4-0.6,3.5-0.4c-0.1,1.1-0.3,2-0.3,3.3c-0.2,5.1-0.1,11.1-0.2,15.5v0.1c0,0.3,0.2,0.6,0.5,0.6h0
		c0,0,0,0,0,0c0.1,0,0.2-0.1,0.3-0.2c0.1-0.1,0.2-0.1,0.3-0.2c0,0,0,0,0-0.1c0,0,0,0,0,0c0,0,0-0.1,0-0.1c2.1-8.9,4.2-16.5,6.3-21.4
		c1.1-2.4,2.1-4.2,3-5c0.4-0.4,0.8-0.5,1.1-0.5c0.2,0,0.5,0.2,0.8,0.5c0,0,0,0.1,0,0.1c0.1,0.4,0.3,1,0.4,1.7
		c0.2,1.5,0.5,3.5,0.7,5.8c0.4,4.6,0.7,10.1,1.1,13.8c0,0,0,0.1,0,0.1c0,0.3,0.3,0.6,0.6,0.6s0.6-0.3,0.6-0.6c0,0,0-0.1,0-0.1
		c0.5-11.9,2.9-24.3,5.3-33.6c1.2-4.7,2.4-8.6,3.3-11.2C344.5,182.9,344.6,182.7,344.8,182.2L344.8,182.2z M142.5,185.6
		c0.2,0.6,0.3,0.9,0.5,1.8c-1.5,0.1-3.3,0.5-4.6,2.1c-0.1,0.1-0.2,0.3-0.1,0.5c0,0.2,0.2,0.4,0.4,0.4c0.2,0,0.4-0.1,0.5-0.2
		c1-1.2,2.6-1.1,3.9-0.9c0,0.9-0.3,1.9-0.7,2.8c-1.5-0.3-3.5-0.4-5.2,2.1C135.8,188.3,139.9,186.1,142.5,185.6L142.5,185.6z
		 M237.3,188.9c1.6-0.1,3.3-0.1,5.1,0.1c3.5,0.3,7.3,1.1,10.6,1.2c1.1,0,2.1-0.2,3.1-0.3c0.8,6-0.4,9.3-2.5,11.2
		c-2.2,1.9-5.5,2.5-9.3,2.5c-3.8,0-7.8-0.4-11.4-0.3c-1.7,0-3.2,0.3-4.6,0.7c-0.4-0.2-0.7-0.5-0.8-1c-0.2-1.2,0.4-3.6,1.7-6
		c1.3-2.4,3.1-4.9,5-6.6c0.5-0.5,0.9-0.7,1.4-1C236.2,189.2,236.7,188.9,237.3,188.9L237.3,188.9z M483.1,193
		c0.4,0.1,0.9,0.3,1.3,0.3c-0.2,0.6-0.5,1.4-1,2c-0.1,0.1-0.2,0.1-0.3,0.3c0.2-0.5,0.3-1.1,0.3-1.6
		C483.3,193.6,483.2,193.3,483.1,193z M252.8,205.1c1.6,5.6,0.9,8.9-1.1,10.9c-2.1,2.1-5.7,3-9.8,3.5c-4.1,0.5-8.6,0.7-12.5,1.6
		c-1.6,0.4-3,1-4.3,1.7c-0.2-0.2-0.5-0.3-0.7-0.7c-0.6-1.2-0.7-3.5-0.4-5.8c0.3-2.4,1-4.9,1.8-6.9c0.4-1,0.9-1.8,1.3-2.4
		c0.2-0.2,0.3-0.2,0.5-0.4c2.3-0.6,4.9-0.9,7.8-0.8c4,0.1,8.2,0.4,12.1,0.2C249.5,206,251.2,205.7,252.8,205.1L252.8,205.1z
		 M250.2,220.6c1.5,2.7,2.4,4.9,2.6,6.7c0.3,1.8,0,3.1-0.8,4.2c-1.5,2.1-4.9,3.1-9.1,3.8c-4.1,0.7-8.9,1.1-13.1,2.2
		c-2.2,0.6-4.2,1.4-5.7,2.6c-0.3-0.2-0.6-0.3-0.8-0.7c-0.6-1.1-0.7-3.1-0.4-5.3c0.3-2.2,1-4.5,1.8-6.3c0.4-0.9,0.8-1.7,1.3-2.2
		c0.3-0.3,0.5-0.4,0.7-0.5c1.4-0.5,3-1,4.7-1.3c4.1-0.7,8.7-0.8,13-1.5C246.5,221.8,248.5,221.3,250.2,220.6L250.2,220.6z
		 M420.2,227.9c0,2-1.3,3.4-3,4c-0.9,0.3-1.8,0.4-2.7,0.2c-0.1,0-0.2-0.1-0.4-0.1c-0.2-0.1-0.4-0.3-0.6-0.4c1.7,0,3.2-0.5,4.1-1.4
		c0.6-0.6,1-1.4,1.3-2c0-0.1,0-0.1,0-0.1C419.3,228.1,419.8,228,420.2,227.9L420.2,227.9z M251.6,236.5c1.5,1.8,2.4,3.4,2.8,4.8
		c0.4,1.4,0.2,2.6-0.3,3.7c-1.1,2.2-4,4.1-7.6,5.7c-3.7,1.6-8.1,3-12.1,4.5c-2.2,0.8-4.3,1.7-6.1,2.6c-2.1-0.5-3.5-1.6-4.4-3.2
		c-0.9-1.7-1.3-3.9-1.2-6c0.1-2.1,0.6-4.2,1.4-5.6c0.1-0.2,0.2-0.2,0.3-0.4c1.9-1.2,4.4-1.9,7.3-2.4c4.2-0.7,9-0.8,13.2-1.6
		C247.4,238.2,249.7,237.5,251.6,236.5z M169.1,242.4c0.7,0.2,1.3,0.5,2,0.8c-0.8,1.3-2,3.2-3.9,3.1c-0.2,0-0.5,0.1-0.6,0.3
		c-0.1,0.2-0.1,0.5,0,0.7s0.4,0.3,0.6,0.3c2.4,0,4.4-2,5.7-3.3c0.8,0.5,1.5,0.9,2.1,1.4c-2.2,2-7.3,5.4-12.3,0.5
		C166,246.5,168,244,169.1,242.4L169.1,242.4z M366.8,248c0,2.1-1.3,4-3.1,5c-0.8,0.5-2.4,0.6-2.1,0.5c1-0.4,1.8-1.1,2.3-1.9
		c0.5-0.8,0.9-1.6,1.1-2.3c0.1-0.3,0.1-0.4,0.1-0.7C365.8,248.5,366.3,248.3,366.8,248L366.8,248z M434.4,248.5
		c4.1-0.2,8.1,1.8,9.1,4.6c0,0.2,0,0.3,0,0.6c0,0.7-0.1,1.7-0.2,2.9c-0.1,2.3-0.4,5.4-0.6,8.5c-0.4,5.5-0.7,10-0.7,11
		c-5.3,4-9.9,0.2-11.4-3c-0.2-1.1-1-5.2-2-10.4c-0.5-2.9-1.1-5.9-1.5-8.1c-0.2-0.9-0.3-1.6-0.4-2.2
		C428.8,249.7,431.6,248.6,434.4,248.5L434.4,248.5z M417.7,249.6c2.2,0,4.4,1,5.9,3c0.1,0.7,0.3,1.5,0.5,2.5c0.4,2.2,1,5.2,1.5,8.1
		c1,5.4,1.8,9.8,2,10.7c-1.6,2.6-9.6,4.5-12.5,0.6c0-0.1,0.1-0.2,0-0.2l-5.3-21.5C411,251.2,414.3,249.6,417.7,249.6L417.7,249.6z
		 M253.3,250.7c2.9,1.8,5,3.5,6.2,5c1.2,1.5,1.7,2.9,1.6,4.2c-0.1,2.5-2.5,5-6,7.2c-3.5,2.3-8,4.4-12.3,6.4c-2.1,1-4,1.9-5.7,2.9
		c-2.1,0.4-3.9-0.1-5.4-1.3c-1.7-1.3-3-3.3-3.9-5.5c-0.9-2.2-1.3-4.5-1.3-6.4c0-1.3,0.4-2.2,0.8-3c7.4-3.2,16.4-4.8,22.9-7.7
		C251.4,252,252.3,251.4,253.3,250.7L253.3,250.7z M400.6,251.6c2.1-0.2,4.3,0.4,6.3,1.9l5.2,20.7c-1.5,3.9-7.9,5.1-10.5,3.6
		l-7.8-21.4C393.5,254.5,396.7,252,400.6,251.6z M449.8,252c4.4,0.2,10.7,4.7,10.6,8.5l-5.3,21c-1,2.6-8.8,1.6-10.3-4c0,0,0,0,0,0
		c0,0,0.4-6.1,0.8-12.2c0.2-3.1,0.4-6.2,0.6-8.5c0.1-1.2,0.1-2.2,0.1-2.9c0-0.2,0-0.2,0-0.4C447.1,252.4,448.4,252,449.8,252
		L449.8,252z M387.9,256c1.1,0,2,0.3,2.8,0.8l8.1,22.1c-0.9,2.8-10.3,7.9-12.9,5l-8-22.2C378.2,259,383.7,256,387.9,256z
		 M466.8,260.5c4.4,0,9.5,3.9,9.5,9.9l-8.4,20.9c-3,1.2-10.1-1.7-10.2-7.3l5.6-22.3C464.3,261,465.5,260.5,466.8,260.5L466.8,260.5z
		 M371.3,261.9c1.3,0,2.5,0.4,3.7,1.2l7.8,21.7c-0.9,4.1-8.9,9-12.2,5.4l-9.2-21c0-0.1,0.1-0.4,0.1-0.3
		C361.9,267.1,366.5,262.1,371.3,261.9z M262.1,265.5c4.4,2.8,6,5.6,5.8,8.5c-0.2,3-2.2,6.1-5.1,9.1c-4.7,4.6-11.1,8.2-16.4,10.7
		c-1.2,0-2.6-0.5-4-1.5c-1.7-1.2-3.3-2.9-4.5-4.7c-1.3-1.8-2.2-3.8-2.5-5.4c-0.1-0.8-0.1-1.5,0-2c0.1-0.4,0.4-0.7,0.7-0.9
		c7.5-3.4,16.7-6.3,22.6-10.4C260.1,267.8,261.2,266.7,262.1,265.5L262.1,265.5z M355.9,269.3c1.2-0.2,2.3,0,3.2,0.5l9.5,21.8
		c0.2,5.7-11.1,11-13.7,8.6l-8.5-23.8C346.2,273.9,351.4,269.9,355.9,269.3z M482.2,271.2c4.2,0.1,9.9,2.8,9.7,6.7l-8.1,22.1
		c-4.2,3.2-13-4.2-13.2-7.2l8.3-20.6C479.6,271.5,480.7,271.2,482.2,271.2L482.2,271.2z M339.4,275.6c1.4-0.4,2.9,0,4.7,1.6
		l8.6,23.8c-0.2,2.5-9.7,9.2-14.7,6.2c-1.1-2.7-5.3-12.4-6.4-18.9c0.5-2.1,1.1-4.1,1.9-5.9c0.7-1.8,1.5-2.9,2.3-4.3
		C336.7,277.3,337.9,276.1,339.4,275.6L339.4,275.6z M429.3,278.7c0,0,0,0.1,0.1,0.2c0.2,1.8,10.8,3.8,12,3.6
		c-0.8,2.3,6,6.7,9.7,8.1c1,1.3,1,4.1,0.9,5.6c-0.3,3.8,0.8,8.7,6.3,12.2c3.5,2.2,15.5,6.4,15.6,16.1c0,6.9-5.5,9.8-8,11.4
		c2.2-4.1-0.1-8.3-4.7-9.1c-3.2-0.5-11.3-1-18.3-0.3c-0.7,0.1-1.2,0.7-1.1,1.3c0.1,0.7,0.7,1.2,1.3,1.1c3.1,0.6,4.6,0.5,4.1,3.2
		c0,0.1,0.1,0.1,0.1,0.2c-11.1,8.7-35,31.2-35.6,39.7c-0.2,2.4,2.3,5,5.6,4.7c0.2,0,11.7-5.6,16.5-1.3c-2.6,2.7-0.7,8.8-0.7,9.1
		c-6.1,4.4-13.3-1.9-25.1-1.9c-11.9-0.1-21.6,7.6-29.2,7.8c-1,0-1.5-0.2-2.1-0.3c0.7-0.9,1.2-1.9,1.3-1.9c0.1,0,0.7-0.4,0.9-0.4
		c0.2,0,0.4-0.1,0.5-0.4c0.1-0.2,0-0.5-0.1-0.6c-0.2-0.2-0.4-0.2-0.6-0.1c0.1,0,0,0-0.1,0c-0.1,0-0.2,0-0.4,0
		c-0.3,0-5.3,1.3-6.7,1.3c-2.8,0-9,2.1-12.9,4.2c-2.6,1.1-7.7,6.8-15.5,5.1c0.9-3.3-0.3-7.6-2.8-11.2c0.5,0,1.2-1.1,1.6-2
		c11.5-1.9,10.3,4,13-0.3c1.7-2.8,2.7,4.6,17-7.2c0.2-0.1,0.3-0.3,0.3-0.5c0-0.2-0.1-0.4-0.3-0.5c-0.2-0.1-0.4-0.1-0.6,0
		c-17.2,7.1-12.1,2.2-19.8,2.5c-7.3,0.3-5.3,2-9.7,2c-2.3,0-4.8-2.1-5.3-3.1c1.8-0.4,1.9-6.3,0.6-8.7c0.9-1.2,3.7-1.7,6.1-1.7
		c6.5,0,9.1,5.9,15.9,6.6c4.9,0,9.4-4.1,13.5-1.4c0.3,0.2,0.7,0.1,0.8-0.2c0.1-0.2,0-0.5-0.2-0.7c29.8,1,51.9-64.3,47.2-71.3
		c0-0.2-0.1-0.4-0.2-0.5c0,0-0.1,0-0.2,0c-0.6-2-1.8-4.6-4.9-5.7c0,0,0-0.2,0-0.3c-0.8-0.9-2.3-6.7-8.4-7.5c0.3-1.5,0.5-2.6,0.6-3.3
		c3.1-0.7,6.4-1.9,7.2-2.8C415.8,281.3,429.8,280.9,429.3,278.7L429.3,278.7z M496.5,279.8c3.9,0,9.4,3.3,9.8,6.7l-6.7,17.6
		c-3.1,3.6-10.7,1-11.8,0c-0.8-0.7-1.1-2.1-1.2-3.4l7.1-19.8C494.5,280.2,495.4,279.8,496.5,279.8z M267.3,281.8
		c-0.1,0.9-0.2,1.8-0.2,2.7c-0.3,5.3-0.4,10.1-0.5,14.6c0,0,0,0,0,0v0c-0.9,3.2-2.2,5.2-3.7,6.2c-1.5,1-3.3,1.1-5.1,0.5
		c-3.6-1.1-7.5-5.1-10.3-10.4c7.3-2.5,14.7-7.1,19.2-12.7C266.9,282.5,267,282.1,267.3,281.8z M402.8,283
		c-0.6,8-13.5,17.6-18.4,17.4c0,0,0,0,0,0c-0.9-0.8-2-1.3-2.8-2.2C379.6,294.9,398.7,284.1,402.8,283L402.8,283z M454.7,288
		c0,0.1,0.1,0.1,0.2,0.2c-0.1,0-0.2,0.1-0.3,0.1C454.6,288.2,454.6,288.1,454.7,288z M406.7,288.5c5.1,0.5,6.8,6.5,5.2,7.3
		c0.2,0.3-4.6,11.3-10.1,14.2c-1.8,1-4.3,0.5-5.8,0.3c-2.8-1.1-5.9-4-6.9-6.9c1.4-2.6,8.8-5,15.2-14.6
		C405.2,288.5,406,288.4,406.7,288.5L406.7,288.5z M508.9,288.7c3.5-0.8,10.6,3.1,10.9,8.4l-4,11c-2.4,1.8-13.5,2-13.6-2.3l6.4-16.9
		C508.7,288.8,508.7,288.7,508.9,288.7z M330.5,297.3c2.2-1.2,4.4,7.7,5.4,10.5l0,0c0,0.5-3.8,11-6.5-4c0.1-0.9,0.4-3.6,0.7-6
		C330.2,297.7,330.3,297.4,330.5,297.3z M415.1,298.2c0.6,0.8,2.3,0.9,2.9,3.5c-0.6,4.3-1.8,9.4-3.6,15c-2.6,1-7.1-0.6-9.8-2.1
		c-0.5-0.7-0.9-1.4-0.5-2.4c5.9-4,8.8-11,9.8-13.6C414.3,298.2,414.8,297.9,415.1,298.2z M521.7,300c2.2-0.3,8.7,4.3,9.4,10.4
		l0.1,0.4c-1.1,3.6-10.1,2.8-12.6-1.7L521.7,300z M266.4,304.5c-0.1,2.5-0.2,4.4-0.3,6.1c-0.7-0.6-1.2-1.4-1.6-2.4
		c0-0.1,0.1-0.1,0.1-0.1C265.3,307.1,265.9,305.9,266.4,304.5L266.4,304.5z M350.6,350.4c1.7,0,2.2,0.4,3.9,2
		c1.6,1.6,2.8,4.3,5.8,7.3c2.7,2.7,10.1,6.7,14.5,7.8c-1.5,0.5-3.1,0.8-4.7,1.1c-4.1-1.3-9.1,1.8-15.9-4c-1-0.8-3.5-1.4-6-1.8
		c-1.4-1.1-5.3-4.1-4.8-4.3c1.8-3,3.9-5.9,3.4-6.7C347.6,350.7,348.9,350.4,350.6,350.4L350.6,350.4z M339.8,351.2
		c1.8-0.4,3.7,0.2,5.1,0.9c-0.2,0.4-0.4,0.8-0.6,1.2c-1.2-0.7-2.6-1.3-5.3-0.7c-0.3,0-0.5,0.2-0.5,0.4c-0.1,0.2,0,0.5,0.2,0.6
		c0.2,0.1,0.5,0.2,0.7,0.1c2.2-0.5,3.2,0.4,4.2,1.2c-0.2,0.5-0.4,0.8-0.6,1.1c-1.3-1-6.1-4.1-7.3,0.8
		C335.8,353.3,337.6,351.7,339.8,351.2z M505.9,353.6c1.9,0.2,3.3,1,4.2,1.6c0.1,0.3,0.3,0.7,0.3,1c0,0.1-0.1,0.2-0.2,0.3
		c-1.5-0.9-4.2-2-7.2-1.3c-0.3,0-0.5,0.2-0.5,0.4c-0.1,0.2,0,0.4,0.1,0.6c0.2,0.1,0.5,0.2,0.7,0.1c2.6-0.6,4.2,1.5,5.5,2.5
		c-0.5,0.6-1.1,1.1-1.6,1.4c-0.9-0.8-5.7-4.9-9.6,0.6C499.9,354.6,503.1,353.3,505.9,353.6L505.9,353.6z M203.1,354.2
		c1.9-0.4,3.2,1.1,4,2.1c0,0.2-0.1,0.4-0.1,0.5c0.1,0.1,0,0.4-0.1,0.7c-1.2-0.6-2.6-0.9-5.3-0.2c-0.2,0-0.5,0.2-0.5,0.4
		s0,0.4,0.2,0.6c0.2,0.1,0.5,0.2,0.7,0.1c2.2-0.5,3,0.3,3.9,1.1c-0.5,0.6-0.9,1.1-1.2,1.4c-1.5-1-5.2-3-6.9,0
		C199.7,356.3,201.5,354.5,203.1,354.2L203.1,354.2z M341.3,357.9C341.3,357.9,341.3,358,341.3,357.9c0,0.1,0,0.1-0.1,0.1
		C341.2,358,341.2,358,341.3,357.9z M332.8,367.3c0.1,0,0.1,0,0.3,0c0.3,0.2,0.9,0.4,1.1,0.6c0.3,0.3,0.4,0.7,0.5,1.1
		c-1.7-0.2-3.8-0.1-5.6,1.4c-0.2,0.1-0.3,0.3-0.3,0.6s0.2,0.5,0.4,0.5c0.2,0.1,0.4,0,0.6-0.2c1.8-1.5,3.9-0.3,5.4,0.3
		c0,0.7-0.1,1.2-0.3,1.8c-1.4-1.2-5-3.2-8,0.2C326.5,367.9,330.6,367.2,332.8,367.3L332.8,367.3z M498.7,372.5
		c0.5,0,0.5,0.1,0.9,0.1c0.2,0.7,0.2,1.5,0.1,2.4c-1.7-0.2-4-0.2-6,1.5c-0.2,0.1-0.3,0.4-0.3,0.6c0,0.2,0.2,0.4,0.4,0.5
		c0.2,0.1,0.5,0,0.6-0.1c1.5-1.3,3.1-0.6,4.5,0c-0.1,0.4-0.3,0.8-0.4,1.2c-1.7-0.6-6.4-1.9-7.2,4.5
		C487.9,373.4,494.8,372.4,498.7,372.5L498.7,372.5z M436.2,376.6c0,0,0,0.2,0,0.2c4.4,0.1,12.6,5.8,2.6,11.9
		c3.3-4.3-2.8-5.8-3.6-5.9c0-0.1,0-0.3,0-0.4c1.5,0,2.9-0.7,5.6,2c0.2,0.2,0.3,0.4,0.5,0.4s0.4-0.1,0.6-0.3c0.1-0.2,0.1-0.4,0-0.6
		c-1.2-2.7-4.7-4-6.6-4.5C435.5,378.5,435.8,377.6,436.2,376.6L436.2,376.6z M198.4,377.6c0.1,0.7,0.1,1.4-0.1,2.2
		c-1.7-0.3-4.1-0.3-6.2,1.4c-0.2,0.1-0.3,0.3-0.3,0.6c0,0.2,0.2,0.5,0.4,0.5c0.2,0.1,0.5,0,0.6-0.1c1.5-1.3,3.2-0.6,4.6,0
		c-0.4,0.8-0.6,1.5-1,2.1c-1.6-0.7-4.5-1.7-7.1,0.8C190.4,377.9,195.5,377.3,198.4,377.6L198.4,377.6z M603.6,382.3
		c1.9,0.6,12.8,4.8,3.8,13.1c2.3-6.6-4.1-7.2-5.1-7.3c0-0.3,0-0.6,0-0.9c1.6,0.2,3.8,0.2,4.7,2.2c0.1,0.2,0.3,0.4,0.5,0.4
		c0.2,0,0.5-0.1,0.6-0.3c0.1-0.2,0.1-0.5,0-0.6c-1.2-2.7-3.7-3.9-5.4-4.4C602.9,383.8,603.2,382.9,603.6,382.3L603.6,382.3z
		 M506.6,388.1c0.4,0.6,0.7,1.4,0.9,2.3c-1.6,0.4-4.5,1.6-5.7,4.5c-0.1,0.2-0.1,0.5,0,0.6c0.1,0.2,0.4,0.3,0.6,0.3
		c0.2,0,0.4-0.2,0.5-0.4c1-2.2,3.5-2.1,5.1-2.3c0,0.3,0.1,0.6,0.1,1c-1.4,0.1-7.8,0.9-5.6,7.3C493,392.6,505.7,388.4,506.6,388.1
		L506.6,388.1z M339.2,388.7c0.3,0.5,0.5,0.9,0.8,1.4c-1.7,0.5-3.9,1.6-5,4.2c-0.1,0.2-0.1,0.5,0,0.6c0.1,0.2,0.4,0.3,0.6,0.3
		c0.2,0,0.4-0.2,0.5-0.4c0.9-2.1,3.1-2.1,4.7-2.2c0.2,0.9,0.3,1.8,0.3,2.7c-2-0.4-6.5,0.1-7.9,3.9
		C329.3,395,334.4,389.7,339.2,388.7z M297.5,390.2c4.4,0.9,12.7,4.7,3.6,13.1c3.1-4.6-3.2-5.9-4.9-6.2c-0.2-0.5-0.2-1-0.2-1.6
		c1.8,0.2,4.7,0.1,5.6,2.2c0.1,0.2,0.3,0.4,0.5,0.4c0.2,0,0.5-0.1,0.6-0.3c0.1-0.2,0.1-0.5,0-0.6c-1.2-2.7-4.5-4.1-6.4-4.7
		C296.6,391.6,297,390.8,297.5,390.2L297.5,390.2z M203.1,399.5L203.1,399.5c0.5,0.7,0.9,1.1,1.2,2c-1.6,0.6-3.4,1.7-4.4,3.9
		c-0.1,0.2-0.1,0.5,0,0.6c0.1,0.2,0.3,0.3,0.6,0.3c0.2,0,0.4-0.2,0.5-0.4c0.8-1.7,2.4-2,3.9-2.1c0.2,0.9,0.2,1.8,0.1,2.6
		c-2.1-0.1-5.7,0.3-3.9,5.6C195.5,404.8,199.9,399.7,203.1,399.5L203.1,399.5z"/>
</g>
</svg>
